<svg width="122" height="122" viewBox="0 0 122 122" fill="none" xmlns="http://www.w3.org/2000/svg">
<g opacity="0.7">
<path style="mix-blend-mode:color-dodge" d="M54.122 24.2021C45.5492 24.2021 37.1688 26.7443 30.0407 31.5071C22.9127 36.2699 17.357 43.0395 14.0763 50.9598C10.7956 58.8801 9.93726 67.5953 11.6097 76.0035C13.2822 84.4116 17.4104 92.135 23.4724 98.1969C29.5343 104.259 37.2577 108.387 45.6658 110.06C54.0739 111.732 62.7892 110.874 70.7095 107.593C78.6297 104.312 85.3993 98.7566 90.1622 91.6285C94.925 84.5005 97.4671 76.1201 97.4671 67.5473C97.4671 61.8551 96.346 56.2187 94.1677 50.9598C91.9894 45.7009 88.7966 40.9226 84.7716 36.8976C80.7467 32.8727 75.9683 29.6799 70.7095 27.5016C65.4506 25.3233 59.8142 24.2021 54.122 24.2021ZM54.122 96.4856C48.3882 96.4856 42.7831 94.7851 38.0158 91.5993C33.2484 88.4135 29.5329 83.8854 27.3393 78.5878C25.1456 73.2902 24.5723 67.461 25.6918 61.8375C26.8113 56.214 29.5734 51.0489 33.6287 46.9953C37.684 42.9417 42.8504 40.1819 48.4743 39.0648C54.0983 37.9476 59.9272 38.5235 65.2239 40.7194C70.5206 42.9154 75.0471 46.6328 78.2308 51.4015C81.4146 56.1703 83.1126 61.776 83.1101 67.5099C83.115 71.3192 82.3688 75.0921 80.9141 78.6128C79.4593 82.1334 77.3246 85.3326 74.6322 88.0274C71.9397 90.7221 68.7424 92.8595 65.223 94.3173C61.7036 95.7751 57.9313 96.5246 54.122 96.5229V96.4856Z" fill="url(#paint0_linear_58_544)"/>
<path style="mix-blend-mode:color-dodge" d="M77.0533 69.1053C76.8405 74.0076 74.9117 78.6792 71.604 82.3036C68.2962 85.928 63.82 88.2746 58.9575 88.9334V99.3647C66.5821 98.6758 73.6898 95.2159 78.9353 89.6397C84.1808 84.0634 87.2002 76.7578 87.4222 69.1053H77.0533Z" fill="url(#paint1_linear_58_544)"/>
<path style="mix-blend-mode:color-dodge" d="M48.626 103.116C40.4011 101.839 32.8722 97.7537 27.3193 91.5533C21.7665 85.3529 18.5325 77.4207 18.1673 69.1053H0.345703C0.726987 82.1481 5.83313 94.6084 14.7142 104.168C23.5953 113.728 35.6465 119.736 48.626 121.075V103.116Z" fill="url(#paint2_linear_58_544)"/>
<path style="mix-blend-mode:color-dodge" d="M48.6261 14.0081C36.2362 15.2863 24.6731 20.8219 15.9078 29.6713C7.1425 38.5207 1.71752 50.1361 0.557617 62.5376H18.4789C19.5529 54.8828 23.0636 47.7773 28.4912 42.2734C33.9187 36.7695 40.9745 33.16 48.6136 31.9792L48.6261 14.0081Z" fill="url(#paint3_linear_58_544)"/>
<path style="mix-blend-mode:color-dodge" d="M61.7866 120.152C74.1765 118.874 85.7396 113.339 94.5049 104.489C103.27 95.6397 108.695 84.0243 109.855 71.6228H91.9213C90.8473 79.2777 87.3366 86.3832 81.9091 91.887C76.4815 97.3909 69.4258 101 61.7866 102.181V120.152Z" fill="url(#paint4_linear_58_544)"/>
<path style="mix-blend-mode:color-dodge" d="M60.8521 0V22.2458C70.5 23.5571 79.4557 27.9832 86.3574 34.8511C93.259 41.719 97.729 50.653 99.0875 60.2943H121.346C119.89 44.7619 113.043 30.229 101.994 19.216C90.9447 8.203 76.3892 1.40465 60.8521 0Z" fill="url(#paint5_linear_58_544)"/>
<path style="mix-blend-mode:color-dodge" d="M54.122 24.2021C45.5492 24.2021 37.1688 26.7443 30.0407 31.5071C22.9127 36.2699 17.357 43.0395 14.0763 50.9598C10.7956 58.8801 9.93726 67.5953 11.6097 76.0035C13.2822 84.4116 17.4104 92.135 23.4724 98.1969C29.5343 104.259 37.2577 108.387 45.6658 110.06C54.0739 111.732 62.7892 110.874 70.7095 107.593C78.6297 104.312 85.3993 98.7566 90.1622 91.6285C94.925 84.5005 97.4671 76.1201 97.4671 67.5473C97.4671 61.8551 96.346 56.2187 94.1677 50.9598C91.9894 45.7009 88.7966 40.9226 84.7716 36.8976C80.7467 32.8727 75.9683 29.6799 70.7095 27.5016C65.4506 25.3233 59.8142 24.2021 54.122 24.2021ZM54.122 96.4856C48.3882 96.4856 42.7831 94.7851 38.0158 91.5993C33.2484 88.4135 29.5329 83.8854 27.3393 78.5878C25.1456 73.2902 24.5723 67.461 25.6918 61.8375C26.8113 56.214 29.5734 51.0489 33.6287 46.9953C37.684 42.9417 42.8504 40.1819 48.4743 39.0648C54.0983 37.9476 59.9272 38.5235 65.2239 40.7194C70.5206 42.9154 75.0471 46.6328 78.2308 51.4015C81.4146 56.1703 83.1126 61.776 83.1101 67.5099C83.115 71.3192 82.3688 75.0921 80.9141 78.6128C79.4593 82.1334 77.3246 85.3326 74.6322 88.0274C71.9397 90.7221 68.7424 92.8595 65.223 94.3173C61.7036 95.7751 57.9313 96.5246 54.122 96.5229V96.4856Z" fill="url(#paint6_linear_58_544)"/>
<path style="mix-blend-mode:color-dodge" d="M77.0533 69.1053C76.8405 74.0076 74.9117 78.6792 71.604 82.3036C68.2962 85.928 63.82 88.2746 58.9575 88.9334V99.3647C66.5821 98.6758 73.6898 95.2159 78.9353 89.6397C84.1808 84.0634 87.2002 76.7578 87.4222 69.1053H77.0533Z" fill="url(#paint7_linear_58_544)"/>
<path style="mix-blend-mode:color-dodge" d="M50.8067 34.7458C43.0789 35.5542 35.869 39.012 30.401 44.5323C24.933 50.0525 21.5439 57.295 20.8091 65.0301H32.0255C32.693 60.2521 34.8832 55.8167 38.2709 52.3818C41.6586 48.947 46.0633 46.6958 50.8316 45.9622L50.8067 34.7458Z" fill="url(#paint8_linear_58_544)"/>
<path style="mix-blend-mode:color-dodge" d="M60.8521 0V22.2458C70.5 23.5571 79.4557 27.9832 86.3574 34.8511C93.259 41.719 97.729 50.653 99.0875 60.2943H121.346C119.89 44.7619 113.043 30.229 101.994 19.216C90.9447 8.203 76.3892 1.40465 60.8521 0Z" fill="url(#paint9_linear_58_544)"/>
</g>
<circle cx="54.3457" cy="67" r="27" fill="url(#paint10_linear_58_544)"/>
<path d="M74.5736 41.2434C75.4376 40.4371 76.5874 39.9913 77.7803 40.0001C78.9733 40.009 80.116 40.4718 80.9675 41.2908C81.819 42.1099 82.3126 43.2212 82.3441 44.3902C82.3756 45.5592 81.9426 46.6945 81.1365 47.5565L56.6635 77.5588C56.2427 78.0031 55.7348 78.3597 55.1702 78.6072C54.6056 78.8546 53.9959 78.988 53.3775 78.9992C52.7591 79.0105 52.1448 78.8993 51.5712 78.6725C50.9976 78.4456 50.4766 78.1078 50.0393 77.679L33.8098 61.77C33.3579 61.3572 32.9954 60.8593 32.7439 60.3062C32.4925 59.7531 32.3573 59.1559 32.3464 58.5505C32.3355 57.945 32.4491 57.3436 32.6805 56.7821C32.9119 56.2206 33.2562 55.7105 33.6931 55.2823C34.1299 54.8541 34.6502 54.5165 35.223 54.2897C35.7958 54.0629 36.4094 53.9516 37.027 53.9622C37.6447 53.9729 38.2539 54.1055 38.8181 54.3519C39.3824 54.5984 39.8903 54.9537 40.3114 55.3968L53.1551 67.9809L74.4571 41.3757C74.4954 41.3294 74.5364 41.2852 74.5797 41.2434H74.5736Z" fill="#16171B"/>
<defs>
<linearGradient id="paint0_linear_58_544" x1="61.4376" y1="-39.4197" x2="48.7631" y2="145.962" gradientUnits="userSpaceOnUse">
<stop stop-opacity="0"/>
<stop offset="1" stop-color="white"/>
</linearGradient>
<linearGradient id="paint1_linear_58_544" x1="132.375" y1="88.2854" x2="-1.49885" y2="79.1378" gradientUnits="userSpaceOnUse">
<stop stop-opacity="0"/>
<stop offset="1" stop-color="white"/>
</linearGradient>
<linearGradient id="paint2_linear_58_544" x1="184.98" y1="105.459" x2="-45.2178" y2="89.7186" gradientUnits="userSpaceOnUse">
<stop stop-opacity="0"/>
<stop offset="1" stop-color="white"/>
</linearGradient>
<linearGradient id="paint3_linear_58_544" x1="188.806" y1="49.5017" x2="-41.4042" y2="33.7738" gradientUnits="userSpaceOnUse">
<stop stop-opacity="0"/>
<stop offset="1" stop-color="white"/>
</linearGradient>
<linearGradient id="paint4_linear_58_544" x1="-78.3809" y1="84.6587" x2="151.829" y2="100.399" gradientUnits="userSpaceOnUse">
<stop stop-opacity="0"/>
<stop offset="1" stop-color="white"/>
</linearGradient>
<linearGradient id="paint5_linear_58_544" x1="222.306" y1="39.8805" x2="-63.3633" y2="20.364" gradientUnits="userSpaceOnUse">
<stop stop-opacity="0"/>
<stop offset="1" stop-color="white"/>
</linearGradient>
<linearGradient id="paint6_linear_58_544" x1="61.4376" y1="-39.4197" x2="48.7631" y2="145.962" gradientUnits="userSpaceOnUse">
<stop stop-opacity="0"/>
<stop offset="1" stop-color="white"/>
</linearGradient>
<linearGradient id="paint7_linear_58_544" x1="132.375" y1="88.2854" x2="-1.49885" y2="79.1378" gradientUnits="userSpaceOnUse">
<stop stop-opacity="0"/>
<stop offset="1" stop-color="white"/>
</linearGradient>
<linearGradient id="paint8_linear_58_544" x1="138.282" y1="56.9045" x2="-5.36251" y2="47.0839" gradientUnits="userSpaceOnUse">
<stop stop-opacity="0"/>
<stop offset="1" stop-color="white"/>
</linearGradient>
<linearGradient id="paint9_linear_58_544" x1="222.306" y1="39.8805" x2="-63.3633" y2="20.364" gradientUnits="userSpaceOnUse">
<stop stop-opacity="0"/>
<stop offset="1" stop-color="white"/>
</linearGradient>
<linearGradient id="paint10_linear_58_544" x1="54.3457" y1="40" x2="54.3457" y2="94" gradientUnits="userSpaceOnUse">
<stop stop-color="white"/>
<stop offset="1" stop-color="#EAEAEA"/>
</linearGradient>
</defs>
</svg>
