<svg width="18" height="18" viewBox="0 0 18 18" fill="none" xmlns="http://www.w3.org/2000/svg">
<path d="M12.9467 5.42825C13.1022 5.28352 13.3092 5.20351 13.5239 5.2051C13.7387 5.20669 13.9444 5.28975 14.0976 5.43676C14.2509 5.58378 14.3397 5.78324 14.3454 5.99306C14.3511 6.20288 14.2732 6.40665 14.128 6.56137L9.72291 11.9464C9.64717 12.0261 9.55575 12.0901 9.45411 12.1346C9.35248 12.179 9.24273 12.2029 9.13142 12.2049C9.02011 12.207 8.90953 12.187 8.80629 12.1463C8.70305 12.1056 8.60926 12.0449 8.53055 11.968L5.60925 9.11251C5.52789 9.03842 5.46264 8.94906 5.41739 8.84978C5.37213 8.7505 5.34779 8.64332 5.34583 8.53465C5.34387 8.42597 5.36432 8.31802 5.40597 8.21724C5.44761 8.11646 5.5096 8.02491 5.58823 7.94806C5.66686 7.8712 5.76052 7.81061 5.86362 7.7699C5.96673 7.7292 6.07716 7.70921 6.18834 7.71112C6.29952 7.71304 6.40917 7.73683 6.51074 7.78106C6.61231 7.8253 6.70373 7.88908 6.77953 7.9686L9.0914 10.2273L12.9257 5.45199C12.9326 5.44369 12.94 5.43576 12.9478 5.42825H12.9467Z" fill="white"/>
<path d="M7.49955 1H1.3457L1.3457 6.74359" stroke="#F5E832"/>
<path d="M11.1919 17.4102L17.3457 17.4102L17.3457 11.6666" stroke="#F5E832"/>
</svg>
