<svg width="142" height="142" viewBox="0 0 142 142" fill="none" xmlns="http://www.w3.org/2000/svg">
<g filter="url(#filter0_d_58_687)">
<path d="M17.2402 123H62.0397C63.2757 123 64.2797 121.996 64.2797 120.76V93.8803C64.2797 92.6443 63.2757 91.6403 62.0397 91.6403H46.3599V89.4003H59.7997C61.0357 89.4003 62.0397 88.3964 62.0397 87.1604V62.5206C62.0397 60.0497 60.0307 58.0407 57.5598 58.0407H48.5418C49.9637 56.1637 50.8397 53.8518 50.8397 51.3207C50.8397 45.1448 45.8158 40.1208 39.6399 40.1208C33.4639 40.1208 28.44 45.1448 28.44 51.3207C28.44 53.8517 29.316 56.1637 30.7379 58.0407H21.7199C19.249 58.0407 17.24 60.0497 17.24 62.5206V87.1604C17.24 88.3964 18.244 89.4003 19.48 89.4003H32.9198V91.6403H17.24C16.004 91.6403 15 92.6443 15 93.8803V120.76C15 121.996 16.004 123 17.24 123H17.2402ZM39.64 44.6008C43.345 44.6008 46.3599 47.6157 46.3599 51.3207C46.3599 55.0258 43.345 58.0407 39.64 58.0407C35.9349 58.0407 32.92 55.0258 32.92 51.3207C32.92 47.6157 35.9349 44.6008 39.64 44.6008ZM21.7201 84.9204V62.5206H57.5598V84.9204H46.3599C46.3599 83.6844 45.3559 82.6804 44.1199 82.6804H35.16C33.924 82.6804 32.92 83.6844 32.92 84.9204H21.7201ZM41.8799 87.1604V91.6403H37.4V87.1604H41.8799ZM19.4802 96.1203H59.7997V118.52H19.4802V96.1203Z" fill="white"/>
<path d="M50.8397 67.0006C50.8397 65.7646 49.8357 64.7606 48.5997 64.7606H30.6799C29.4439 64.7606 28.4399 65.7646 28.4399 67.0006C28.4399 68.2366 29.4439 69.2406 30.6799 69.2406H48.5997C49.8357 69.2406 50.8397 68.2366 50.8397 67.0006Z" fill="white"/>
<path d="M21.7204 53.5607H23.9604C25.1964 53.5607 26.2004 52.5567 26.2004 51.3207V49.0807C26.2004 41.6688 32.2284 35.6408 39.6403 35.6408C47.0522 35.6408 53.0801 41.6688 53.0801 49.0807V51.3207C53.0801 52.5567 54.0841 53.5607 55.3201 53.5607H57.5601C58.7961 53.5607 59.8001 52.5567 59.8001 51.3207C59.8001 50.0847 58.7961 49.0807 57.5601 49.0807C57.5601 39.1997 49.5213 31.1609 39.6403 31.1609C29.7593 31.1609 21.7204 39.1997 21.7204 49.0807C20.4845 49.0807 19.4805 50.0847 19.4805 51.3207C19.4805 52.5567 20.4845 53.5607 21.7204 53.5607Z" fill="white"/>
<path d="M32.9202 11.0011C31.6842 11.0011 30.6802 12.0051 30.6802 13.2411V26.6809C30.6802 27.9169 31.6842 28.9209 32.9202 28.9209H46.36C47.596 28.9209 48.6 27.9169 48.6 26.6809V13.2411C48.6 12.0051 47.596 11.0011 46.36 11.0011H32.9202ZM44.12 24.441H35.1601V15.4811H44.12V24.441Z" fill="white"/>
<path d="M124.759 91.6403H109.079V89.4003H122.519C123.755 89.4003 124.759 88.3964 124.759 87.1604V62.5206C124.759 60.0497 122.75 58.0407 120.279 58.0407H111.261C112.683 56.1637 113.559 53.8518 113.559 51.3207C113.559 45.1448 108.535 40.1208 102.359 40.1208C96.1832 40.1208 91.1592 45.1448 91.1592 51.3207C91.1592 53.8517 92.0352 56.1637 93.4572 58.0407H84.4392C81.9682 58.0407 79.9592 60.0497 79.9592 62.5206V87.1604C79.9592 88.3964 80.9632 89.4003 82.1992 89.4003H95.6391V91.6403H79.9592C78.7232 91.6403 77.7192 92.6443 77.7192 93.8803V120.76C77.7192 121.996 78.7232 123 79.9592 123H124.759C125.995 123 126.999 121.996 126.999 120.76V93.8803C126.999 92.6443 125.995 91.6403 124.759 91.6403H124.759ZM102.359 44.6008C106.064 44.6008 109.079 47.6157 109.079 51.3207C109.079 55.0258 106.064 58.0407 102.359 58.0407C98.6541 58.0407 95.6393 55.0258 95.6393 51.3207C95.6393 47.6157 98.6541 44.6008 102.359 44.6008ZM84.4394 84.9204V62.5206H120.279V84.9204H109.079C109.079 83.6844 108.075 82.6804 106.839 82.6804H97.8792C96.6433 82.6804 95.6393 83.6844 95.6393 84.9204H84.4394ZM104.599 87.1604V91.6403H100.119V87.1604H104.599ZM122.519 118.52H82.1994V96.1203H122.519V118.52Z" fill="white"/>
<path d="M113.559 67.0006C113.559 65.7646 112.555 64.7606 111.319 64.7606H93.3996C92.1637 64.7606 91.1597 65.7646 91.1597 67.0006C91.1597 68.2366 92.1637 69.2406 93.3996 69.2406H111.319C112.555 69.2406 113.559 68.2366 113.559 67.0006Z" fill="white"/>
<path d="M118.039 53.5607H120.279C121.515 53.5607 122.519 52.5567 122.519 51.3207C122.519 50.0847 121.515 49.0807 120.279 49.0807C120.279 39.1997 112.24 31.1609 102.36 31.1609C92.4785 31.1609 84.4397 39.1997 84.4397 49.0807C83.2037 49.0807 82.1997 50.0847 82.1997 51.3207C82.1997 52.5567 83.2037 53.5607 84.4397 53.5607H86.6797C87.9156 53.5607 88.9196 52.5567 88.9196 51.3207V49.0807C88.9196 41.6688 94.9476 35.6408 102.36 35.6408C109.771 35.6408 115.799 41.6688 115.799 49.0807V51.3207C115.799 52.5567 116.803 53.5607 118.039 53.5607Z" fill="white"/>
<path d="M111.319 19.961C111.319 15.02 107.3 11.0011 102.359 11.0011C97.4183 11.0011 93.3994 15.02 93.3994 19.961C93.3994 24.902 97.4183 28.9209 102.359 28.9209C107.3 28.9209 111.319 24.902 111.319 19.961ZM97.8794 19.961C97.8794 17.49 99.8884 15.4811 102.359 15.4811C104.83 15.4811 106.839 17.49 106.839 19.961C106.839 22.432 104.83 24.441 102.359 24.441C99.8884 24.441 97.8794 22.432 97.8794 19.961Z" fill="white"/>
<path d="M79.3042 11.657C78.4282 10.781 77.0122 10.781 76.1372 11.657L62.6974 25.0969C62.0564 25.7379 61.8644 26.7008 62.2114 27.5388C62.5574 28.3738 63.3754 28.9208 64.2804 28.9208H72.3133L62.6975 38.5366C61.8215 39.4126 61.8215 40.8286 62.6975 41.7035C63.1335 42.1405 63.7075 42.3605 64.2805 42.3605C64.8535 42.3605 65.4275 42.1405 65.8645 41.7045L79.3044 28.2647C79.9453 27.6237 80.1373 26.6607 79.7903 25.8227C79.4433 24.9877 78.6253 24.4407 77.7204 24.4407H69.6874L79.3032 14.8249C80.1802 13.9489 80.1802 12.533 79.3042 11.657L79.3042 11.657Z" fill="white"/>
</g>
<defs>
<filter id="filter0_d_58_687" x="0" y="0" width="141.999" height="142" filterUnits="userSpaceOnUse" color-interpolation-filters="sRGB">
<feFlood flood-opacity="0" result="BackgroundImageFix"/>
<feColorMatrix in="SourceAlpha" type="matrix" values="0 0 0 0 0 0 0 0 0 0 0 0 0 0 0 0 0 0 127 0" result="hardAlpha"/>
<feOffset dy="4"/>
<feGaussianBlur stdDeviation="7.5"/>
<feComposite in2="hardAlpha" operator="out"/>
<feColorMatrix type="matrix" values="0 0 0 0 0.960784 0 0 0 0 0.909804 0 0 0 0 0.196078 0 0 0 0.66 0"/>
<feBlend mode="normal" in2="BackgroundImageFix" result="effect1_dropShadow_58_687"/>
<feBlend mode="normal" in="SourceGraphic" in2="effect1_dropShadow_58_687" result="shape"/>
</filter>
</defs>
</svg>
