<svg width="147" height="147" viewBox="0 0 147 147" fill="none" xmlns="http://www.w3.org/2000/svg">
<g filter="url(#filter0_d_58_671)">
<path d="M118.023 91.8905H90.2271C89.805 91.8905 89.3864 91.9234 88.9712 91.964C86.9913 91.042 85.1792 90.2203 83.8524 89.639H83.8533C84.0738 89.2801 84.2546 88.8978 84.3939 88.4999H88.6252C90.1665 88.4999 91.6457 87.8875 92.7353 86.7977C93.825 85.7078 94.4375 84.2286 94.4375 82.6875V76.875H96.375C97.4026 76.875 98.3887 76.4667 99.1152 75.7402C99.8418 75.0136 100.25 74.0276 100.25 73V38.4726C100.25 23.5816 84.2795 11 65.375 11C46.4706 11 30.5 23.5825 30.5 38.4726V73C30.5 74.0276 30.9083 75.0136 31.6349 75.7402C32.3614 76.4667 33.3475 76.875 34.375 76.875H42.125C42.8585 76.8733 43.5773 76.6614 44.194 76.2643C46.0891 79.7268 48.9175 82.5872 52.3566 84.5221C51.3117 86.0704 50.1077 87.5045 48.7643 88.8018C42.117 91.5376 35.6569 94.7096 29.4265 98.2956C20.4164 104.336 15.0069 114.466 15 125.312C15 125.826 15.2041 126.319 15.5674 126.682C15.9307 127.045 16.4237 127.25 16.9375 127.25H113.812C114.326 127.25 114.819 127.045 115.183 126.682C115.546 126.319 115.75 125.826 115.75 125.312C115.742 123.477 115.578 121.645 115.258 119.837C118.635 120.303 122.069 119.528 124.919 117.656C127.769 115.784 129.844 112.942 130.758 109.657C133.169 101.399 126.783 91.7024 118.023 91.8902V91.8905ZM90.5615 82.6875C90.5615 83.2013 90.3573 83.6943 89.994 84.0576C89.6308 84.4209 89.1377 84.625 88.624 84.625H84.3927C83.9801 83.4504 83.2025 82.4393 82.174 81.7378C83.9359 80.1783 85.4088 78.3194 86.5239 76.247C87.1484 76.6562 87.8776 76.8741 88.624 76.875H90.5615L90.5615 82.6875ZM73.124 88.5C72.054 88.5 71.1865 87.6324 71.1865 86.5625C71.1865 85.4925 72.054 84.625 73.124 84.625H78.9365C80.0064 84.625 80.874 85.4925 80.874 86.5625C80.874 87.6324 80.0064 88.5 78.9365 88.5H73.124ZM77.8898 92.375L75.1773 98.4687L68.6166 92.9097L70.4745 91.7049H70.4753C71.291 92.1391 72.2001 92.3691 73.1239 92.3752L77.8898 92.375ZM81.86 92.9874C82.3755 93.2157 82.9628 93.4778 83.6427 93.7857C82.2847 94.6204 81.0849 95.6878 80.0989 96.9393L81.86 92.9874ZM96.374 72.9999H88.624V61.1032C89.091 61.1811 89.5599 61.2701 90.0226 61.3315V61.3324C91.1323 61.476 92.2506 61.1369 93.094 60.4026C93.9374 59.6674 94.4261 58.6069 94.4364 57.4886V55.5623H96.3739L96.374 72.9999ZM34.374 38.4725C34.374 25.902 48.8603 14.8749 65.374 14.8749C81.8877 14.8749 96.374 25.9032 96.374 38.4725V51.6865H94.4365V38.4725C94.4365 26.9713 81.4145 17.3711 65.4116 17.0821V17.083C56.5613 16.9299 48.0036 20.247 41.5682 26.3241C38.1974 29.463 36.292 33.8673 36.3119 38.4723V51.6863H34.3744L34.374 38.4725ZM42.124 72.9999H34.374V55.5624H36.3945C36.5978 56.8123 37.4022 57.8823 38.5465 58.4246C39.6909 58.966 41.0289 58.9107 42.1239 58.2749L42.124 72.9999ZM40.1865 54.9466V38.3999C40.2306 34.8433 41.7304 31.4595 44.3365 29.0377C50.0442 23.7555 57.5617 20.863 65.3394 20.9591C79.01 21.2091 90.5623 29.2299 90.5623 38.4737L90.5295 57.5001C76.25 55.6128 58.8386 44.6331 58.6637 44.5189C58.0288 44.1158 57.2184 44.1158 56.5843 44.5189L40.1865 54.9466ZM45.999 68.1562V55.8418L57.6395 48.4326C66.0927 53.6076 75.2136 57.6046 84.749 60.3112V68.1564C84.5396 73.398 81.6385 78.1596 77.0769 80.7501H73.124C72.067 80.7536 71.0308 81.0468 70.1287 81.5969C69.2257 82.147 68.4913 82.9333 68.0035 83.8716C67.1308 83.9789 66.2528 84.036 65.374 84.0438C54.691 84.0438 45.999 76.9158 45.999 68.1563L45.999 68.1562ZM65.374 90.3942L61.0007 87.5555C62.4469 87.7942 63.9088 87.9153 65.374 87.9179C66.0599 87.9179 66.757 87.8885 67.4602 87.8323C67.5346 88.1765 67.6401 88.5121 67.7768 88.8365L65.374 90.3942ZM67.5831 97.1133L65.374 99.3224L63.1649 97.1133L65.374 95.2432L67.5831 97.1133ZM54.6268 88.0398L62.1328 92.9085L55.567 98.4728L52.1798 90.8552C53.0491 89.9652 53.8656 89.025 54.6268 88.0398ZM36.3114 123.373V117.561C36.3114 116.491 35.4438 115.623 34.3739 115.623C33.3039 115.623 32.4364 116.491 32.4364 117.561V123.373H18.9396C19.2199 119.327 20.3495 115.385 22.2533 111.804C25.7408 105.254 30.8613 101.353 37.7533 98.1044L36.4593 101.342H36.4585C36.2275 101.937 36.3028 102.608 36.66 103.138C37.0164 103.668 37.6106 103.989 38.2489 103.998H44.7126L43.1626 109.267C42.9378 110.036 43.2102 110.865 43.8486 111.351L59.6331 123.373L36.3114 123.373ZM47.2617 109.076L49.1568 102.605C49.3281 102.019 49.2139 101.387 48.848 100.899C48.4821 100.41 47.9069 100.123 47.2971 100.123H41.1102L42.9041 95.6374C45.2914 94.5372 47.4494 93.5892 48.8792 92.9699L60.5301 119.189L47.2617 109.076ZM59.6617 107.711L57.1947 102.164L60.1885 99.6276L61.6866 101.126L59.6617 107.711ZM65.3739 120.539L62.0662 113.105L64.8971 103.909C65.2042 104.024 65.5433 104.024 65.8503 103.909L68.6786 113.105L65.3739 120.539ZM70.5489 99.6276L73.5426 102.162L71.0757 107.709L69.0508 101.121L70.5489 99.6276ZM77.2489 103.363V103.362C76.8726 105.453 76.9548 107.6 77.4893 109.656C77.7782 110.716 78.196 111.737 78.7331 112.695L70.2081 119.184L77.2489 103.363ZM94.4364 123.373H71.1155L81.0512 115.803C83.0242 117.81 85.5584 119.175 88.3203 119.715C90.346 120.11 92.4322 120.063 94.4373 119.578L94.4364 123.373ZM98.3114 123.373V117.995C98.6989 117.764 99.0751 117.52 99.441 117.251C100.789 116.231 102.434 115.679 104.125 115.679C105.816 115.679 107.46 116.231 108.808 117.251C109.504 117.754 110.244 118.193 111.019 118.561C111.419 120.139 111.682 121.75 111.806 123.373L98.3114 123.373ZM127.011 108.667C126.096 111.895 123.659 114.47 120.486 115.56C117.314 116.649 113.808 116.115 111.104 114.129C109.098 112.605 106.648 111.78 104.129 111.78C101.61 111.78 99.1601 112.605 97.1542 114.129C94.4503 116.116 90.9447 116.651 87.7711 115.562C84.5976 114.473 82.1593 111.898 81.245 108.67C80.3774 105.472 81.0556 102.052 83.0778 99.4278C84.7602 97.1555 87.4087 95.801 90.2353 95.7656H118.02C124.283 95.667 128.688 102.745 127.01 108.667L127.011 108.667Z" fill="white"/>
<path d="M115.749 105.938C115.749 107.008 114.881 107.875 113.812 107.875C112.742 107.875 111.874 107.008 111.874 105.938C111.874 104.868 112.742 104 113.812 104C114.881 104 115.749 104.868 115.749 105.938Z" fill="white"/>
<path d="M123.499 105.938C123.499 107.008 122.631 107.875 121.562 107.875C120.492 107.875 119.624 107.008 119.624 105.938C119.624 104.868 120.492 104 121.562 104C122.631 104 123.499 104.868 123.499 105.938Z" fill="white"/>
<path d="M119.624 102.063C119.624 103.133 118.756 104 117.687 104C116.617 104 115.749 103.133 115.749 102.063C115.749 100.993 116.617 100.125 117.687 100.125C118.756 100.125 119.624 100.993 119.624 102.063Z" fill="white"/>
<path d="M119.624 109.813C119.624 110.883 118.756 111.75 117.687 111.75C116.617 111.75 115.749 110.883 115.749 109.813C115.749 108.743 116.617 107.875 117.687 107.875C118.756 107.875 119.624 108.743 119.624 109.813Z" fill="white"/>
<path d="M94.4365 104H92.499V102.063C92.499 100.993 91.6315 100.125 90.5615 100.125C89.4916 100.125 88.624 100.993 88.624 102.063V104H86.6865C85.6166 104 84.749 104.868 84.749 105.938C84.749 107.008 85.6166 107.875 86.6865 107.875H88.624V109.813C88.624 110.883 89.4916 111.75 90.5615 111.75C91.6315 111.75 92.499 110.883 92.499 109.813V107.875H94.4365C95.5065 107.875 96.374 107.008 96.374 105.938C96.374 104.868 95.5065 104 94.4365 104Z" fill="white"/>
<path d="M75.197 67.8566C77.2564 67.7251 79.1767 66.7685 80.5208 65.2021C81.1704 64.3675 81.0302 63.166 80.2068 62.5034C79.3773 61.8382 78.1672 61.9662 77.4943 62.7897C76.9104 63.5456 75.9979 63.9755 75.0431 63.9444C74.0882 63.9132 73.2059 63.4254 72.6722 62.6331C71.9119 61.8988 70.7036 61.9091 69.9562 62.6565C69.2088 63.4038 69.1985 64.6121 69.932 65.3725C71.2882 66.8663 73.1817 67.7597 75.1969 67.8567L75.197 67.8566Z" fill="white"/>
<path d="M60.9767 65.2018C61.6263 64.3671 61.487 63.1657 60.6627 62.503C59.8332 61.8378 58.6232 61.9659 57.9502 62.7893C57.3664 63.5453 56.4539 63.9752 55.499 63.944C54.5441 63.9129 53.6618 63.425 53.1282 62.6327C52.3679 61.8984 51.1595 61.9088 50.4121 62.6561C49.6647 63.4034 49.6544 64.6117 50.3888 65.3721C51.7459 66.8668 53.6418 67.7602 55.6581 67.8563C57.7167 67.7231 59.6334 66.7665 60.9768 65.2019L60.9767 65.2018Z" fill="white"/>
<path d="M70.6037 75.7262C71.332 74.9599 71.3389 73.7602 70.6193 72.9861C70.262 72.6133 69.7699 72.4005 69.2535 72.397C68.7371 72.3936 68.2415 72.6003 67.88 72.9687C67.2114 73.6235 66.3144 73.9911 65.3785 73.9946C64.4435 73.998 63.5439 73.6356 62.871 72.986C62.5172 72.6081 62.0234 72.3909 61.5052 72.3875C60.9871 72.384 60.4907 72.5934 60.1317 72.967C59.3844 73.7239 59.3757 74.9391 60.1118 75.7063C61.5044 77.0937 63.3883 77.8739 65.3544 77.8782C67.3195 77.8817 69.2068 77.1084 70.6038 75.7262L70.6037 75.7262Z" fill="white"/>
</g>
<defs>
<filter id="filter0_d_58_671" x="0" y="0" width="146.271" height="146.25" filterUnits="userSpaceOnUse" color-interpolation-filters="sRGB">
<feFlood flood-opacity="0" result="BackgroundImageFix"/>
<feColorMatrix in="SourceAlpha" type="matrix" values="0 0 0 0 0 0 0 0 0 0 0 0 0 0 0 0 0 0 127 0" result="hardAlpha"/>
<feOffset dy="4"/>
<feGaussianBlur stdDeviation="7.5"/>
<feComposite in2="hardAlpha" operator="out"/>
<feColorMatrix type="matrix" values="0 0 0 0 0.960784 0 0 0 0 0.909804 0 0 0 0 0.196078 0 0 0 0.66 0"/>
<feBlend mode="normal" in2="BackgroundImageFix" result="effect1_dropShadow_58_671"/>
<feBlend mode="normal" in="SourceGraphic" in2="effect1_dropShadow_58_671" result="shape"/>
</filter>
</defs>
</svg>
