<svg width="102" height="137" viewBox="0 0 102 137" fill="none" xmlns="http://www.w3.org/2000/svg">
<path d="M50.8999 9.82594e-07C44.2161 -0.0013124 37.5975 1.31404 31.4221 3.87091C25.2467 6.42779 19.6353 10.1761 14.9087 14.9018C10.1821 19.6275 6.43284 25.238 3.87476 31.4129C1.31667 37.5878 -1.29041e-07 44.2062 0 50.89C0 102.83 48.48 136.69 48.48 136.69C48.48 136.69 101.8 102.14 101.8 50.89C101.8 44.2062 100.483 37.5878 97.9253 31.4129C95.3672 25.238 91.6177 19.6275 86.8911 14.9018C82.1645 10.1761 76.5531 6.42779 70.3777 3.87091C64.2023 1.31404 57.5837 -0.0013124 50.8999 9.82594e-07ZM50.8999 87.63C43.4693 87.63 36.2055 85.4266 30.0271 81.2983C23.8487 77.1701 19.0333 71.3025 16.1897 64.4374C13.3461 57.5724 12.6021 50.0183 14.0518 42.7305C15.5014 35.4426 19.0797 28.7483 24.334 23.494C29.5882 18.2398 36.2824 14.6616 43.5703 13.2119C50.8582 11.7623 58.4123 12.5063 65.2773 15.3499C72.1424 18.1934 78.0099 23.0088 82.1382 29.1872C86.2664 35.3656 88.47 42.6294 88.47 50.06C88.47 54.9938 87.4982 59.8792 85.6101 64.4374C83.722 68.9956 80.9545 73.1373 77.4658 76.626C73.9771 80.1147 69.8355 82.8821 65.2773 84.7701C60.7191 86.6582 55.8337 87.63 50.8999 87.63V87.63Z" fill="url(#paint0_linear_58_697)"/>
<defs>
<linearGradient id="paint0_linear_58_697" x1="50.8999" y1="136.69" x2="50.8999" y2="0" gradientUnits="userSpaceOnUse">
<stop stop-color="#F78500"/>
<stop offset="1" stop-color="#F1C504"/>
</linearGradient>
</defs>
</svg>
