<svg width="81" height="106" viewBox="0 0 81 106" fill="none" xmlns="http://www.w3.org/2000/svg">
<path d="M65.6435 59.4437C66.518 56.895 63.0414 53.1896 57.0472 49.6298C59.0405 40.8425 61.0293 32.0537 63.0137 23.2633C68.6012 23.9767 72.6551 23.3415 73.3599 21.2877C74.4938 17.983 66.5417 12.2186 55.584 8.45868C44.6263 4.69874 34.8243 4.32629 33.6766 7.67113C32.9719 9.72487 35.7816 12.7152 40.6367 15.585C36.8059 23.7419 32.9775 31.8995 29.1512 40.0579C22.2165 39.1738 17.2151 39.9775 16.3405 42.5263C14.9931 46.4532 19.9096 51.7368 32.5905 56.402L34.4528 57.5121L25.2957 96.7291L42.1526 60.1542L44.3041 60.4213C57.1666 64.5358 64.2915 63.384 65.6435 59.4437Z" fill="url(#paint0_linear_58_706)"/>
<defs>
<linearGradient id="paint0_linear_58_706" x1="25.2957" y1="96.7291" x2="55.5841" y2="8.4587" gradientUnits="userSpaceOnUse">
<stop stop-color="#F78500"/>
<stop offset="1" stop-color="#F1C504"/>
</linearGradient>
</defs>
</svg>
