<svg width="104" height="124" viewBox="0 0 104 124" fill="none" xmlns="http://www.w3.org/2000/svg">
<path d="M77.1422 13.684C73.6864 11.8867 69.9104 10.7878 66.0299 10.45C62.1493 10.1122 58.2402 10.5423 54.5259 11.7155C50.8115 12.8887 47.3647 14.7821 44.3823 17.2877C41.3998 19.7933 38.9402 22.8619 37.1438 26.3182C30.098 39.8651 34.4674 58.1446 44.5825 63.4055L27.1574 109.79L55.1364 68.8946C65.0791 74.0658 82.7264 67.2373 89.7722 53.6904C93.4025 46.7104 94.1113 38.5741 91.7427 31.0715C89.3741 23.5689 84.1222 17.3143 77.1422 13.684Z" fill="url(#paint0_linear_58_700)"/>
<defs>
<linearGradient id="paint0_linear_58_700" x1="27.1614" y1="109.792" x2="77.1462" y2="13.6861" gradientUnits="userSpaceOnUse">
<stop stop-color="#FCC707"/>
<stop offset="1" stop-color="#C45700"/>
</linearGradient>
</defs>
</svg>
