<svg width="1088" height="119" viewBox="0 0 1088 119" fill="none" xmlns="http://www.w3.org/2000/svg">
<g clip-path="url(#clip0_58_126)">
<path d="M875.345 0.550537L427.47 621.903H352.122L799.996 0.832119L875.345 0.550537ZM1815.47 0.550537L1367.6 621.903H1292.25L1740.12 0.832119L1815.47 0.550537ZM1188.77 0.550537L740.892 621.903H665.544L1113.35 0.550537H1188.77ZM718.703 0.550537L270.898 621.903H195.48L643.354 0.550537H718.703ZM555.079 0.550537L107.205 621.903H31.8566L479.661 0.550537H555.079ZM1032.06 0.550537L584.25 621.903H508.833L956.707 0.550537H1032.06ZM1658.76 0.550537L1210.89 621.903H1135.54L1583.41 0.550537H1658.76ZM1502.12 0.550537L1054.25 621.903H978.897L1426.7 0.550537H1502.12ZM1345.41 0.550537L897.603 621.903H822.117L1270.06 0.832119L1345.41 0.550537Z" fill="#FAEF59"/>
</g>
<defs>
<clipPath id="clip0_58_126">
<rect width="2222.91" height="118.151" fill="white" transform="translate(0 0.000732422)"/>
</clipPath>
</defs>
</svg>
