<svg width="109" height="24" viewBox="0 0 109 24" fill="none" xmlns="http://www.w3.org/2000/svg">
<path d="M22.2105 0.892722C22.7076 1.45324 22.9868 2.21345 22.9868 3.00612C22.9868 3.79879 22.7076 4.559 22.2105 5.11953L15.5178 11.7225L22.2083 18.3255C22.4578 18.6022 22.6561 18.9319 22.792 19.2955C22.9279 19.6591 22.9986 20.0494 23 20.4439C23.0014 20.8385 22.9335 21.2295 22.8003 21.5943C22.6671 21.9591 22.4711 22.2906 22.2237 22.5696C21.9763 22.8486 21.6823 23.0696 21.3588 23.2198C21.0352 23.3701 20.6885 23.4466 20.3386 23.445C19.9887 23.4434 19.6426 23.3637 19.3202 23.2105C18.9977 23.0573 18.7054 22.8336 18.46 22.5523L11.5022 15.6828L4.54002 22.5548C4.29463 22.8361 4.00229 23.0597 3.67985 23.213C3.35741 23.3662 3.01126 23.4459 2.66137 23.4475C2.31148 23.4491 1.96477 23.3726 1.64123 23.2223C1.3177 23.0721 1.02375 22.8511 0.776337 22.5721C0.528923 22.2931 0.332944 21.9616 0.199704 21.5968C0.0664628 21.232 -0.00140287 20.841 2.18411e-05 20.4464C0.00144655 20.0519 0.072133 19.6616 0.208004 19.298C0.343875 18.9344 0.542242 18.6047 0.791662 18.328L7.48658 11.7225L0.791662 5.11953C0.542242 4.84282 0.343874 4.51315 0.208003 4.14956C0.0721323 3.78597 0.00144581 3.39564 2.10606e-05 3.00108C-0.00140369 2.60653 0.0664619 2.21556 0.199703 1.85073C0.332943 1.4859 0.528922 1.15443 0.776336 0.875439C1.02375 0.596445 1.3177 0.375452 1.64123 0.225204C1.96477 0.0749549 2.31148 -0.00157175 2.66137 3.6126e-05C3.01126 0.0016421 3.35741 0.0813502 3.67985 0.234566C4.00229 0.387779 4.29463 0.611465 4.54002 0.892723L11.5022 7.76222L18.46 0.892722C18.7061 0.614823 18.9985 0.394364 19.3203 0.243949C19.642 0.0935355 19.9869 0.0161162 20.3353 0.0161162C20.6836 0.0161162 21.0285 0.0935355 21.3503 0.243949C21.6721 0.394364 21.9644 0.614823 22.2105 0.892722Z" fill="white"/>
<path d="M65.2105 0.892722C65.7076 1.45324 65.9868 2.21345 65.9868 3.00612C65.9868 3.79879 65.7076 4.559 65.2105 5.11953L58.5178 11.7225L65.2083 18.3255C65.4578 18.6022 65.6561 18.9319 65.792 19.2955C65.9279 19.6591 65.9986 20.0494 66 20.4439C66.0014 20.8385 65.9335 21.2295 65.8003 21.5943C65.6671 21.9591 65.4711 22.2906 65.2237 22.5696C64.9763 22.8486 64.6823 23.0696 64.3588 23.2198C64.0352 23.3701 63.6885 23.4466 63.3386 23.445C62.9887 23.4434 62.6426 23.3637 62.3202 23.2105C61.9977 23.0573 61.7054 22.8336 61.46 22.5523L54.5022 15.6828L47.54 22.5548C47.2946 22.8361 47.0023 23.0597 46.6798 23.213C46.3574 23.3662 46.0113 23.4459 45.6614 23.4475C45.3115 23.4491 44.9648 23.3726 44.6412 23.2223C44.3177 23.0721 44.0237 22.8511 43.7763 22.5721C43.5289 22.2931 43.3329 21.9616 43.1997 21.5968C43.0665 21.232 42.9986 20.841 43 20.4464C43.0014 20.0519 43.0721 19.6616 43.208 19.298C43.3439 18.9344 43.5422 18.6047 43.7917 18.328L50.4866 11.7225L43.7917 5.11953C43.5422 4.84282 43.3439 4.51315 43.208 4.14956C43.0721 3.78597 43.0014 3.39564 43 3.00108C42.9986 2.60653 43.0665 2.21556 43.1997 1.85073C43.3329 1.4859 43.5289 1.15443 43.7763 0.875439C44.0237 0.596445 44.3177 0.375452 44.6412 0.225204C44.9648 0.0749549 45.3115 -0.00157175 45.6614 3.6126e-05C46.0113 0.0016421 46.3574 0.0813502 46.6798 0.234566C47.0023 0.387779 47.2946 0.611465 47.54 0.892723L54.5022 7.76222L61.46 0.892722C61.7061 0.614823 61.9985 0.394364 62.3203 0.243949C62.642 0.0935355 62.9869 0.0161162 63.3353 0.0161162C63.6836 0.0161162 64.0285 0.0935355 64.3503 0.243949C64.6721 0.394364 64.9644 0.614823 65.2105 0.892722Z" fill="white"/>
<path d="M108.211 0.892722C108.708 1.45324 108.987 2.21345 108.987 3.00612C108.987 3.79879 108.708 4.559 108.211 5.11953L101.518 11.7225L108.208 18.3255C108.458 18.6022 108.656 18.9319 108.792 19.2955C108.928 19.6591 108.999 20.0494 109 20.4439C109.001 20.8385 108.934 21.2295 108.8 21.5943C108.667 21.9591 108.471 22.2906 108.224 22.5696C107.976 22.8486 107.682 23.0696 107.359 23.2198C107.035 23.3701 106.689 23.4466 106.339 23.445C105.989 23.4434 105.643 23.3637 105.32 23.2105C104.998 23.0573 104.705 22.8336 104.46 22.5523L97.5022 15.6828L90.54 22.5548C90.2946 22.8361 90.0023 23.0597 89.6798 23.213C89.3574 23.3662 89.0113 23.4459 88.6614 23.4475C88.3115 23.4491 87.9648 23.3726 87.6412 23.2223C87.3177 23.0721 87.0237 22.8511 86.7763 22.5721C86.5289 22.2931 86.3329 21.9616 86.1997 21.5968C86.0665 21.232 85.9986 20.841 86 20.4464C86.0014 20.0519 86.0721 19.6616 86.208 19.298C86.3439 18.9344 86.5422 18.6047 86.7917 18.328L93.4866 11.7225L86.7917 5.11953C86.5422 4.84282 86.3439 4.51315 86.208 4.14956C86.0721 3.78597 86.0014 3.39564 86 3.00108C85.9986 2.60653 86.0665 2.21556 86.1997 1.85073C86.3329 1.4859 86.5289 1.15443 86.7763 0.875439C87.0237 0.596445 87.3177 0.375452 87.6412 0.225204C87.9648 0.0749549 88.3115 -0.00157175 88.6614 3.6126e-05C89.0113 0.0016421 89.3574 0.0813502 89.6798 0.234566C90.0023 0.387779 90.2946 0.611465 90.54 0.892723L97.5022 7.76222L104.46 0.892722C104.706 0.614823 104.998 0.394364 105.32 0.243949C105.642 0.0935355 105.987 0.0161162 106.335 0.0161162C106.684 0.0161162 107.029 0.0935355 107.35 0.243949C107.672 0.394364 107.964 0.614823 108.211 0.892722Z" fill="white"/>
</svg>
