<svg width="109" height="25" viewBox="0 0 109 25" fill="none" xmlns="http://www.w3.org/2000/svg">
<path d="M22.2105 1.70815C22.7076 2.26867 22.9868 3.02888 22.9868 3.82155C22.9868 4.61422 22.7076 5.37443 22.2105 5.93496L15.5178 12.5379L22.2083 19.1409C22.4578 19.4176 22.6561 19.7473 22.792 20.1109C22.9279 20.4745 22.9986 20.8648 23 21.2594C23.0014 21.6539 22.9335 22.0449 22.8003 22.4097C22.6671 22.7746 22.4711 23.106 22.2237 23.385C21.9763 23.664 21.6823 23.885 21.3588 24.0353C21.0352 24.1855 20.6885 24.262 20.3386 24.2604C19.9887 24.2588 19.6426 24.1791 19.3202 24.0259C18.9977 23.8727 18.7054 23.649 18.46 23.3677L11.5022 16.4982L4.54002 23.3702C4.29463 23.6515 4.00229 23.8752 3.67985 24.0284C3.35741 24.1816 3.01126 24.2613 2.66137 24.2629C2.31148 24.2645 1.96477 24.188 1.64123 24.0377C1.3177 23.8875 1.02375 23.6665 0.776337 23.3875C0.528923 23.1085 0.332944 22.777 0.199704 22.4122C0.0664628 22.0474 -0.00140287 21.6564 2.18411e-05 21.2619C0.00144655 20.8673 0.072133 20.477 0.208004 20.1134C0.343875 19.7498 0.542242 19.4201 0.791662 19.1434L7.48658 12.5379L0.791662 5.93496C0.542242 5.65825 0.343874 5.32858 0.208003 4.96499C0.0721323 4.6014 0.00144581 4.21107 2.10606e-05 3.81651C-0.00140369 3.42196 0.0664619 3.03099 0.199703 2.66616C0.332943 2.30133 0.528922 1.96986 0.776336 1.69087C1.02375 1.41187 1.3177 1.19088 1.64123 1.04063C1.96477 0.890385 2.31148 0.813858 2.66137 0.815466C3.01126 0.817072 3.35741 0.89678 3.67985 1.05C4.00229 1.20321 4.29463 1.42689 4.54002 1.70815L11.5022 8.57765L18.46 1.70815C18.7061 1.43025 18.9985 1.20979 19.3203 1.05938C19.642 0.908965 19.9869 0.831546 20.3353 0.831546C20.6836 0.831546 21.0285 0.908965 21.3503 1.05938C21.6721 1.20979 21.9644 1.43025 22.2105 1.70815Z" fill="#EBE13C"/>
<path d="M65.2105 1.70815C65.7076 2.26867 65.9868 3.02888 65.9868 3.82155C65.9868 4.61422 65.7076 5.37443 65.2105 5.93496L58.5178 12.5379L65.2083 19.1409C65.4578 19.4176 65.6561 19.7473 65.792 20.1109C65.9279 20.4745 65.9986 20.8648 66 21.2594C66.0014 21.6539 65.9335 22.0449 65.8003 22.4097C65.6671 22.7746 65.4711 23.106 65.2237 23.385C64.9763 23.664 64.6823 23.885 64.3588 24.0353C64.0352 24.1855 63.6885 24.262 63.3386 24.2604C62.9887 24.2588 62.6426 24.1791 62.3202 24.0259C61.9977 23.8727 61.7054 23.649 61.46 23.3677L54.5022 16.4982L47.54 23.3702C47.2946 23.6515 47.0023 23.8752 46.6798 24.0284C46.3574 24.1816 46.0113 24.2613 45.6614 24.2629C45.3115 24.2645 44.9648 24.188 44.6412 24.0377C44.3177 23.8875 44.0237 23.6665 43.7763 23.3875C43.5289 23.1085 43.3329 22.777 43.1997 22.4122C43.0665 22.0474 42.9986 21.6564 43 21.2619C43.0014 20.8673 43.0721 20.477 43.208 20.1134C43.3439 19.7498 43.5422 19.4201 43.7917 19.1434L50.4866 12.5379L43.7917 5.93496C43.5422 5.65825 43.3439 5.32858 43.208 4.96499C43.0721 4.6014 43.0014 4.21107 43 3.81651C42.9986 3.42196 43.0665 3.03099 43.1997 2.66616C43.3329 2.30133 43.5289 1.96986 43.7763 1.69087C44.0237 1.41187 44.3177 1.19088 44.6412 1.04063C44.9648 0.890385 45.3115 0.813858 45.6614 0.815466C46.0113 0.817072 46.3574 0.89678 46.6798 1.05C47.0023 1.20321 47.2946 1.42689 47.54 1.70815L54.5022 8.57765L61.46 1.70815C61.7061 1.43025 61.9985 1.20979 62.3203 1.05938C62.642 0.908965 62.9869 0.831546 63.3353 0.831546C63.6836 0.831546 64.0285 0.908965 64.3503 1.05938C64.6721 1.20979 64.9644 1.43025 65.2105 1.70815Z" fill="#EBE13C"/>
<path d="M108.211 1.70815C108.708 2.26867 108.987 3.02888 108.987 3.82155C108.987 4.61422 108.708 5.37443 108.211 5.93496L101.518 12.5379L108.208 19.1409C108.458 19.4176 108.656 19.7473 108.792 20.1109C108.928 20.4745 108.999 20.8648 109 21.2594C109.001 21.6539 108.934 22.0449 108.8 22.4097C108.667 22.7746 108.471 23.106 108.224 23.385C107.976 23.664 107.682 23.885 107.359 24.0353C107.035 24.1855 106.689 24.262 106.339 24.2604C105.989 24.2588 105.643 24.1791 105.32 24.0259C104.998 23.8727 104.705 23.649 104.46 23.3677L97.5022 16.4982L90.54 23.3702C90.2946 23.6515 90.0023 23.8752 89.6798 24.0284C89.3574 24.1816 89.0113 24.2613 88.6614 24.2629C88.3115 24.2645 87.9648 24.188 87.6412 24.0377C87.3177 23.8875 87.0237 23.6665 86.7763 23.3875C86.5289 23.1085 86.3329 22.777 86.1997 22.4122C86.0665 22.0474 85.9986 21.6564 86 21.2619C86.0014 20.8673 86.0721 20.477 86.208 20.1134C86.3439 19.7498 86.5422 19.4201 86.7917 19.1434L93.4866 12.5379L86.7917 5.93496C86.5422 5.65825 86.3439 5.32858 86.208 4.96499C86.0721 4.6014 86.0014 4.21107 86 3.81651C85.9986 3.42196 86.0665 3.03099 86.1997 2.66616C86.3329 2.30133 86.5289 1.96986 86.7763 1.69087C87.0237 1.41187 87.3177 1.19088 87.6412 1.04063C87.9648 0.890385 88.3115 0.813858 88.6614 0.815466C89.0113 0.817072 89.3574 0.89678 89.6798 1.05C90.0023 1.20321 90.2946 1.42689 90.54 1.70815L97.5022 8.57765L104.46 1.70815C104.706 1.43025 104.998 1.20979 105.32 1.05938C105.642 0.908965 105.987 0.831546 106.335 0.831546C106.684 0.831546 107.029 0.908965 107.35 1.05938C107.672 1.20979 107.964 1.43025 108.211 1.70815Z" fill="#EBE13C"/>
</svg>
