<svg width="121" height="122" viewBox="0 0 121 122" fill="none" xmlns="http://www.w3.org/2000/svg">
<g opacity="0.7">
<path style="mix-blend-mode:color-dodge" d="M53.7758 24.2021C45.203 24.2021 36.8226 26.7443 29.6946 31.5071C22.5665 36.2699 17.0108 43.0395 13.7301 50.9598C10.4494 58.8801 9.59107 67.5953 11.2635 76.0035C12.936 84.4116 17.0643 92.135 23.1262 98.1969C29.1881 104.259 36.9115 108.387 45.3196 110.06C53.7277 111.732 62.443 110.874 70.3633 107.593C78.2836 104.312 85.0531 98.7566 89.816 91.6285C94.5788 84.5005 97.1209 76.1201 97.1209 67.5473C97.1209 61.8551 95.9998 56.2187 93.8215 50.9598C91.6432 45.7009 88.4504 40.9226 84.4254 36.8976C80.4005 32.8727 75.6221 29.6799 70.3633 27.5016C65.1044 25.3233 59.468 24.2021 53.7758 24.2021ZM53.7758 96.4856C48.042 96.4856 42.4369 94.7851 37.6696 91.5993C32.9022 88.4135 29.1867 83.8854 26.9931 78.5878C24.7994 73.2902 24.2261 67.461 25.3456 61.8375C26.4651 56.214 29.2272 51.0489 33.2825 46.9953C37.3378 42.9417 42.5042 40.1819 48.1281 39.0648C53.7521 37.9476 59.5811 38.5235 64.8777 40.7194C70.1744 42.9154 74.7009 46.6328 77.8846 51.4015C81.0684 56.1703 82.7664 61.776 82.7639 67.5099C82.7688 71.3192 82.0226 75.0921 80.5679 78.6128C79.1131 82.1334 76.9784 85.3326 74.286 88.0274C71.5935 90.7221 68.3962 92.8595 64.8768 94.3173C61.3574 95.7751 57.5852 96.5246 53.7758 96.5229V96.4856Z" fill="url(#paint0_linear_58_572)"/>
<path style="mix-blend-mode:color-dodge" d="M76.7081 69.1053C76.4953 74.0076 74.5665 78.6792 71.2588 82.3036C67.951 85.928 63.4748 88.2746 58.6123 88.9334V99.3647C66.2369 98.6758 73.3446 95.2159 78.5901 89.6397C83.8356 84.0634 86.855 76.7578 87.077 69.1053H76.7081Z" fill="url(#paint1_linear_58_572)"/>
<path style="mix-blend-mode:color-dodge" d="M48.2803 103.116C40.0554 101.839 32.5265 97.7537 26.9736 91.5533C21.4208 85.3529 18.1868 77.4207 17.8216 69.1053H0C0.381284 82.1481 5.48742 94.6084 14.3685 104.168C23.2496 113.728 35.3008 119.736 48.2803 121.075V103.116Z" fill="url(#paint2_linear_58_572)"/>
<path style="mix-blend-mode:color-dodge" d="M48.2804 14.0081C35.8905 15.2863 24.3274 20.8219 15.5621 29.6713C6.79679 38.5207 1.37182 50.1361 0.211914 62.5376H18.1332C19.2072 54.8828 22.7179 47.7773 28.1455 42.2734C33.573 36.7695 40.6288 33.16 48.2679 31.9792L48.2804 14.0081Z" fill="url(#paint3_linear_58_572)"/>
<path style="mix-blend-mode:color-dodge" d="M61.4414 120.152C73.8313 118.874 85.3944 113.339 94.1597 104.489C102.925 95.6397 108.35 84.0243 109.51 71.6228H91.5761C90.5021 79.2777 86.9914 86.3832 81.5639 91.887C76.1363 97.3909 69.0806 101 61.4414 102.181V120.152Z" fill="url(#paint4_linear_58_572)"/>
<path style="mix-blend-mode:color-dodge" d="M60.5059 0V22.2458C70.1538 23.5571 79.1095 27.9832 86.0112 34.8511C92.9128 41.719 97.3828 50.653 98.7413 60.2943H121C119.544 44.7619 112.697 30.229 101.648 19.216C90.5985 8.203 76.043 1.40465 60.5059 0Z" fill="url(#paint5_linear_58_572)"/>
<path style="mix-blend-mode:color-dodge" d="M53.7758 24.2021C45.203 24.2021 36.8226 26.7443 29.6946 31.5071C22.5665 36.2699 17.0108 43.0395 13.7301 50.9598C10.4494 58.8801 9.59107 67.5953 11.2635 76.0035C12.936 84.4116 17.0643 92.135 23.1262 98.1969C29.1881 104.259 36.9115 108.387 45.3196 110.06C53.7277 111.732 62.443 110.874 70.3633 107.593C78.2836 104.312 85.0531 98.7566 89.816 91.6285C94.5788 84.5005 97.1209 76.1201 97.1209 67.5473C97.1209 61.8551 95.9998 56.2187 93.8215 50.9598C91.6432 45.7009 88.4504 40.9226 84.4254 36.8976C80.4005 32.8727 75.6221 29.6799 70.3633 27.5016C65.1044 25.3233 59.468 24.2021 53.7758 24.2021ZM53.7758 96.4856C48.042 96.4856 42.4369 94.7851 37.6696 91.5993C32.9022 88.4135 29.1867 83.8854 26.9931 78.5878C24.7994 73.2902 24.2261 67.461 25.3456 61.8375C26.4651 56.214 29.2272 51.0489 33.2825 46.9953C37.3378 42.9417 42.5042 40.1819 48.1281 39.0648C53.7521 37.9476 59.5811 38.5235 64.8777 40.7194C70.1744 42.9154 74.7009 46.6328 77.8846 51.4015C81.0684 56.1703 82.7664 61.776 82.7639 67.5099C82.7688 71.3192 82.0226 75.0921 80.5679 78.6128C79.1131 82.1334 76.9784 85.3326 74.286 88.0274C71.5935 90.7221 68.3962 92.8595 64.8768 94.3173C61.3574 95.7751 57.5852 96.5246 53.7758 96.5229V96.4856Z" fill="url(#paint6_linear_58_572)"/>
<path style="mix-blend-mode:color-dodge" d="M76.7081 69.1053C76.4953 74.0076 74.5665 78.6792 71.2588 82.3036C67.951 85.928 63.4748 88.2746 58.6123 88.9334V99.3647C66.2369 98.6758 73.3446 95.2159 78.5901 89.6397C83.8356 84.0634 86.855 76.7578 87.077 69.1053H76.7081Z" fill="url(#paint7_linear_58_572)"/>
<path style="mix-blend-mode:color-dodge" d="M50.4615 34.7458C42.7337 35.5542 35.5238 39.012 30.0558 44.5323C24.5878 50.0525 21.1987 57.295 20.4639 65.0301H31.6803C32.3478 60.2521 34.5379 55.8167 37.9256 52.3818C41.3133 48.947 45.7181 46.6958 50.4864 45.9622L50.4615 34.7458Z" fill="url(#paint8_linear_58_572)"/>
<path style="mix-blend-mode:color-dodge" d="M60.5059 0V22.2458C70.1538 23.5571 79.1095 27.9832 86.0112 34.8511C92.9128 41.719 97.3828 50.653 98.7413 60.2943H121C119.544 44.7619 112.697 30.229 101.648 19.216C90.5985 8.203 76.043 1.40465 60.5059 0Z" fill="url(#paint9_linear_58_572)"/>
</g>
<circle cx="54" cy="67" r="27" fill="url(#paint10_linear_58_572)"/>
<path d="M74.2279 41.2434C75.0919 40.4371 76.2417 39.9913 77.4346 40.0001C78.6276 40.009 79.7703 40.4718 80.6218 41.2908C81.4733 42.1099 81.9669 43.2212 81.9984 44.3902C82.0299 45.5592 81.5969 46.6945 80.7908 47.5565L56.3178 77.5588C55.897 78.0031 55.3891 78.3597 54.8245 78.6072C54.2599 78.8546 53.6502 78.988 53.0318 78.9992C52.4134 79.0105 51.7991 78.8993 51.2255 78.6725C50.6519 78.4456 50.1309 78.1078 49.6936 77.679L33.4641 61.77C33.0122 61.3572 32.6497 60.8593 32.3982 60.3062C32.1468 59.7531 32.0116 59.1559 32.0007 58.5505C31.9898 57.945 32.1034 57.3436 32.3348 56.7821C32.5662 56.2206 32.9105 55.7105 33.3474 55.2823C33.7842 54.8541 34.3045 54.5165 34.8773 54.2897C35.4501 54.0629 36.0637 53.9516 36.6813 53.9622C37.299 53.9729 37.9082 54.1055 38.4724 54.3519C39.0367 54.5984 39.5446 54.9537 39.9657 55.3968L52.8094 67.9809L74.1113 41.3757C74.1497 41.3294 74.1907 41.2852 74.234 41.2434H74.2279Z" fill="#16171B"/>
<defs>
<linearGradient id="paint0_linear_58_572" x1="61.0914" y1="-39.4197" x2="48.4169" y2="145.962" gradientUnits="userSpaceOnUse">
<stop stop-opacity="0"/>
<stop offset="1" stop-color="white"/>
</linearGradient>
<linearGradient id="paint1_linear_58_572" x1="132.03" y1="88.2854" x2="-1.84407" y2="79.1378" gradientUnits="userSpaceOnUse">
<stop stop-opacity="0"/>
<stop offset="1" stop-color="white"/>
</linearGradient>
<linearGradient id="paint2_linear_58_572" x1="184.634" y1="105.459" x2="-45.5635" y2="89.7186" gradientUnits="userSpaceOnUse">
<stop stop-opacity="0"/>
<stop offset="1" stop-color="white"/>
</linearGradient>
<linearGradient id="paint3_linear_58_572" x1="188.46" y1="49.5017" x2="-41.7499" y2="33.7738" gradientUnits="userSpaceOnUse">
<stop stop-opacity="0"/>
<stop offset="1" stop-color="white"/>
</linearGradient>
<linearGradient id="paint4_linear_58_572" x1="-78.7261" y1="84.6587" x2="151.484" y2="100.399" gradientUnits="userSpaceOnUse">
<stop stop-opacity="0"/>
<stop offset="1" stop-color="white"/>
</linearGradient>
<linearGradient id="paint5_linear_58_572" x1="221.96" y1="39.8805" x2="-63.7095" y2="20.364" gradientUnits="userSpaceOnUse">
<stop stop-opacity="0"/>
<stop offset="1" stop-color="white"/>
</linearGradient>
<linearGradient id="paint6_linear_58_572" x1="61.0914" y1="-39.4197" x2="48.4169" y2="145.962" gradientUnits="userSpaceOnUse">
<stop stop-opacity="0"/>
<stop offset="1" stop-color="white"/>
</linearGradient>
<linearGradient id="paint7_linear_58_572" x1="132.03" y1="88.2854" x2="-1.84407" y2="79.1378" gradientUnits="userSpaceOnUse">
<stop stop-opacity="0"/>
<stop offset="1" stop-color="white"/>
</linearGradient>
<linearGradient id="paint8_linear_58_572" x1="137.937" y1="56.9045" x2="-5.70772" y2="47.0839" gradientUnits="userSpaceOnUse">
<stop stop-opacity="0"/>
<stop offset="1" stop-color="white"/>
</linearGradient>
<linearGradient id="paint9_linear_58_572" x1="221.96" y1="39.8805" x2="-63.7095" y2="20.364" gradientUnits="userSpaceOnUse">
<stop stop-opacity="0"/>
<stop offset="1" stop-color="white"/>
</linearGradient>
<linearGradient id="paint10_linear_58_572" x1="54" y1="40" x2="54" y2="94" gradientUnits="userSpaceOnUse">
<stop stop-color="white"/>
<stop offset="1" stop-color="#EAEAEA"/>
</linearGradient>
</defs>
</svg>
