<svg width="292" height="109" viewBox="0 0 292 109" fill="none" xmlns="http://www.w3.org/2000/svg">
<rect x="79.3745" y="19.3657" width="175" height="48.5662" transform="rotate(8.68741 79.3745 19.3657)" fill="#804118"/>
<rect x="58.3447" y="31.7651" width="175" height="50.159" transform="rotate(8.68741 58.3447 31.7651)" fill="#804118"/>
<g filter="url(#filter0_d_139_13)">
<path d="M100.219 52.7358C99.7907 55.8505 98.4555 58.1622 96.2131 59.671C93.9708 61.1797 91.1653 61.7631 87.7964 61.4212L87.4141 64.203L81.9217 63.4481L82.3041 60.6663C78.9679 60.0866 76.4238 58.7679 74.6717 56.7101C72.9196 54.6524 72.2575 52.0662 72.6857 48.9514C73.1007 45.9318 74.4142 43.6898 76.6262 42.2254C78.862 40.7642 81.6762 40.2062 85.0688 40.5514L85.412 38.0548L90.9043 38.8098L90.5612 41.3063C93.9211 41.8892 96.4685 43.1842 98.2034 45.1911C99.962 47.2013 100.634 49.7162 100.219 52.7358ZM94.8691 52.0005C95.1175 50.1935 94.8245 48.7118 93.9902 47.5554C93.1559 46.399 91.8282 45.6594 90.0072 45.3364L88.37 57.2484C90.1392 57.4189 91.5983 57.0259 92.7473 56.0695C93.9233 55.0925 94.6305 53.7362 94.8691 52.0005ZM82.8776 56.4935L84.5149 44.5815C82.6743 44.4012 81.1963 44.7552 80.081 45.6436C78.9894 46.5353 78.3194 47.8846 78.071 49.6916C77.8325 51.4273 78.1357 52.9225 78.9807 54.1773C79.829 55.4083 81.128 56.1803 82.8776 56.4935ZM127.234 43.8032L123.744 69.1965L118.18 68.4318L120.602 50.8134L120.495 50.7987L108.515 67.1033L102.238 66.2406L105.729 40.8473L111.292 41.612L108.876 59.1947L108.983 59.2094L120.957 42.9405L127.234 43.8032ZM153.669 47.4367L150.179 72.8299L144.615 72.0652L146.12 61.1162L135.742 59.6897L134.237 70.6387L128.673 69.874L132.164 44.4807L137.727 45.2455L136.414 54.8036L146.792 56.2301L148.106 46.672L153.669 47.4367ZM180.104 51.0701L176.614 76.4634L171.051 75.6986L173.472 58.0803L173.365 58.0656L161.385 74.3702L155.108 73.5074L158.599 48.1142L164.162 48.8789L161.746 66.4616L161.853 66.4763L173.828 50.2073L180.104 51.0701ZM181.472 77.1311L184.962 51.7378L190.526 52.5025L187.688 73.1524L196.14 74.3142L198.979 53.6643L204.542 54.429L201.704 75.0789L210.157 76.2407L212.995 55.5908L218.559 56.3555L215.068 81.7488L181.472 77.1311Z" fill="white"/>
</g>
<defs>
<filter id="filter0_d_139_13" x="70.9014" y="36.54" width="151.657" height="47.2087" filterUnits="userSpaceOnUse" color-interpolation-filters="sRGB">
<feFlood flood-opacity="0" result="BackgroundImageFix"/>
<feColorMatrix in="SourceAlpha" type="matrix" values="0 0 0 0 0 0 0 0 0 0 0 0 0 0 0 0 0 0 127 0" result="hardAlpha"/>
<feOffset dx="4" dy="2"/>
<feComposite in2="hardAlpha" operator="out"/>
<feColorMatrix type="matrix" values="0 0 0 0 0.2 0 0 0 0 0.0431373 0 0 0 0 0.00392157 0 0 0 1 0"/>
<feBlend mode="normal" in2="BackgroundImageFix" result="effect1_dropShadow_139_13"/>
<feBlend mode="normal" in="SourceGraphic" in2="effect1_dropShadow_139_13" result="shape"/>
</filter>
</defs>
</svg>
