<svg width="142" height="142" viewBox="0 0 142 142" fill="none" xmlns="http://www.w3.org/2000/svg">
<g filter="url(#filter0_d_58_523)">
<path d="M17.24 58.04C18.479 58.04 19.48 59.044 19.48 60.28C19.48 84.983 39.577 105.08 64.28 105.08C65.519 105.08 66.52 106.084 66.52 107.32C66.52 108.556 65.519 109.56 64.28 109.56C37.1082 109.56 15 87.4531 15 60.28C15 59.044 16.001 58.04 17.24 58.04Z" fill="white"/>
<path d="M102.36 60.28C102.36 81.2779 85.2778 98.36 64.2799 98.36C63.0409 98.36 62.0399 97.356 62.0399 96.12C62.0399 94.884 63.0409 93.88 64.2799 93.88C82.8068 93.88 97.8799 78.807 97.8799 60.28C97.8799 41.753 82.8068 26.68 64.2799 26.68C56.711 26.68 49.7419 29.225 44.1199 33.463V36.951L46.94 39.7711C51.626 35.8061 57.674 33.4 64.2799 33.4C79.1018 33.4 91.1599 45.4581 91.1599 60.28C91.1599 75.1019 79.1018 87.16 64.2799 87.16C49.458 87.16 37.3999 75.1019 37.3999 60.28C37.3999 53.6739 39.8059 47.6259 43.773 42.9401L40.9529 40.12H37.4649C33.225 45.742 30.6799 52.7111 30.6799 60.28C30.6799 61.516 29.6789 62.52 28.4399 62.52C27.2009 62.52 26.1999 61.516 26.1999 60.28C26.1999 52.8719 28.3589 45.975 32.0328 40.12H30.6798C29.4408 40.12 28.4398 39.116 28.4398 37.88C28.4398 36.644 29.4408 35.64 30.6798 35.64H35.2988C35.4778 35.429 35.6728 35.232 35.8588 35.024L34.2328 33.4H23.9598C22.7208 33.4 21.7198 32.396 21.7198 31.16C21.7198 29.924 22.7208 28.92 23.9598 28.92H29.7528L27.5128 26.68H17.2398C16.0008 26.68 14.9998 25.676 14.9998 24.44C14.9998 23.204 16.0008 22.2 17.2398 22.2H26.1998V13.24C26.1998 12.004 27.2008 11 28.4398 11C29.6788 11 30.6798 12.004 30.6798 13.24V23.513L32.9198 25.753V22.2C32.9198 20.964 33.9208 19.96 35.1598 19.96C36.3988 19.96 37.3998 20.964 37.3998 22.2V30.233L39.0238 31.857C39.2298 31.673 39.4268 31.478 39.6398 31.297V28.92C39.6398 27.684 40.6408 26.68 41.8798 26.68C42.8388 26.68 43.6408 27.287 43.9608 28.129C49.8478 24.395 56.8048 22.2001 64.2798 22.2001C85.2777 22.2001 102.36 39.2822 102.36 60.2801L102.36 60.28ZM41.8799 60.28C41.8799 72.631 51.9289 82.68 64.2799 82.68C76.6308 82.68 86.6799 72.631 86.6799 60.28C86.6799 47.929 76.6308 37.88 64.2799 37.88C58.908 37.88 53.9759 39.784 50.1138 42.947L54.908 47.7411C57.5261 45.7781 60.7629 44.6 64.2799 44.6C72.924 44.6 79.9599 51.6341 79.9599 60.28C79.9599 68.9259 72.924 75.96 64.2799 75.96C55.6358 75.96 48.5999 68.9259 48.5999 60.28C48.5999 56.7631 49.7779 53.526 51.74 50.9081L46.9459 46.114C43.7837 49.976 41.8799 54.9081 41.8799 60.28ZM64.2799 64.76C61.8089 64.76 59.7999 62.751 59.7999 60.28C59.7999 59.881 59.8689 59.503 59.9679 59.135L54.9459 54.113C53.7719 55.885 53.0799 58.0019 53.0799 60.2801C53.0799 66.4561 58.1039 71.4801 64.2799 71.4801C70.4559 71.4801 75.4799 66.4561 75.4799 60.2801C75.4799 54.1041 70.4559 49.0801 64.2799 49.0801C62.0019 49.0801 59.8849 49.7721 58.1129 50.9461L63.1348 55.968C63.5028 55.869 63.8808 55.8 64.2798 55.8C66.7508 55.8 68.7598 57.8091 68.7598 60.28C68.7598 62.751 66.7508 64.76 64.2798 64.76L64.2799 64.76Z" fill="white"/>
<path d="M111.32 123C102.676 123 95.64 115.966 95.64 107.32V93.88C95.64 85.997 101.495 79.4721 109.08 78.379V60.28C109.08 35.577 88.983 15.48 64.28 15.48C63.041 15.48 62.04 14.476 62.04 13.24C62.04 12.004 63.041 11 64.28 11C91.4518 11 113.56 33.1069 113.56 60.28V78.379C121.145 79.4719 127 85.997 127 93.88V107.32C127 115.966 119.964 123 111.32 123ZM112.44 82.7952C112.066 82.7572 111.703 82.6812 111.32 82.6812C110.937 82.6812 110.574 82.7572 110.2 82.7952V87.1613H112.44V82.7952ZM122.52 93.8813C122.52 89.7553 120.251 86.1823 116.92 84.2403V89.4013C116.92 90.6373 115.919 91.6413 114.68 91.6413H113.56V100.601C113.56 101.837 112.559 102.841 111.32 102.841C110.081 102.841 109.08 101.837 109.08 100.601V91.6413H107.96C106.721 91.6413 105.72 90.6373 105.72 89.4013V84.2403C102.389 86.1823 100.12 89.7553 100.12 93.8813V107.321C100.12 113.497 105.144 118.521 111.32 118.521C117.496 118.521 122.52 113.497 122.52 107.321V93.8813Z" fill="white"/>
</g>
<defs>
<filter id="filter0_d_58_523" x="0" y="0" width="142" height="142" filterUnits="userSpaceOnUse" color-interpolation-filters="sRGB">
<feFlood flood-opacity="0" result="BackgroundImageFix"/>
<feColorMatrix in="SourceAlpha" type="matrix" values="0 0 0 0 0 0 0 0 0 0 0 0 0 0 0 0 0 0 127 0" result="hardAlpha"/>
<feOffset dy="4"/>
<feGaussianBlur stdDeviation="7.5"/>
<feComposite in2="hardAlpha" operator="out"/>
<feColorMatrix type="matrix" values="0 0 0 0 0.960784 0 0 0 0 0.909804 0 0 0 0 0.196078 0 0 0 0.66 0"/>
<feBlend mode="normal" in2="BackgroundImageFix" result="effect1_dropShadow_58_523"/>
<feBlend mode="normal" in="SourceGraphic" in2="effect1_dropShadow_58_523" result="shape"/>
</filter>
</defs>
</svg>
