<svg width="125" height="142" viewBox="0 0 125 142" fill="none" xmlns="http://www.w3.org/2000/svg">
<g filter="url(#filter0_d_58_681)">
<path d="M101.924 83.292C106.549 76.0004 109.24 67.37 109.24 58.12C109.24 32.142 88.098 11 62.12 11C36.142 11 15 32.142 15 58.12C15 67.3706 17.6908 76.0013 22.3158 83.292L18.2488 103.628C17.319 108.315 18.5092 113.102 21.5348 116.797C24.5604 120.48 29.0244 122.6 33.7982 122.6C41.3 122.6 47.8104 117.281 49.3232 109.94C51.8402 109.319 53.9732 107.583 55.089 105.24H69.1628C70.2786 107.584 72.3994 109.32 74.9164 109.94C76.43 117.28 82.9396 122.6 90.4414 122.6C95.2152 122.6 99.6791 120.48 102.705 116.797C105.73 113.102 106.934 108.315 105.991 103.628L101.924 83.292ZM95.4388 34.3984C95.7364 34.1008 96.0218 33.7912 96.3072 33.4928C100.858 39.7922 103.722 47.4056 104.206 55.64L86.8828 55.6409C86.7591 50.8543 86.2756 46.2787 85.4816 42.0135C89.0771 39.942 92.4253 37.4129 95.439 34.3993L95.4388 34.3984ZM93.157 29.6117C92.7599 30.0459 92.3508 30.4802 91.9296 30.8893C89.6106 33.2083 87.0686 35.2166 84.3534 36.9033C82.332 29.1411 79.232 22.6557 75.3882 18.1051C82.2576 20.3989 88.3582 24.3917 93.157 29.6116V29.6117ZM64.5993 16.3192C71.1713 18.1546 76.8627 27.1441 79.8017 39.3721C75.0652 41.5544 69.9318 42.856 64.5993 43.1536V16.3192ZM64.5993 48.1252C70.2666 47.8397 75.7347 46.538 80.8181 44.3436C81.4253 47.9272 81.8102 51.7216 81.9218 55.64H64.5994L64.5993 48.1252ZM64.5993 60.5996H81.9217C81.8473 63.3397 81.6362 66.0186 81.3145 68.5978C79.7152 69.019 78.2023 69.6522 76.7883 70.5197H64.5993L64.5993 60.5996ZM59.6398 16.3183V43.151C54.3204 42.8534 49.1737 41.5517 44.4374 39.3694C47.3757 27.1304 53.068 18.153 59.6398 16.3165V16.3183ZM42.3165 55.6396C42.4281 51.7214 42.8122 47.9268 43.4202 44.3432C48.5044 46.5376 53.9848 47.8402 59.639 48.1247L59.6398 55.6396H42.3165ZM59.6398 60.5991V70.5193H47.4508C46.0496 69.6509 44.5246 69.0187 42.9374 68.5974C42.6027 66.0182 42.4046 63.3403 42.3172 60.5992L59.6398 60.5991ZM48.8511 18.1048C45.0073 22.6553 41.9073 29.1408 39.8979 36.9029C37.1699 35.2163 34.6276 33.2077 32.3088 30.8889C31.8876 30.4677 31.5027 30.0335 31.1057 29.5993C35.9063 24.3913 41.9816 20.3859 48.8512 18.1049L48.8511 18.1048ZM27.9452 33.4681C28.2306 33.7778 28.503 34.1004 28.8006 34.398C31.814 37.4114 35.1616 39.9405 38.758 42.0113C37.964 46.2774 37.4805 50.853 37.3568 55.6387L20.0344 55.6396C20.518 47.3931 23.3818 39.7798 27.9454 33.4679L27.9452 33.4681ZM20.0342 60.5998H37.3565C37.4188 63.154 37.5918 65.6468 37.8522 68.0644C34.6527 68.188 31.615 69.168 29.0105 70.9412C26.9026 72.3796 25.2411 74.2522 24.1123 76.3721C21.7942 71.5492 20.3688 66.2168 20.034 60.5998H20.0342ZM98.8738 113.647C96.791 116.189 93.7283 117.64 90.4423 117.64C85.2715 117.64 80.7824 113.957 79.7661 108.886L79.4313 107.236C79.2073 106.071 78.178 105.241 77.0001 105.241C75.239 105.241 73.7019 103.988 73.3542 102.265C73.119 101.112 72.1018 100.28 70.9236 100.28H53.3156C52.1376 100.28 51.1212 101.112 50.885 102.265C50.5382 103.989 49.0011 105.241 47.2401 105.241C46.062 105.241 45.0457 106.072 44.8094 107.237L44.4747 108.874C43.4705 113.958 38.9693 117.641 33.7985 117.641C30.5247 117.641 27.4497 116.19 25.367 113.648C23.2963 111.118 22.4652 107.82 23.1104 104.609L27.3512 83.4043C27.3875 83.2435 27.3996 83.0817 27.3996 82.9208C27.3996 79.8208 28.9989 76.956 31.8014 75.047C33.7735 73.7072 36.1047 73.0006 38.5601 73.0006C41.0157 73.0006 43.3589 73.7072 45.33 75.0462C45.7392 75.3316 46.2227 75.4804 46.7191 75.4804H77.5221C78.0177 75.4804 78.5021 75.3316 78.9233 75.0462C80.8945 73.7072 83.2256 73.0006 85.6804 73.0006C88.136 73.0006 90.4792 73.7072 92.4384 75.0462C95.2408 76.956 96.8411 79.8206 96.8411 82.9206C96.8411 83.0815 96.8532 83.2432 96.8904 83.4041L101.131 104.609C101.776 107.819 100.945 111.118 98.8746 113.647L98.8738 113.647ZM100.126 76.3721C98.9975 74.2521 97.3358 72.3796 95.2411 70.9412C92.6367 69.168 89.5869 68.1879 86.3875 68.0644C86.6479 65.6459 86.8217 63.154 86.8831 60.5998H104.205C103.871 66.2168 102.445 71.5492 100.126 76.3721H100.126Z" fill="white"/>
<path d="M89.4 85.3999C89.4 86.77 88.2903 87.8797 86.9202 87.8797C85.5502 87.8797 84.4404 86.77 84.4404 85.3999C84.4404 84.0299 85.5502 82.9202 86.9202 82.9202C88.2903 82.9202 89.4 84.0299 89.4 85.3999Z" fill="white"/>
<path d="M79.4801 90.3599C79.4801 91.73 78.3703 92.8406 77.0003 92.8406C75.6311 92.8406 74.5205 91.73 74.5205 90.3599C74.5205 88.9907 75.6311 87.8801 77.0003 87.8801C78.3704 87.8801 79.4801 88.9907 79.4801 90.3599Z" fill="white"/>
<path d="M39.8004 85.3999C39.8004 86.77 38.6906 87.8797 37.3206 87.8797C35.9506 87.8797 34.8408 86.77 34.8408 85.3999C34.8408 84.0299 35.9506 82.9202 37.3206 82.9202C38.6906 82.9202 39.8004 84.0299 39.8004 85.3999Z" fill="white"/>
<path d="M49.7203 90.3599C49.7203 91.73 48.6097 92.8406 47.2405 92.8406C45.8704 92.8406 44.7607 91.73 44.7607 90.3599C44.7607 88.9907 45.8705 87.8801 47.2405 87.8801C48.6097 87.8801 49.7203 88.9907 49.7203 90.3599Z" fill="white"/>
</g>
<defs>
<filter id="filter0_d_58_681" x="0" y="0" width="124.24" height="141.6" filterUnits="userSpaceOnUse" color-interpolation-filters="sRGB">
<feFlood flood-opacity="0" result="BackgroundImageFix"/>
<feColorMatrix in="SourceAlpha" type="matrix" values="0 0 0 0 0 0 0 0 0 0 0 0 0 0 0 0 0 0 127 0" result="hardAlpha"/>
<feOffset dy="4"/>
<feGaussianBlur stdDeviation="7.5"/>
<feComposite in2="hardAlpha" operator="out"/>
<feColorMatrix type="matrix" values="0 0 0 0 0.960784 0 0 0 0 0.909804 0 0 0 0 0.196078 0 0 0 0.66 0"/>
<feBlend mode="normal" in2="BackgroundImageFix" result="effect1_dropShadow_58_681"/>
<feBlend mode="normal" in="SourceGraphic" in2="effect1_dropShadow_58_681" result="shape"/>
</filter>
</defs>
</svg>
