<svg width="1226" height="523" viewBox="0 0 1226 523" fill="none" xmlns="http://www.w3.org/2000/svg">
<mask id="mask0_139_7" style="mask-type:alpha" maskUnits="userSpaceOnUse" x="0" y="0" width="1226" height="468">
<rect width="1226" height="468" fill="#C4C4C4"/>
</mask>
<g mask="url(#mask0_139_7)">
<g filter="url(#filter0_d_139_7)">
<path d="M1012.35 276.695L1009.93 277.213L1012.35 276.695ZM325.345 500.869L322.86 500.572L325.345 500.869ZM793.845 967.294L791.371 966.88L793.845 967.294ZM131.845 109.65C131.83 112.154 131.83 112.154 131.83 112.154C131.831 112.154 131.831 112.154 131.831 112.154C131.831 112.154 131.831 112.154 131.831 112.154C131.831 112.154 131.832 112.154 131.833 112.154C131.834 112.154 131.837 112.155 131.84 112.155C131.847 112.155 131.856 112.156 131.87 112.156C131.896 112.158 131.935 112.16 131.988 112.163C132.093 112.168 132.25 112.177 132.458 112.188C132.876 112.211 133.499 112.246 134.322 112.292C135.967 112.384 138.409 112.522 141.595 112.708L141.648 107.701C138.458 107.514 136.012 107.376 134.363 107.283C133.538 107.237 132.913 107.203 132.494 107.18C132.284 107.168 132.126 107.16 132.02 107.154C131.967 107.151 131.927 107.149 131.901 107.147C131.887 107.147 131.877 107.146 131.871 107.146C131.867 107.146 131.865 107.145 131.863 107.145C131.862 107.145 131.861 107.145 131.861 107.145C131.861 107.145 131.861 107.145 131.861 107.145C131.86 107.145 131.86 107.145 131.86 107.145C131.86 107.145 131.86 107.145 131.845 109.65ZM160.805 113.871C166.606 114.233 173.203 114.654 180.527 115.134L180.616 110.129C173.287 109.648 166.685 109.227 160.879 108.865L160.805 113.871ZM200.175 116.451C206.389 116.877 212.962 117.335 219.868 117.826L219.984 112.822C213.074 112.331 206.496 111.873 200.278 111.447L200.175 116.451ZM239.715 119.264C246.031 119.729 252.565 120.219 259.302 120.733L259.444 115.731C252.703 115.217 246.164 114.727 239.844 114.261L239.715 119.264ZM278.85 122.249C285.319 122.758 291.943 123.288 298.71 123.839L298.877 118.839C292.106 118.288 285.478 117.758 279.005 117.248L278.85 122.249ZM318.191 125.449C324.651 125.991 331.222 126.551 337.894 127.128L338.087 122.13C331.41 121.553 324.835 120.993 318.371 120.45L318.191 125.449ZM357.545 128.854C364.003 129.43 370.542 130.022 377.155 130.63L377.375 125.635C370.757 125.027 364.213 124.434 357.751 123.858L357.545 128.854ZM396.862 132.469C403.328 133.082 409.854 133.709 416.434 134.351L416.682 129.359C410.097 128.716 403.566 128.088 397.095 127.475L396.862 132.469ZM436.139 136.305C442.621 136.957 449.147 137.623 455.709 138.304L455.987 133.315C449.419 132.633 442.889 131.966 436.402 131.314L436.139 136.305ZM475.388 140.377C481.888 141.073 488.418 141.782 494.971 142.505L495.281 137.519C488.722 136.795 482.187 136.085 475.682 135.389L475.388 140.377ZM514.616 144.708C521.133 145.45 527.668 146.207 534.214 146.977L534.56 141.995C528.008 141.224 521.467 140.467 514.944 139.724L514.616 144.708ZM553.826 149.322C560.358 150.116 566.895 150.924 573.432 151.746L573.818 146.769C567.274 145.946 560.73 145.137 554.192 144.343L553.826 149.322ZM593.017 154.251C599.559 155.103 606.095 155.968 612.619 156.848L613.05 151.876C606.518 150.996 599.975 150.129 593.425 149.277L593.017 154.251ZM632.183 159.534C638.731 160.45 645.26 161.38 651.766 162.325L652.248 157.361C645.733 156.414 639.194 155.483 632.638 154.566L632.183 159.534ZM671.31 165.219C677.862 166.209 684.383 167.214 690.866 168.234L691.407 163.279C684.913 162.257 678.382 161.25 671.82 160.259L671.31 165.219ZM710.383 171.37C716.94 172.447 723.451 173.54 729.91 174.649L730.52 169.705C724.049 168.594 717.526 167.499 710.957 166.421L710.383 171.37ZM749.378 178.071C755.945 179.253 762.449 180.452 768.882 181.67L769.577 176.741C763.128 175.521 756.61 174.319 750.028 173.134L749.378 178.071ZM788.252 185.433C794.841 186.747 801.343 188.081 807.75 189.435L808.551 184.528C802.124 183.17 795.603 181.832 788.997 180.514L788.252 185.433ZM826.931 193.612C833.554 195.1 840.06 196.61 846.437 198.143L847.375 193.267C840.972 191.728 834.442 190.212 827.795 188.719L826.931 193.612ZM865.55 202.908C872.118 204.608 878.524 206.333 884.756 208.086L885.884 203.259C879.615 201.496 873.174 199.761 866.575 198.053L865.55 202.908ZM903.89 213.724C910.369 215.727 916.616 217.763 922.614 219.831L924.027 215.093C917.972 213.005 911.672 210.952 905.145 208.934L903.89 213.724ZM941.189 226.66C947.723 229.23 953.865 231.845 959.588 234.506L961.498 229.969C955.668 227.258 949.427 224.602 942.81 221.999L941.189 226.66ZM977.218 243.63C983.436 247.251 988.849 250.933 993.408 254.674L996.446 250.847C991.62 246.887 985.962 243.047 979.559 239.318L977.218 243.63ZM1006.3 268.804C1008 271.6 1009.21 274.401 1009.93 277.213L1014.76 276.177C1013.89 272.806 1012.46 269.522 1010.51 266.33L1006.3 268.804ZM1009.93 277.213C1010.78 280.502 1011.03 283.605 1010.74 286.546L1015.7 287.268C1016.05 283.7 1015.74 280.002 1014.76 276.177L1009.93 277.213ZM1002.85 302.736C999.082 306.796 994.016 310.627 987.722 314.243L990.344 318.628C996.914 314.854 1002.39 310.75 1006.56 306.251L1002.85 302.736ZM970.125 322.585C964.416 324.861 958.182 327.026 951.467 329.092L953.128 333.895C959.942 331.799 966.299 329.592 972.148 327.261L970.125 322.585ZM932.303 334.412C926.092 335.976 919.589 337.478 912.82 338.927L914.075 343.836C920.892 342.377 927.452 340.862 933.725 339.282L932.303 334.412ZM893.096 342.866C886.727 344.057 880.173 345.211 873.453 346.334L874.494 351.284C881.241 350.156 887.825 348.997 894.228 347.8L893.096 342.866ZM853.723 349.476C847.207 350.467 840.564 351.435 833.808 352.385L834.725 357.353C841.497 356.401 848.158 355.431 854.694 354.437L853.723 349.476ZM813.851 355.098C807.318 355.96 800.699 356.808 794.005 357.647L794.851 362.625C801.553 361.785 808.182 360.935 814.727 360.073L813.851 355.098ZM774.006 360.104C767.401 360.902 760.738 361.693 754.028 362.482L754.836 367.465C761.55 366.675 768.218 365.883 774.829 365.085L774.006 360.104ZM734.074 364.81C727.429 365.581 720.75 366.352 714.046 367.127L714.845 372.111C721.548 371.336 728.228 370.565 734.875 369.794L734.074 364.81ZM694.081 369.441C687.424 370.217 680.755 370.998 674.082 371.789L674.894 376.771C681.563 375.981 688.229 375.2 694.884 374.425L694.081 369.441ZM654.106 374.186C647.433 374.999 640.766 375.823 634.117 376.663L634.966 381.64C641.608 380.802 648.267 379.978 654.934 379.167L654.106 374.186ZM614.169 379.237C607.49 380.119 600.839 381.019 594.227 381.941L595.138 386.91C601.738 385.99 608.377 385.092 615.045 384.211L614.169 379.237ZM574.282 384.805C567.627 385.792 561.022 386.803 554.479 387.843L555.481 392.799C562.007 391.762 568.595 390.753 575.235 389.769L574.282 384.805ZM534.561 391.134C527.876 392.283 521.271 393.467 514.757 394.688L515.892 399.621C522.38 398.405 528.962 397.225 535.624 396.08L534.561 391.134ZM495.166 398.539C488.459 399.923 481.869 401.353 475.412 402.835L476.736 407.728C483.156 406.255 489.711 404.832 496.386 403.456L495.166 398.539ZM455.857 407.591C449.254 409.296 442.819 411.065 436.571 412.903L438.176 417.724C444.368 415.901 450.751 414.147 457.308 412.454L455.857 407.591ZM417.544 418.927C410.969 421.17 404.654 423.51 398.627 425.954L400.675 430.619C406.611 428.212 412.841 425.904 419.341 423.686L417.544 418.927ZM380.26 434.187C373.979 437.312 368.122 440.596 362.735 444.05L365.553 448.317C370.778 444.966 376.485 441.765 382.636 438.704L380.26 434.187ZM346.65 456.16C341.365 460.902 336.857 465.941 333.223 471.305L337.383 474.262C340.772 469.26 345.017 464.502 350.063 459.973L346.65 456.16ZM324.572 490.126C323.691 493.508 323.115 496.989 322.86 500.572L327.831 501.166C328.065 497.886 328.591 494.703 329.397 491.611L324.572 490.126ZM322.86 500.572C322.604 504.159 322.592 507.693 322.814 511.178L327.788 511.093C327.58 507.838 327.591 504.531 327.831 501.166L322.86 500.572ZM327.014 531.883C329.284 538.449 332.399 544.806 336.26 550.981L340.442 548.456C336.771 542.584 333.839 536.587 331.713 530.437L327.014 531.883ZM349.038 567.925C353.544 573.022 358.551 578.005 363.997 582.894L367.215 579.221C361.899 574.45 357.042 569.612 352.691 564.691L349.038 567.925ZM380.24 596.268C385.622 600.366 391.299 604.41 397.234 608.412L399.87 604.285C394.008 600.332 388.416 596.347 383.125 592.32L380.24 596.268ZM414.771 619.686C420.543 623.239 426.501 626.767 432.617 630.281L434.93 625.953C428.854 622.462 422.943 618.961 417.221 615.44L414.771 619.686ZM450.695 640.39C456.668 643.65 462.757 646.905 468.943 650.16L471.085 645.738C464.919 642.493 458.853 639.251 452.908 636.006L450.695 640.39ZM487.309 659.701C493.391 662.825 499.543 665.958 505.745 669.103L507.817 664.644C501.619 661.502 495.476 658.374 489.405 655.255L487.309 659.701ZM524.208 678.443C530.33 681.538 536.483 684.65 542.65 687.786L544.727 683.331C538.554 680.191 532.397 677.076 526.274 673.981L524.208 678.443ZM561.019 697.191C567.131 700.345 573.24 703.528 579.33 706.745L581.479 702.326C575.372 699.101 569.248 695.91 563.124 692.749L561.019 697.191ZM597.534 716.506C603.591 719.807 609.612 723.148 615.579 726.533L617.867 722.191C611.871 718.79 605.824 715.434 599.744 712.12L597.534 716.506ZM633.411 736.891C639.366 740.437 645.248 744.035 651.039 747.69L653.54 743.475C647.707 739.794 641.786 736.172 635.796 732.605L633.411 736.891ZM668.351 758.985C674.108 762.875 679.75 766.831 685.257 770.86L688.06 766.85C682.495 762.78 676.799 758.785 670.991 754.861L668.351 758.985ZM701.65 783.405C707.074 787.757 712.331 792.194 717.398 796.721L720.606 793.04C715.464 788.445 710.134 783.947 704.642 779.54L701.65 783.405ZM732.334 810.913C737.214 815.859 741.86 820.912 746.25 826.079L749.973 822.925C745.491 817.65 740.754 812.499 735.788 807.465L732.334 810.913ZM758.888 842.302C762.883 847.931 766.572 853.692 769.93 859.594L774.227 857.26C770.776 851.194 766.989 845.283 762.897 839.516L758.888 842.302ZM779.046 877.882C781.718 884.101 784.029 890.473 785.952 897.008L790.725 895.796C788.742 889.055 786.359 882.485 783.606 876.078L779.046 877.882ZM790.463 916.719C791.538 923.223 792.241 929.885 792.547 936.714L797.525 936.725C797.211 929.696 796.487 922.832 795.379 916.125L790.463 916.719ZM792.316 956.718C792.094 960.066 791.78 963.453 791.371 966.88L796.32 967.709C796.739 964.197 797.061 960.723 797.289 957.287L792.316 956.718ZM791.371 966.88C790.969 970.248 790.506 973.594 789.985 976.916L794.909 977.926C795.44 974.544 795.91 971.138 796.32 967.709L791.371 966.88ZM786.145 996.649C784.624 1003.19 782.873 1009.64 780.908 1016L785.674 1017.7C787.672 1011.23 789.453 1004.67 791.001 998.009L786.145 996.649ZM774.343 1034.91C771.941 1041.13 769.336 1047.25 766.54 1053.29L771.075 1055.58C773.913 1049.46 776.56 1043.23 779 1036.91L774.343 1034.91ZM757.599 1071.1C754.445 1076.93 751.114 1082.67 747.621 1088.32L751.887 1091.11C755.426 1085.39 758.803 1079.57 762.003 1073.66L757.599 1071.1ZM736.701 1104.95C732.921 1110.38 728.994 1115.72 724.934 1120.97L728.922 1124.17C733.028 1118.86 737.001 1113.45 740.828 1107.95L736.701 1104.95ZM712.41 1136.4C708.126 1141.44 703.723 1146.39 699.215 1151.25L702.932 1154.76C707.484 1149.86 711.931 1144.86 716.261 1139.77L712.41 1136.4ZM685.413 1165.54C680.717 1170.21 675.93 1174.79 671.065 1179.29L674.529 1183.05C679.434 1178.52 684.262 1173.9 689 1169.18L685.413 1165.54ZM656.232 1192.52C651.204 1196.85 646.111 1201.1 640.967 1205.25L644.196 1209.22C649.378 1205.04 654.509 1200.76 659.576 1196.39L656.232 1192.52ZM625.317 1217.5C620.013 1221.53 614.669 1225.47 609.301 1229.31L612.316 1233.44C617.718 1229.58 623.096 1225.61 628.437 1221.56L625.317 1217.5ZM592.953 1240.69C587.412 1244.44 581.86 1248.1 576.312 1251.66L579.13 1255.92C584.708 1252.35 590.293 1248.67 595.867 1244.9L592.953 1240.69ZM559.407 1262.22C553.664 1265.72 547.942 1269.11 542.26 1272.4L544.895 1276.77C550.606 1273.47 556.357 1270.06 562.131 1266.55L559.407 1262.22ZM524.89 1282.2C518.96 1285.46 513.093 1288.61 507.311 1291.64L509.775 1296.11C515.584 1293.07 521.479 1289.91 527.438 1286.63L524.89 1282.2ZM489.531 1300.74C483.404 1303.79 477.405 1306.71 471.56 1309.49L473.86 1314.04C479.73 1311.25 485.757 1308.32 491.912 1305.25L489.531 1300.74ZM453.416 1317.9C447.065 1320.77 440.961 1323.45 435.147 1325.95L437.283 1330.58C443.124 1328.07 449.255 1325.38 455.634 1322.49L453.416 1317.9ZM416.743 1333.64C409.873 1336.43 403.612 1338.88 398.062 1341L400.018 1345.7C405.598 1343.57 411.891 1341.11 418.793 1338.3L416.743 1333.64ZM379.394 1347.86C376.349 1348.93 373.993 1349.73 372.401 1350.26C371.605 1350.53 371 1350.73 370.595 1350.86C370.393 1350.93 370.241 1350.98 370.14 1351.01C370.089 1351.03 370.051 1351.04 370.026 1351.05C370.014 1351.05 370.005 1351.05 369.999 1351.05C369.996 1351.06 369.994 1351.06 369.993 1351.06C369.992 1351.06 369.991 1351.06 369.991 1351.06C369.991 1351.06 369.991 1351.06 369.991 1351.06C369.991 1351.06 369.991 1351.06 369.991 1351.06C369.991 1351.06 369.991 1351.06 370.845 1353.45C371.7 1355.85 371.7 1355.85 371.7 1355.85C371.7 1355.85 371.7 1355.85 371.7 1355.85C371.7 1355.85 371.7 1355.85 371.701 1355.85C371.701 1355.85 371.702 1355.84 371.703 1355.84C371.705 1355.84 371.708 1355.84 371.711 1355.84C371.719 1355.84 371.729 1355.84 371.743 1355.83C371.77 1355.82 371.81 1355.81 371.863 1355.79C371.97 1355.76 372.127 1355.71 372.335 1355.64C372.75 1355.5 373.366 1355.3 374.173 1355.03C375.787 1354.49 378.166 1353.68 381.235 1352.6L379.394 1347.86Z" fill="#F5E832"/>
</g>
<path d="M1013.35 273.741L1010.94 274.259L1013.35 273.741ZM326.334 497.961L323.848 497.664L326.334 497.961ZM794.823 964.352L792.349 963.937L794.823 964.352ZM132.845 106.757C132.83 109.262 132.83 109.262 132.83 109.262C132.83 109.262 132.83 109.262 132.83 109.262C132.83 109.262 132.831 109.262 132.831 109.262C132.831 109.262 132.832 109.262 132.833 109.262C132.834 109.262 132.837 109.262 132.84 109.262C132.846 109.262 132.856 109.263 132.869 109.264C132.896 109.265 132.935 109.267 132.987 109.27C133.092 109.276 133.25 109.284 133.458 109.296C133.876 109.319 134.499 109.353 135.321 109.399C136.966 109.491 139.408 109.629 142.595 109.815L142.648 104.807C139.458 104.621 137.012 104.483 135.363 104.391C134.538 104.344 133.913 104.31 133.494 104.287C133.284 104.276 133.126 104.267 133.02 104.261C132.967 104.258 132.927 104.256 132.901 104.255C132.887 104.254 132.877 104.254 132.871 104.253C132.867 104.253 132.865 104.253 132.863 104.253C132.862 104.253 132.861 104.253 132.861 104.253C132.861 104.253 132.861 104.253 132.86 104.253C132.86 104.253 132.86 104.253 132.86 104.253C132.86 104.253 132.86 104.253 132.845 106.757ZM161.805 110.977C167.606 111.338 174.203 111.758 181.527 112.238L181.616 107.233C174.287 106.753 167.685 106.332 161.879 105.97L161.805 110.977ZM201.175 113.554C207.389 113.979 213.962 114.437 220.868 114.927L220.985 109.924C214.074 109.433 207.497 108.975 201.278 108.55L201.175 113.554ZM240.715 116.364C247.031 116.829 253.566 117.318 260.302 117.831L260.444 112.83C253.704 112.316 247.165 111.826 240.845 111.361L240.715 116.364ZM279.851 119.346C286.32 119.855 292.944 120.385 299.711 120.935L299.878 115.935C293.107 115.385 286.479 114.855 280.006 114.345L279.851 119.346ZM319.192 122.543C325.652 123.085 332.223 123.644 338.895 124.221L339.088 119.223C332.412 118.646 325.837 118.087 319.372 117.545L319.192 122.543ZM358.546 125.946C365.004 126.522 371.544 127.113 378.157 127.72L378.376 122.725C371.759 122.117 365.215 121.526 358.752 120.95L358.546 125.946ZM397.863 129.558C404.33 130.17 410.856 130.797 417.436 131.439L417.684 126.447C411.099 125.804 404.568 125.177 398.097 124.564L397.863 129.558ZM437.141 133.391C443.623 134.043 450.148 134.709 456.711 135.389L456.989 130.399C450.421 129.719 443.891 129.052 437.404 128.4L437.141 133.391ZM476.39 137.461C482.89 138.156 489.42 138.864 495.973 139.587L496.284 134.601C489.725 133.878 483.189 133.168 476.684 132.473L476.39 137.461ZM515.618 141.789C522.136 142.531 528.67 143.286 535.216 144.056L535.563 139.074C529.011 138.304 522.47 137.547 515.946 136.805L515.618 141.789ZM554.829 146.4C561.361 147.194 567.898 148.001 574.435 148.823L574.821 143.846C568.277 143.023 561.733 142.215 555.194 141.42L554.829 146.4ZM594.02 151.326C600.562 152.177 607.098 153.042 613.622 153.921L614.053 148.95C607.521 148.07 600.977 147.204 594.428 146.352L594.02 151.326ZM633.186 156.606C639.733 157.522 646.263 158.451 652.769 159.396L653.251 154.432C646.736 153.486 640.197 152.555 633.641 151.639L633.186 156.606ZM672.313 162.289C678.865 163.278 685.386 164.282 691.869 165.302L692.41 160.347C685.916 159.326 679.385 158.32 672.823 157.329L672.313 162.289ZM711.387 168.437C717.943 169.513 724.454 170.606 730.913 171.714L731.524 166.771C725.052 165.66 718.529 164.566 711.961 163.488L711.387 168.437ZM750.381 175.135C756.948 176.316 763.452 177.516 769.885 178.732L770.581 173.804C764.132 172.584 757.613 171.382 751.032 170.198L750.381 175.135ZM789.256 182.494C795.844 183.808 802.346 185.142 808.754 186.495L809.555 181.588C803.128 180.23 796.607 178.893 790.001 177.575L789.256 182.494ZM827.934 190.671C834.558 192.158 841.063 193.668 847.44 195.2L848.379 190.324C841.976 188.785 835.445 187.27 828.798 185.777L827.934 190.671ZM866.554 199.964C873.122 201.663 879.528 203.389 885.759 205.14L886.888 200.314C880.619 198.551 874.178 196.817 867.579 195.109L866.554 199.964ZM904.894 210.777C911.373 212.78 917.62 214.815 923.618 216.883L925.031 212.145C918.976 210.058 912.676 208.005 906.149 205.988L904.894 210.777ZM942.193 223.711C948.727 226.28 954.869 228.895 960.591 231.555L962.502 227.019C956.672 224.308 950.431 221.652 943.814 219.05L942.193 223.711ZM978.222 240.678C984.439 244.298 989.852 247.981 994.411 251.721L997.449 247.893C992.624 243.934 986.965 240.094 980.562 236.366L978.222 240.678ZM1007.3 265.85C1009 268.646 1010.22 271.447 1010.94 274.259L1015.76 273.223C1014.89 269.851 1013.46 266.568 1011.51 263.376L1007.3 265.85ZM1010.94 274.259C1011.78 277.548 1012.03 280.65 1011.74 283.592L1016.7 284.313C1017.05 280.745 1016.74 277.047 1015.76 273.223L1010.94 274.259ZM1003.85 299.782C1000.08 303.842 995.018 307.673 988.723 311.29L991.345 315.675C997.916 311.9 1003.39 307.796 1007.57 303.297L1003.85 299.782ZM971.126 319.633C965.417 321.91 959.182 324.075 952.468 326.141L954.128 330.944C960.942 328.848 967.3 326.641 973.148 324.309L971.126 319.633ZM933.303 331.463C927.092 333.027 920.589 334.53 913.819 335.979L915.074 340.888C921.892 339.428 928.452 337.913 934.725 336.333L933.303 331.463ZM894.095 339.92C887.726 341.111 881.172 342.266 874.452 343.389L875.493 348.338C882.24 347.211 888.824 346.051 895.228 344.853L894.095 339.92ZM854.722 346.532C848.206 347.523 841.563 348.492 834.807 349.442L835.723 354.411C842.495 353.458 849.157 352.487 855.693 351.493L854.722 346.532ZM814.85 352.157C808.316 353.019 801.697 353.868 795.003 354.707L795.848 359.685C802.551 358.845 809.18 357.995 815.725 357.131L814.85 352.157ZM775.004 357.166C768.398 357.964 761.735 358.756 755.025 359.545L755.833 364.528C762.547 363.738 769.215 362.945 775.827 362.147L775.004 357.166ZM735.072 361.875C728.426 362.646 721.747 363.418 715.043 364.193L715.842 369.177C722.544 368.401 729.225 367.63 735.872 366.858L735.072 361.875ZM695.077 366.509C688.421 367.284 681.751 368.066 675.078 368.857L675.891 373.839C682.559 373.049 689.226 372.267 695.88 371.492L695.077 366.509ZM655.102 371.256C648.429 372.069 641.762 372.894 635.113 373.734L635.962 378.712C642.603 377.873 649.263 377.049 655.93 376.236L655.102 371.256ZM615.164 376.31C608.486 377.192 601.835 378.093 595.222 379.015L596.133 383.984C602.733 383.064 609.373 382.165 616.041 381.284L615.164 376.31ZM575.277 381.881C568.622 382.868 562.017 383.88 555.473 384.92L556.476 389.876C563.001 388.838 569.59 387.829 576.23 386.844L575.277 381.881ZM535.555 388.212C528.871 389.362 522.265 390.546 515.751 391.768L516.886 396.701C523.374 395.484 529.956 394.304 536.618 393.158L535.555 388.212ZM496.159 395.62C489.452 397.004 482.863 398.435 476.405 399.917L477.729 404.81C484.149 403.337 490.704 401.914 497.379 400.536L496.159 395.62ZM456.851 404.675C450.247 406.38 443.812 408.149 437.564 409.988L439.168 414.808C445.361 412.986 451.744 411.231 458.301 409.538L456.851 404.675ZM418.536 416.013C411.961 418.257 405.646 420.597 399.619 423.041L401.666 427.707C407.603 425.299 413.833 422.99 420.333 420.772L418.536 416.013ZM381.252 431.275C374.97 434.402 369.113 437.685 363.726 441.14L366.543 445.407C371.769 442.056 377.476 438.854 383.628 435.793L381.252 431.275ZM347.64 453.251C342.356 457.994 337.847 463.033 334.213 468.396L338.373 471.353C341.762 466.351 346.007 461.593 351.054 457.064L347.64 453.251ZM325.561 487.218C324.68 490.6 324.104 494.082 323.848 497.664L328.82 498.258C329.054 494.978 329.58 491.795 330.386 488.703L325.561 487.218ZM323.848 497.664C323.593 501.251 323.581 504.785 323.803 508.27L328.776 508.185C328.569 504.93 328.58 501.623 328.82 498.258L323.848 497.664ZM328.001 528.975C330.271 535.54 333.386 541.898 337.247 548.072L341.43 545.547C337.759 539.676 334.827 533.679 332.7 527.529L328.001 528.975ZM350.025 565.015C354.531 570.111 359.537 575.095 364.983 579.983L368.201 576.31C362.886 571.539 358.029 566.701 353.678 561.781L350.025 565.015ZM381.226 593.356C386.608 597.453 392.285 601.497 398.219 605.498L400.856 601.372C394.994 597.419 389.402 593.435 384.111 589.407L381.226 593.356ZM415.756 616.772C421.529 620.324 427.487 623.852 433.602 627.365L435.916 623.037C429.84 619.547 423.928 616.046 418.207 612.525L415.756 616.772ZM451.68 637.473C457.653 640.733 463.743 643.987 469.928 647.242L472.07 642.819C465.904 639.575 459.838 636.334 453.893 633.089L451.68 637.473ZM488.294 656.781C494.376 659.905 500.528 663.037 506.73 666.182L508.802 661.723C502.604 658.581 496.461 655.454 490.39 652.335L488.294 656.781ZM525.193 675.52C531.315 678.615 537.467 681.727 543.635 684.863L545.712 680.407C539.539 677.268 533.381 674.153 527.259 671.059L525.193 675.52ZM562.004 694.266C568.116 697.42 574.225 700.602 580.314 703.818L582.464 699.4C576.357 696.175 570.233 692.985 564.109 689.824L562.004 694.266ZM598.518 713.578C604.575 716.879 610.596 720.22 616.563 723.604L618.851 719.262C612.855 715.861 606.809 712.506 600.728 709.192L598.518 713.578ZM634.395 733.96C640.35 737.506 646.231 741.104 652.022 744.758L654.524 740.544C648.691 736.863 642.77 733.241 636.78 729.674L634.395 733.96ZM669.334 756.052C675.092 759.942 680.733 763.898 686.24 767.926L689.043 763.916C683.479 759.846 677.783 755.852 671.975 751.928L669.334 756.052ZM702.633 780.47C708.057 784.822 713.313 789.258 718.38 793.785L721.589 790.104C716.446 785.509 711.117 781.012 705.625 776.605L702.633 780.47ZM733.317 807.976C738.196 812.922 742.842 817.974 747.232 823.141L750.955 819.986C746.473 814.711 741.736 809.561 736.77 804.527L733.317 807.976ZM759.869 839.362C763.864 844.991 767.554 850.752 770.911 856.654L775.208 854.319C771.757 848.254 767.971 842.343 763.878 836.577L759.869 839.362ZM780.027 874.941C782.698 881.16 785.009 887.532 786.931 894.066L791.705 892.854C789.722 886.113 787.339 879.544 784.587 873.137L780.027 874.941ZM791.442 913.777C792.517 920.281 793.22 926.943 793.525 933.772L798.504 933.783C798.19 926.754 797.466 919.889 796.358 913.183L791.442 913.777ZM793.294 953.775C793.072 957.124 792.758 960.511 792.349 963.937L797.297 964.766C797.717 961.255 798.039 957.781 798.267 954.344L793.294 953.775ZM792.349 963.937C791.947 967.306 791.484 970.651 790.962 973.974L795.886 974.984C796.417 971.601 796.888 968.195 797.297 964.766L792.349 963.937ZM787.122 993.707C785.6 1000.25 783.85 1006.7 781.884 1013.06L786.65 1014.75C788.648 1008.29 790.429 1001.73 791.978 995.067L787.122 993.707ZM775.318 1031.96C772.916 1038.18 770.311 1044.31 767.514 1050.35L772.049 1052.64C774.888 1046.51 777.535 1040.29 779.975 1033.97L775.318 1031.96ZM758.573 1068.16C755.418 1073.99 752.087 1079.73 748.594 1085.38L752.86 1088.17C756.4 1082.45 759.777 1076.63 762.977 1070.71L758.573 1068.16ZM737.673 1102.01C733.893 1107.44 729.966 1112.78 725.906 1118.03L729.894 1121.23C734 1115.92 737.973 1110.51 741.8 1105.01L737.673 1102.01ZM713.382 1133.47C709.097 1138.5 704.694 1143.45 700.186 1148.31L703.903 1151.83C708.455 1146.92 712.902 1141.92 717.232 1136.83L713.382 1133.47ZM686.383 1162.6C681.687 1167.27 676.9 1171.86 672.035 1176.35L675.498 1180.12C680.403 1175.59 685.232 1170.96 689.97 1166.25L686.383 1162.6ZM657.201 1189.58C652.173 1193.92 647.08 1198.16 641.935 1202.32L645.164 1206.29C650.346 1202.1 655.477 1197.83 660.545 1193.46L657.201 1189.58ZM626.285 1214.57C620.98 1218.6 615.637 1222.54 610.269 1226.38L613.283 1230.51C618.685 1226.65 624.064 1222.68 629.405 1218.63L626.285 1214.57ZM593.92 1237.76C588.378 1241.51 582.826 1245.17 577.278 1248.73L580.096 1253C585.675 1249.42 591.259 1245.74 596.834 1241.97L593.92 1237.76ZM560.372 1259.29C554.629 1262.79 548.908 1266.18 543.225 1269.47L545.86 1273.85C551.571 1270.54 557.323 1267.13 563.097 1263.62L560.372 1259.29ZM525.855 1279.27C519.924 1282.54 514.057 1285.69 508.275 1288.72L510.739 1293.19C516.548 1290.15 522.443 1286.98 528.403 1283.7L525.855 1279.27ZM490.495 1297.81C484.367 1300.87 478.368 1303.79 472.524 1306.57L474.823 1311.12C480.694 1308.33 486.72 1305.4 492.876 1302.33L490.495 1297.81ZM454.379 1314.98C448.028 1317.85 441.924 1320.53 436.109 1323.03L438.245 1327.66C444.086 1325.15 450.217 1322.46 456.597 1319.57L454.379 1314.98ZM417.705 1330.72C410.835 1333.51 404.573 1335.96 399.023 1338.08L400.98 1342.78C406.56 1340.65 412.852 1338.19 419.755 1335.38L417.705 1330.72ZM380.355 1344.94C377.31 1346.01 374.954 1346.82 373.362 1347.35C372.566 1347.61 371.961 1347.81 371.556 1347.95C371.354 1348.01 371.201 1348.06 371.1 1348.09C371.05 1348.11 371.012 1348.12 370.987 1348.13C370.975 1348.14 370.966 1348.14 370.96 1348.14C370.957 1348.14 370.955 1348.14 370.953 1348.14C370.953 1348.14 370.952 1348.14 370.952 1348.14C370.952 1348.14 370.952 1348.14 370.952 1348.14C370.952 1348.14 370.952 1348.14 370.952 1348.14C370.952 1348.14 370.952 1348.14 371.806 1350.54C372.66 1352.93 372.66 1352.93 372.661 1352.93C372.661 1352.93 372.661 1352.93 372.661 1352.93C372.661 1352.93 372.661 1352.93 372.661 1352.93C372.662 1352.93 372.663 1352.93 372.664 1352.93C372.666 1352.93 372.669 1352.93 372.672 1352.93C372.679 1352.92 372.69 1352.92 372.703 1352.92C372.731 1352.91 372.771 1352.9 372.824 1352.88C372.93 1352.84 373.088 1352.79 373.296 1352.72C373.711 1352.59 374.327 1352.39 375.134 1352.12C376.748 1351.58 379.127 1350.77 382.195 1349.69L380.355 1344.94Z" fill="white"/>
</g>
<g opacity="0.7">
<path style="mix-blend-mode:color-dodge" d="M119.122 60.2021C110.549 60.2021 102.169 62.7443 95.0407 67.5071C87.9127 72.2699 82.357 79.0395 79.0763 86.9598C75.7956 94.8801 74.9373 103.595 76.6097 112.003C78.2822 120.412 82.4104 128.135 88.4724 134.197C94.5343 140.259 102.258 144.387 110.666 146.06C119.074 147.732 127.789 146.874 135.709 143.593C143.63 140.312 150.399 134.757 155.162 127.629C159.925 120.5 162.467 112.12 162.467 103.547C162.467 97.8551 161.346 92.2187 159.168 86.9598C156.989 81.7009 153.797 76.9226 149.772 72.8976C145.747 68.8727 140.968 65.6799 135.709 63.5016C130.451 61.3233 124.814 60.2021 119.122 60.2021ZM119.122 132.486C113.388 132.486 107.783 130.785 103.016 127.599C98.2484 124.414 94.5329 119.885 92.3393 114.588C90.1456 109.29 89.5723 103.461 90.6918 97.8375C91.8113 92.214 94.5734 87.0489 98.6287 82.9953C102.684 78.9417 107.85 76.1819 113.474 75.0648C119.098 73.9476 124.927 74.5235 130.224 76.7194C135.521 78.9154 140.047 82.6328 143.231 87.4015C146.415 92.1703 148.113 97.776 148.11 103.51C148.115 107.319 147.369 111.092 145.914 114.613C144.459 118.133 142.325 121.333 139.632 124.027C136.94 126.722 133.742 128.86 130.223 130.317C126.704 131.775 122.931 132.525 119.122 132.523V132.486Z" fill="url(#paint0_linear_139_7)"/>
<path style="mix-blend-mode:color-dodge" d="M142.053 105.105C141.841 110.008 139.912 114.679 136.604 118.304C133.296 121.928 128.82 124.275 123.958 124.933V135.365C131.582 134.676 138.69 131.216 143.935 125.64C149.181 120.063 152.2 112.758 152.422 105.105H142.053Z" fill="url(#paint1_linear_139_7)"/>
<path style="mix-blend-mode:color-dodge" d="M113.626 139.116C105.401 137.839 97.8722 133.754 92.3193 127.553C86.7665 121.353 83.5325 113.421 83.1673 105.105H65.3457C65.727 118.148 70.8331 130.608 79.7142 140.168C88.5953 149.728 100.647 155.736 113.626 157.075V139.116Z" fill="url(#paint2_linear_139_7)"/>
<path style="mix-blend-mode:color-dodge" d="M113.626 50.0081C101.236 51.2863 89.6731 56.8219 80.9078 65.6713C72.1425 74.5207 66.7175 86.1361 65.5576 98.5376H83.4789C84.5529 90.8828 88.0636 83.7773 93.4912 78.2734C98.9187 72.7695 105.974 69.16 113.614 67.9792L113.626 50.0081Z" fill="url(#paint3_linear_139_7)"/>
<path style="mix-blend-mode:color-dodge" d="M126.787 156.152C139.176 154.874 150.74 149.339 159.505 140.489C168.27 131.64 173.695 120.024 174.855 107.623H156.921C155.847 115.278 152.337 122.383 146.909 127.887C141.482 133.391 134.426 137 126.787 138.181V156.152Z" fill="url(#paint4_linear_139_7)"/>
<path style="mix-blend-mode:color-dodge" d="M125.852 36V58.2458C135.5 59.5571 144.456 63.9832 151.357 70.8511C158.259 77.719 162.729 86.653 164.087 96.2943H186.346C184.89 80.7619 178.043 66.229 166.994 55.216C155.945 44.203 141.389 37.4046 125.852 36Z" fill="url(#paint5_linear_139_7)"/>
<path style="mix-blend-mode:color-dodge" d="M119.122 60.2021C110.549 60.2021 102.169 62.7443 95.0407 67.5071C87.9127 72.2699 82.357 79.0395 79.0763 86.9598C75.7956 94.8801 74.9373 103.595 76.6097 112.003C78.2822 120.412 82.4104 128.135 88.4724 134.197C94.5343 140.259 102.258 144.387 110.666 146.06C119.074 147.732 127.789 146.874 135.709 143.593C143.63 140.312 150.399 134.757 155.162 127.629C159.925 120.5 162.467 112.12 162.467 103.547C162.467 97.8551 161.346 92.2187 159.168 86.9598C156.989 81.7009 153.797 76.9226 149.772 72.8976C145.747 68.8727 140.968 65.6799 135.709 63.5016C130.451 61.3233 124.814 60.2021 119.122 60.2021ZM119.122 132.486C113.388 132.486 107.783 130.785 103.016 127.599C98.2484 124.414 94.5329 119.885 92.3393 114.588C90.1456 109.29 89.5723 103.461 90.6918 97.8375C91.8113 92.214 94.5734 87.0489 98.6287 82.9953C102.684 78.9417 107.85 76.1819 113.474 75.0648C119.098 73.9476 124.927 74.5235 130.224 76.7194C135.521 78.9154 140.047 82.6328 143.231 87.4015C146.415 92.1703 148.113 97.776 148.11 103.51C148.115 107.319 147.369 111.092 145.914 114.613C144.459 118.133 142.325 121.333 139.632 124.027C136.94 126.722 133.742 128.86 130.223 130.317C126.704 131.775 122.931 132.525 119.122 132.523V132.486Z" fill="url(#paint6_linear_139_7)"/>
<path style="mix-blend-mode:color-dodge" d="M142.053 105.105C141.841 110.008 139.912 114.679 136.604 118.304C133.296 121.928 128.82 124.275 123.958 124.933V135.365C131.582 134.676 138.69 131.216 143.935 125.64C149.181 120.063 152.2 112.758 152.422 105.105H142.053Z" fill="url(#paint7_linear_139_7)"/>
<path style="mix-blend-mode:color-dodge" d="M115.807 70.7458C108.079 71.5542 100.869 75.012 95.401 80.5323C89.933 86.0525 86.5439 93.295 85.8091 101.03H97.0255C97.693 96.2521 99.8832 91.8167 103.271 88.3818C106.659 84.947 111.063 82.6958 115.832 81.9622L115.807 70.7458Z" fill="url(#paint8_linear_139_7)"/>
<path style="mix-blend-mode:color-dodge" d="M125.852 36V58.2458C135.5 59.5571 144.456 63.9832 151.357 70.8511C158.259 77.719 162.729 86.653 164.087 96.2943H186.346C184.89 80.7619 178.043 66.229 166.994 55.216C155.945 44.203 141.389 37.4046 125.852 36Z" fill="url(#paint9_linear_139_7)"/>
</g>
<circle cx="119.346" cy="103" r="27" fill="url(#paint10_linear_139_7)"/>
<path d="M139.574 77.2434C140.438 76.4371 141.587 75.9913 142.78 76.0001C143.973 76.009 145.116 76.4718 145.968 77.2908C146.819 78.1099 147.313 79.2212 147.344 80.3902C147.376 81.5592 146.943 82.6945 146.137 83.5565L121.664 113.559C121.243 114.003 120.735 114.36 120.17 114.607C119.606 114.855 118.996 114.988 118.377 114.999C117.759 115.01 117.145 114.899 116.571 114.672C115.998 114.446 115.477 114.108 115.039 113.679L98.8098 97.77C98.3579 97.3572 97.9954 96.8593 97.7439 96.3062C97.4925 95.7531 97.3573 95.1559 97.3464 94.5505C97.3355 93.945 97.4491 93.3436 97.6805 92.7821C97.9119 92.2206 98.2562 91.7105 98.6931 91.2823C99.1299 90.8541 99.6502 90.5165 100.223 90.2897C100.796 90.0629 101.409 89.9516 102.027 89.9622C102.645 89.9729 103.254 90.1055 103.818 90.3519C104.382 90.5984 104.89 90.9537 105.311 91.3968L118.155 103.981L139.457 77.3757C139.495 77.3294 139.536 77.2852 139.58 77.2434H139.574Z" fill="#16171B"/>
<g opacity="0.7">
<path style="mix-blend-mode:color-dodge" d="M1004.78 249.202C996.203 249.202 987.823 251.744 980.695 256.507C973.566 261.27 968.011 268.04 964.73 275.96C961.449 283.88 960.591 292.595 962.264 301.003C963.936 309.412 968.064 317.135 974.126 323.197C980.188 329.259 987.911 333.387 996.32 335.06C1004.73 336.732 1013.44 335.874 1021.36 332.593C1029.28 329.312 1036.05 323.757 1040.82 316.629C1045.58 309.5 1048.12 301.12 1048.12 292.547C1048.12 286.855 1047 281.219 1044.82 275.96C1042.64 270.701 1039.45 265.923 1035.43 261.898C1031.4 257.873 1026.62 254.68 1021.36 252.502C1016.1 250.323 1010.47 249.202 1004.78 249.202ZM1004.78 321.486C999.042 321.486 993.437 319.785 988.67 316.599C983.902 313.414 980.187 308.885 977.993 303.588C975.799 298.29 975.226 292.461 976.346 286.838C977.465 281.214 980.227 276.049 984.283 271.995C988.338 267.942 993.504 265.182 999.128 264.065C1004.75 262.948 1010.58 263.523 1015.88 265.719C1021.17 267.915 1025.7 271.633 1028.88 276.402C1032.07 281.17 1033.77 286.776 1033.76 292.51C1033.77 296.319 1033.02 300.092 1031.57 303.613C1030.11 307.133 1027.98 310.333 1025.29 313.027C1022.59 315.722 1019.4 317.86 1015.88 319.317C1012.36 320.775 1008.59 321.525 1004.78 321.523V321.486Z" fill="url(#paint11_linear_139_7)"/>
<path style="mix-blend-mode:color-dodge" d="M1027.71 294.105C1027.5 299.008 1025.57 303.679 1022.26 307.304C1018.95 310.928 1014.47 313.275 1009.61 313.933V324.365C1017.24 323.676 1024.34 320.216 1029.59 314.64C1034.84 309.063 1037.86 301.758 1038.08 294.105H1027.71Z" fill="url(#paint12_linear_139_7)"/>
<path style="mix-blend-mode:color-dodge" d="M999.28 328.116C991.055 326.839 983.526 322.754 977.974 316.553C972.421 310.353 969.187 302.421 968.822 294.105H951C951.381 307.148 956.487 319.608 965.368 329.168C974.25 338.728 986.301 344.736 999.28 346.075V328.116Z" fill="url(#paint13_linear_139_7)"/>
<path style="mix-blend-mode:color-dodge" d="M999.28 239.008C986.891 240.286 975.327 245.822 966.562 254.671C957.797 263.521 952.372 275.136 951.212 287.538H969.133C970.207 279.883 973.718 272.777 979.145 267.273C984.573 261.77 991.629 258.16 999.268 256.979L999.28 239.008Z" fill="url(#paint14_linear_139_7)"/>
<path style="mix-blend-mode:color-dodge" d="M1012.44 345.152C1024.83 343.874 1036.39 338.339 1045.16 329.489C1053.92 320.64 1059.35 309.024 1060.51 296.623H1042.58C1041.5 304.278 1037.99 311.383 1032.56 316.887C1027.14 322.391 1020.08 326 1012.44 327.181V345.152Z" fill="url(#paint15_linear_139_7)"/>
<path style="mix-blend-mode:color-dodge" d="M1011.51 225V247.246C1021.15 248.557 1030.11 252.983 1037.01 259.851C1043.91 266.719 1048.38 275.653 1049.74 285.294H1072C1070.54 269.762 1063.7 255.229 1052.65 244.216C1041.6 233.203 1027.04 226.405 1011.51 225Z" fill="url(#paint16_linear_139_7)"/>
<path style="mix-blend-mode:color-dodge" d="M1004.78 249.202C996.203 249.202 987.823 251.744 980.695 256.507C973.566 261.27 968.011 268.04 964.73 275.96C961.449 283.88 960.591 292.595 962.264 301.003C963.936 309.412 968.064 317.135 974.126 323.197C980.188 329.259 987.911 333.387 996.32 335.06C1004.73 336.732 1013.44 335.874 1021.36 332.593C1029.28 329.312 1036.05 323.757 1040.82 316.629C1045.58 309.5 1048.12 301.12 1048.12 292.547C1048.12 286.855 1047 281.219 1044.82 275.96C1042.64 270.701 1039.45 265.923 1035.43 261.898C1031.4 257.873 1026.62 254.68 1021.36 252.502C1016.1 250.323 1010.47 249.202 1004.78 249.202ZM1004.78 321.486C999.042 321.486 993.437 319.785 988.67 316.599C983.902 313.414 980.187 308.885 977.993 303.588C975.799 298.29 975.226 292.461 976.346 286.838C977.465 281.214 980.227 276.049 984.283 271.995C988.338 267.942 993.504 265.182 999.128 264.065C1004.75 262.948 1010.58 263.523 1015.88 265.719C1021.17 267.915 1025.7 271.633 1028.88 276.402C1032.07 281.17 1033.77 286.776 1033.76 292.51C1033.77 296.319 1033.02 300.092 1031.57 303.613C1030.11 307.133 1027.98 310.333 1025.29 313.027C1022.59 315.722 1019.4 317.86 1015.88 319.317C1012.36 320.775 1008.59 321.525 1004.78 321.523V321.486Z" fill="url(#paint17_linear_139_7)"/>
<path style="mix-blend-mode:color-dodge" d="M1027.71 294.105C1027.5 299.008 1025.57 303.679 1022.26 307.304C1018.95 310.928 1014.47 313.275 1009.61 313.933V324.365C1017.24 323.676 1024.34 320.216 1029.59 314.64C1034.84 309.063 1037.86 301.758 1038.08 294.105H1027.71Z" fill="url(#paint18_linear_139_7)"/>
<path style="mix-blend-mode:color-dodge" d="M1001.46 259.746C993.734 260.554 986.524 264.012 981.056 269.532C975.588 275.053 972.199 282.295 971.464 290.03H982.68C983.348 285.252 985.538 280.817 988.926 277.382C992.313 273.947 996.718 271.696 1001.49 270.962L1001.46 259.746Z" fill="url(#paint19_linear_139_7)"/>
<path style="mix-blend-mode:color-dodge" d="M1011.51 225V247.246C1021.15 248.557 1030.11 252.983 1037.01 259.851C1043.91 266.719 1048.38 275.653 1049.74 285.294H1072C1070.54 269.762 1063.7 255.229 1052.65 244.216C1041.6 233.203 1027.04 226.405 1011.51 225Z" fill="url(#paint20_linear_139_7)"/>
</g>
<circle cx="1005" cy="292" r="27" fill="url(#paint21_linear_139_7)"/>
<path d="M1025.23 266.243C1026.09 265.437 1027.24 264.991 1028.43 265C1029.63 265.009 1030.77 265.472 1031.62 266.291C1032.47 267.11 1032.97 268.221 1033 269.39C1033.03 270.559 1032.6 271.694 1031.79 272.557L1007.32 302.559C1006.9 303.003 1006.39 303.36 1005.82 303.607C1005.26 303.855 1004.65 303.988 1004.03 303.999C1003.41 304.01 1002.8 303.899 1002.23 303.672C1001.65 303.446 1001.13 303.108 1000.69 302.679L984.464 286.77C984.012 286.357 983.65 285.859 983.398 285.306C983.147 284.753 983.012 284.156 983.001 283.55C982.99 282.945 983.103 282.344 983.335 281.782C983.566 281.221 983.911 280.711 984.347 280.282C984.784 279.854 985.305 279.517 985.877 279.29C986.45 279.063 987.064 278.952 987.681 278.962C988.299 278.973 988.908 279.105 989.472 279.352C990.037 279.598 990.545 279.954 990.966 280.397L1003.81 292.981L1025.11 266.376C1025.15 266.329 1025.19 266.285 1025.23 266.243H1025.23Z" fill="#16171B"/>
<g opacity="0.7">
<path style="mix-blend-mode:color-dodge" d="M334.776 425.202C326.203 425.202 317.823 427.744 310.695 432.507C303.567 437.27 298.011 444.04 294.731 451.96C291.45 459.88 290.592 468.595 292.264 477.003C293.937 485.412 298.065 493.135 304.127 499.197C310.189 505.259 317.912 509.387 326.32 511.06C334.728 512.732 343.443 511.874 351.364 508.593C359.284 505.312 366.054 499.757 370.816 492.629C375.579 485.5 378.121 477.12 378.121 468.547C378.121 462.855 377 457.219 374.822 451.96C372.644 446.701 369.451 441.923 365.426 437.898C361.401 433.873 356.623 430.68 351.364 428.502C346.105 426.323 340.468 425.202 334.776 425.202ZM334.776 497.486C329.042 497.486 323.437 495.785 318.67 492.599C313.903 489.414 310.187 484.885 307.994 479.588C305.8 474.29 305.227 468.461 306.346 462.838C307.466 457.214 310.228 452.049 314.283 447.995C318.338 443.942 323.505 441.182 329.129 440.065C334.753 438.948 340.582 439.523 345.878 441.719C351.175 443.915 355.701 447.633 358.885 452.402C362.069 457.17 363.767 462.776 363.764 468.51C363.769 472.319 363.023 476.092 361.568 479.613C360.114 483.133 357.979 486.333 355.286 489.027C352.594 491.722 349.397 493.86 345.877 495.317C342.358 496.775 338.586 497.525 334.776 497.523V497.486Z" fill="url(#paint22_linear_139_7)"/>
<path style="mix-blend-mode:color-dodge" d="M357.708 470.105C357.495 475.008 355.566 479.679 352.258 483.304C348.951 486.928 344.474 489.275 339.612 489.933V500.365C347.236 499.676 354.344 496.216 359.59 490.64C364.835 485.063 367.855 477.758 368.077 470.105H357.708Z" fill="url(#paint23_linear_139_7)"/>
<path style="mix-blend-mode:color-dodge" d="M329.28 504.116C321.055 502.839 313.526 498.754 307.974 492.553C302.421 486.353 299.187 478.421 298.822 470.105H281C281.381 483.148 286.487 495.608 295.368 505.168C304.25 514.728 316.301 520.736 329.28 522.075V504.116Z" fill="url(#paint24_linear_139_7)"/>
<path style="mix-blend-mode:color-dodge" d="M329.28 415.008C316.891 416.286 305.327 421.822 296.562 430.671C287.797 439.521 282.372 451.136 281.212 463.538H299.133C300.207 455.883 303.718 448.777 309.145 443.273C314.573 437.77 321.629 434.16 329.268 432.979L329.28 415.008Z" fill="url(#paint25_linear_139_7)"/>
<path style="mix-blend-mode:color-dodge" d="M342.441 521.152C354.831 519.874 366.394 514.339 375.159 505.489C383.925 496.64 389.349 485.024 390.509 472.623H372.576C371.502 480.278 367.991 487.383 362.563 492.887C357.136 498.391 350.08 502 342.441 503.181V521.152Z" fill="url(#paint26_linear_139_7)"/>
<path style="mix-blend-mode:color-dodge" d="M341.506 401V423.246C351.154 424.557 360.11 428.983 367.012 435.851C373.913 442.719 378.383 451.653 379.742 461.294H402C400.544 445.762 393.698 431.229 382.648 420.216C371.599 409.203 357.043 402.405 341.506 401Z" fill="url(#paint27_linear_139_7)"/>
<path style="mix-blend-mode:color-dodge" d="M334.776 425.202C326.203 425.202 317.823 427.744 310.695 432.507C303.567 437.27 298.011 444.04 294.731 451.96C291.45 459.88 290.592 468.595 292.264 477.003C293.937 485.412 298.065 493.135 304.127 499.197C310.189 505.259 317.912 509.387 326.32 511.06C334.728 512.732 343.443 511.874 351.364 508.593C359.284 505.312 366.054 499.757 370.816 492.629C375.579 485.5 378.121 477.12 378.121 468.547C378.121 462.855 377 457.219 374.822 451.96C372.644 446.701 369.451 441.923 365.426 437.898C361.401 433.873 356.623 430.68 351.364 428.502C346.105 426.323 340.468 425.202 334.776 425.202ZM334.776 497.486C329.042 497.486 323.437 495.785 318.67 492.599C313.903 489.414 310.187 484.885 307.994 479.588C305.8 474.29 305.227 468.461 306.346 462.838C307.466 457.214 310.228 452.049 314.283 447.995C318.338 443.942 323.505 441.182 329.129 440.065C334.753 438.948 340.582 439.523 345.878 441.719C351.175 443.915 355.701 447.633 358.885 452.402C362.069 457.17 363.767 462.776 363.764 468.51C363.769 472.319 363.023 476.092 361.568 479.613C360.114 483.133 357.979 486.333 355.286 489.027C352.594 491.722 349.397 493.86 345.877 495.317C342.358 496.775 338.586 497.525 334.776 497.523V497.486Z" fill="url(#paint28_linear_139_7)"/>
<path style="mix-blend-mode:color-dodge" d="M357.708 470.105C357.495 475.008 355.566 479.679 352.258 483.304C348.951 486.928 344.474 489.275 339.612 489.933V500.365C347.236 499.676 354.344 496.216 359.59 490.64C364.835 485.063 367.855 477.758 368.077 470.105H357.708Z" fill="url(#paint29_linear_139_7)"/>
<path style="mix-blend-mode:color-dodge" d="M331.461 435.746C323.733 436.554 316.523 440.012 311.055 445.532C305.587 451.053 302.198 458.295 301.463 466.03H312.68C313.347 461.252 315.537 456.817 318.925 453.382C322.313 449.947 326.718 447.696 331.486 446.962L331.461 435.746Z" fill="url(#paint30_linear_139_7)"/>
<path style="mix-blend-mode:color-dodge" d="M341.506 401V423.246C351.154 424.557 360.11 428.983 367.012 435.851C373.913 442.719 378.383 451.653 379.742 461.294H402C400.544 445.762 393.698 431.229 382.648 420.216C371.599 409.203 357.043 402.405 341.506 401Z" fill="url(#paint31_linear_139_7)"/>
</g>
<circle cx="335" cy="468" r="27" fill="url(#paint32_linear_139_7)"/>
<path d="M355.228 442.243C356.092 441.437 357.242 440.991 358.435 441C359.628 441.009 360.77 441.472 361.622 442.291C362.473 443.11 362.967 444.221 362.998 445.39C363.03 446.559 362.597 447.694 361.791 448.557L337.318 478.559C336.897 479.003 336.389 479.36 335.825 479.607C335.26 479.855 334.65 479.988 334.032 479.999C333.413 480.01 332.799 479.899 332.225 479.672C331.652 479.446 331.131 479.108 330.694 478.679L314.464 462.77C314.012 462.357 313.65 461.859 313.398 461.306C313.147 460.753 313.012 460.156 313.001 459.55C312.99 458.945 313.103 458.344 313.335 457.782C313.566 457.221 313.911 456.711 314.347 456.282C314.784 455.854 315.305 455.517 315.877 455.29C316.45 455.063 317.064 454.952 317.681 454.962C318.299 454.973 318.908 455.105 319.472 455.352C320.037 455.598 320.545 455.954 320.966 456.397L333.809 468.981L355.111 442.376C355.15 442.329 355.191 442.285 355.234 442.243H355.228Z" fill="#16171B"/>
<defs>
<filter id="filter0_d_139_7" x="116.831" y="96.1453" width="914.007" height="1278.7" filterUnits="userSpaceOnUse" color-interpolation-filters="sRGB">
<feFlood flood-opacity="0" result="BackgroundImageFix"/>
<feColorMatrix in="SourceAlpha" type="matrix" values="0 0 0 0 0 0 0 0 0 0 0 0 0 0 0 0 0 0 127 0" result="hardAlpha"/>
<feOffset dy="4"/>
<feGaussianBlur stdDeviation="7.5"/>
<feComposite in2="hardAlpha" operator="out"/>
<feColorMatrix type="matrix" values="0 0 0 0 0 0 0 0 0 0.6 0 0 0 0 0.282353 0 0 0 0.53 0"/>
<feBlend mode="normal" in2="BackgroundImageFix" result="effect1_dropShadow_139_7"/>
<feBlend mode="normal" in="SourceGraphic" in2="effect1_dropShadow_139_7" result="shape"/>
</filter>
<linearGradient id="paint0_linear_139_7" x1="126.438" y1="-3.41971" x2="113.763" y2="181.962" gradientUnits="userSpaceOnUse">
<stop stop-opacity="0"/>
<stop offset="1" stop-color="white"/>
</linearGradient>
<linearGradient id="paint1_linear_139_7" x1="197.375" y1="124.285" x2="63.5011" y2="115.138" gradientUnits="userSpaceOnUse">
<stop stop-opacity="0"/>
<stop offset="1" stop-color="white"/>
</linearGradient>
<linearGradient id="paint2_linear_139_7" x1="249.98" y1="141.459" x2="19.7822" y2="125.719" gradientUnits="userSpaceOnUse">
<stop stop-opacity="0"/>
<stop offset="1" stop-color="white"/>
</linearGradient>
<linearGradient id="paint3_linear_139_7" x1="253.806" y1="85.5017" x2="23.5958" y2="69.7738" gradientUnits="userSpaceOnUse">
<stop stop-opacity="0"/>
<stop offset="1" stop-color="white"/>
</linearGradient>
<linearGradient id="paint4_linear_139_7" x1="-13.3809" y1="120.659" x2="216.829" y2="136.399" gradientUnits="userSpaceOnUse">
<stop stop-opacity="0"/>
<stop offset="1" stop-color="white"/>
</linearGradient>
<linearGradient id="paint5_linear_139_7" x1="287.306" y1="75.8805" x2="1.63673" y2="56.364" gradientUnits="userSpaceOnUse">
<stop stop-opacity="0"/>
<stop offset="1" stop-color="white"/>
</linearGradient>
<linearGradient id="paint6_linear_139_7" x1="126.438" y1="-3.41971" x2="113.763" y2="181.962" gradientUnits="userSpaceOnUse">
<stop stop-opacity="0"/>
<stop offset="1" stop-color="white"/>
</linearGradient>
<linearGradient id="paint7_linear_139_7" x1="197.375" y1="124.285" x2="63.5011" y2="115.138" gradientUnits="userSpaceOnUse">
<stop stop-opacity="0"/>
<stop offset="1" stop-color="white"/>
</linearGradient>
<linearGradient id="paint8_linear_139_7" x1="203.282" y1="92.9045" x2="59.6375" y2="83.0839" gradientUnits="userSpaceOnUse">
<stop stop-opacity="0"/>
<stop offset="1" stop-color="white"/>
</linearGradient>
<linearGradient id="paint9_linear_139_7" x1="287.306" y1="75.8805" x2="1.63673" y2="56.364" gradientUnits="userSpaceOnUse">
<stop stop-opacity="0"/>
<stop offset="1" stop-color="white"/>
</linearGradient>
<linearGradient id="paint10_linear_139_7" x1="119.346" y1="76" x2="119.346" y2="130" gradientUnits="userSpaceOnUse">
<stop stop-color="white"/>
<stop offset="1" stop-color="#EAEAEA"/>
</linearGradient>
<linearGradient id="paint11_linear_139_7" x1="1012.09" y1="185.58" x2="999.417" y2="370.962" gradientUnits="userSpaceOnUse">
<stop stop-opacity="0"/>
<stop offset="1" stop-color="white"/>
</linearGradient>
<linearGradient id="paint12_linear_139_7" x1="1083.03" y1="313.285" x2="949.156" y2="304.138" gradientUnits="userSpaceOnUse">
<stop stop-opacity="0"/>
<stop offset="1" stop-color="white"/>
</linearGradient>
<linearGradient id="paint13_linear_139_7" x1="1135.63" y1="330.459" x2="905.437" y2="314.719" gradientUnits="userSpaceOnUse">
<stop stop-opacity="0"/>
<stop offset="1" stop-color="white"/>
</linearGradient>
<linearGradient id="paint14_linear_139_7" x1="1139.46" y1="274.502" x2="909.25" y2="258.774" gradientUnits="userSpaceOnUse">
<stop stop-opacity="0"/>
<stop offset="1" stop-color="white"/>
</linearGradient>
<linearGradient id="paint15_linear_139_7" x1="872.274" y1="309.659" x2="1102.48" y2="325.399" gradientUnits="userSpaceOnUse">
<stop stop-opacity="0"/>
<stop offset="1" stop-color="white"/>
</linearGradient>
<linearGradient id="paint16_linear_139_7" x1="1172.96" y1="264.88" x2="887.291" y2="245.364" gradientUnits="userSpaceOnUse">
<stop stop-opacity="0"/>
<stop offset="1" stop-color="white"/>
</linearGradient>
<linearGradient id="paint17_linear_139_7" x1="1012.09" y1="185.58" x2="999.417" y2="370.962" gradientUnits="userSpaceOnUse">
<stop stop-opacity="0"/>
<stop offset="1" stop-color="white"/>
</linearGradient>
<linearGradient id="paint18_linear_139_7" x1="1083.03" y1="313.285" x2="949.156" y2="304.138" gradientUnits="userSpaceOnUse">
<stop stop-opacity="0"/>
<stop offset="1" stop-color="white"/>
</linearGradient>
<linearGradient id="paint19_linear_139_7" x1="1088.94" y1="281.904" x2="945.292" y2="272.084" gradientUnits="userSpaceOnUse">
<stop stop-opacity="0"/>
<stop offset="1" stop-color="white"/>
</linearGradient>
<linearGradient id="paint20_linear_139_7" x1="1172.96" y1="264.88" x2="887.291" y2="245.364" gradientUnits="userSpaceOnUse">
<stop stop-opacity="0"/>
<stop offset="1" stop-color="white"/>
</linearGradient>
<linearGradient id="paint21_linear_139_7" x1="1005" y1="265" x2="1005" y2="319" gradientUnits="userSpaceOnUse">
<stop stop-color="white"/>
<stop offset="1" stop-color="#EAEAEA"/>
</linearGradient>
<linearGradient id="paint22_linear_139_7" x1="342.092" y1="361.58" x2="329.417" y2="546.962" gradientUnits="userSpaceOnUse">
<stop stop-opacity="0"/>
<stop offset="1" stop-color="white"/>
</linearGradient>
<linearGradient id="paint23_linear_139_7" x1="413.029" y1="489.285" x2="279.155" y2="480.138" gradientUnits="userSpaceOnUse">
<stop stop-opacity="0"/>
<stop offset="1" stop-color="white"/>
</linearGradient>
<linearGradient id="paint24_linear_139_7" x1="465.634" y1="506.459" x2="235.437" y2="490.719" gradientUnits="userSpaceOnUse">
<stop stop-opacity="0"/>
<stop offset="1" stop-color="white"/>
</linearGradient>
<linearGradient id="paint25_linear_139_7" x1="469.46" y1="450.502" x2="239.25" y2="434.774" gradientUnits="userSpaceOnUse">
<stop stop-opacity="0"/>
<stop offset="1" stop-color="white"/>
</linearGradient>
<linearGradient id="paint26_linear_139_7" x1="202.273" y1="485.659" x2="432.484" y2="501.399" gradientUnits="userSpaceOnUse">
<stop stop-opacity="0"/>
<stop offset="1" stop-color="white"/>
</linearGradient>
<linearGradient id="paint27_linear_139_7" x1="502.96" y1="440.88" x2="217.291" y2="421.364" gradientUnits="userSpaceOnUse">
<stop stop-opacity="0"/>
<stop offset="1" stop-color="white"/>
</linearGradient>
<linearGradient id="paint28_linear_139_7" x1="342.092" y1="361.58" x2="329.417" y2="546.962" gradientUnits="userSpaceOnUse">
<stop stop-opacity="0"/>
<stop offset="1" stop-color="white"/>
</linearGradient>
<linearGradient id="paint29_linear_139_7" x1="413.029" y1="489.285" x2="279.155" y2="480.138" gradientUnits="userSpaceOnUse">
<stop stop-opacity="0"/>
<stop offset="1" stop-color="white"/>
</linearGradient>
<linearGradient id="paint30_linear_139_7" x1="418.936" y1="457.904" x2="275.292" y2="448.084" gradientUnits="userSpaceOnUse">
<stop stop-opacity="0"/>
<stop offset="1" stop-color="white"/>
</linearGradient>
<linearGradient id="paint31_linear_139_7" x1="502.96" y1="440.88" x2="217.291" y2="421.364" gradientUnits="userSpaceOnUse">
<stop stop-opacity="0"/>
<stop offset="1" stop-color="white"/>
</linearGradient>
<linearGradient id="paint32_linear_139_7" x1="335" y1="441" x2="335" y2="495" gradientUnits="userSpaceOnUse">
<stop stop-color="white"/>
<stop offset="1" stop-color="#EAEAEA"/>
</linearGradient>
</defs>
</svg>
