<svg width="655" height="786" viewBox="0 0 655 786" fill="none" xmlns="http://www.w3.org/2000/svg">
<mask id="mask0_139_8" style="mask-type:alpha" maskUnits="userSpaceOnUse" x="0" y="531" width="328" height="251">
<rect y="531" width="328" height="251" fill="#C4C4C4"/>
</mask>
<g mask="url(#mask0_139_8)">
<g filter="url(#filter0_d_139_8)">
<path d="M735.345 -346.305L732.934 -345.787L735.345 -346.305ZM48.3454 -122.131L45.8598 -122.428L48.3454 -122.131ZM516.845 344.294L514.371 343.88L516.845 344.294ZM-145.155 -513.35C-145.17 -510.846 -145.17 -510.846 -145.17 -510.846C-145.169 -510.846 -145.169 -510.846 -145.169 -510.846C-145.169 -510.846 -145.169 -510.846 -145.169 -510.846C-145.169 -510.846 -145.168 -510.846 -145.167 -510.846C-145.166 -510.846 -145.163 -510.845 -145.16 -510.845C-145.153 -510.845 -145.144 -510.844 -145.13 -510.844C-145.104 -510.842 -145.065 -510.84 -145.012 -510.837C-144.907 -510.832 -144.75 -510.823 -144.542 -510.812C-144.124 -510.789 -143.501 -510.754 -142.678 -510.708C-141.033 -510.616 -138.591 -510.478 -135.405 -510.292L-135.352 -515.299C-138.542 -515.486 -140.988 -515.624 -142.637 -515.717C-143.462 -515.763 -144.087 -515.797 -144.506 -515.82C-144.716 -515.832 -144.874 -515.84 -144.98 -515.846C-145.033 -515.849 -145.073 -515.851 -145.099 -515.853C-145.113 -515.853 -145.123 -515.854 -145.129 -515.854C-145.133 -515.854 -145.135 -515.855 -145.137 -515.855C-145.138 -515.855 -145.139 -515.855 -145.139 -515.855C-145.139 -515.855 -145.139 -515.855 -145.139 -515.855C-145.14 -515.855 -145.14 -515.855 -145.14 -515.855C-145.14 -515.855 -145.14 -515.855 -145.155 -513.35ZM-116.195 -509.129C-110.394 -508.767 -103.797 -508.346 -96.4731 -507.866L-96.384 -512.871C-103.713 -513.352 -110.315 -513.773 -116.121 -514.135L-116.195 -509.129ZM-76.8253 -506.549C-70.6114 -506.123 -64.038 -505.665 -57.1322 -505.174L-57.0158 -510.178C-63.9261 -510.669 -70.5039 -511.127 -76.7221 -511.553L-76.8253 -506.549ZM-37.2852 -503.736C-30.9692 -503.271 -24.4349 -502.781 -17.6985 -502.267L-17.5565 -507.269C-24.2972 -507.783 -30.8357 -508.273 -37.1558 -508.739L-37.2852 -503.736ZM1.85026 -500.751C8.31929 -500.242 14.9432 -499.712 21.7098 -499.161L21.877 -504.161C15.1061 -504.712 8.4779 -505.242 2.00475 -505.752L1.85026 -500.751ZM41.1913 -497.551C47.6513 -497.009 54.222 -496.449 60.894 -495.872L61.0868 -500.87C54.4104 -501.447 47.8353 -502.007 41.3711 -502.55L41.1913 -497.551ZM80.545 -494.146C87.0029 -493.57 93.5423 -492.978 100.155 -492.37L100.375 -497.365C93.7571 -497.973 87.2132 -498.566 80.751 -499.142L80.545 -494.146ZM119.862 -490.531C126.328 -489.918 132.854 -489.291 139.434 -488.649L139.682 -493.641C133.097 -494.284 126.566 -494.912 120.095 -495.525L119.862 -490.531ZM159.139 -486.695C165.621 -486.043 172.147 -485.377 178.709 -484.696L178.987 -489.685C172.419 -490.367 165.889 -491.034 159.402 -491.686L159.139 -486.695ZM198.388 -482.623C204.888 -481.927 211.418 -481.218 217.971 -480.495L218.281 -485.481C211.722 -486.205 205.187 -486.915 198.682 -487.611L198.388 -482.623ZM237.616 -478.292C244.133 -477.55 250.668 -476.793 257.214 -476.023L257.56 -481.005C251.008 -481.776 244.467 -482.533 237.944 -483.276L237.616 -478.292ZM276.826 -473.678C283.358 -472.884 289.895 -472.076 296.432 -471.254L296.818 -476.231C290.274 -477.054 283.73 -477.863 277.192 -478.657L276.826 -473.678ZM316.017 -468.749C322.559 -467.897 329.095 -467.032 335.619 -466.152L336.05 -471.124C329.518 -472.004 322.975 -472.871 316.425 -473.723L316.017 -468.749ZM355.183 -463.466C361.731 -462.55 368.26 -461.62 374.766 -460.675L375.248 -465.639C368.733 -466.586 362.194 -467.517 355.638 -468.434L355.183 -463.466ZM394.31 -457.781C400.862 -456.791 407.383 -455.786 413.866 -454.766L414.407 -459.721C407.913 -460.743 401.382 -461.75 394.82 -462.741L394.31 -457.781ZM433.383 -451.63C439.94 -450.553 446.451 -449.46 452.91 -448.351L453.52 -453.295C447.049 -454.406 440.526 -455.501 433.957 -456.579L433.383 -451.63ZM472.378 -444.929C478.945 -443.747 485.449 -442.548 491.882 -441.33L492.577 -446.259C486.128 -447.479 479.61 -448.681 473.028 -449.866L472.378 -444.929ZM511.252 -437.567C517.841 -436.253 524.343 -434.919 530.75 -433.565L531.551 -438.472C525.124 -439.83 518.603 -441.168 511.997 -442.486L511.252 -437.567ZM549.931 -429.388C556.554 -427.9 563.06 -426.39 569.437 -424.857L570.375 -429.733C563.972 -431.272 557.442 -432.788 550.795 -434.281L549.931 -429.388ZM588.55 -420.092C595.118 -418.392 601.524 -416.667 607.756 -414.914L608.884 -419.741C602.615 -421.504 596.174 -423.239 589.575 -424.947L588.55 -420.092ZM626.89 -409.276C633.369 -407.273 639.616 -405.237 645.614 -403.169L647.027 -407.907C640.972 -409.995 634.672 -412.048 628.145 -414.066L626.89 -409.276ZM664.189 -396.34C670.723 -393.77 676.865 -391.155 682.588 -388.494L684.498 -393.031C678.668 -395.742 672.427 -398.398 665.81 -401.001L664.189 -396.34ZM700.218 -379.37C706.436 -375.749 711.849 -372.067 716.408 -368.326L719.446 -372.153C714.62 -376.113 708.962 -379.953 702.559 -383.682L700.218 -379.37ZM729.298 -354.196C731.002 -351.4 732.213 -348.599 732.934 -345.787L737.757 -346.823C736.892 -350.194 735.458 -353.478 733.512 -356.67L729.298 -354.196ZM732.934 -345.787C733.778 -342.498 734.027 -339.395 733.741 -336.454L738.701 -335.732C739.048 -339.3 738.737 -342.998 737.757 -346.823L732.934 -345.787ZM725.848 -320.264C722.082 -316.204 717.016 -312.373 710.722 -308.757L713.344 -304.372C719.914 -308.146 725.391 -312.25 729.565 -316.749L725.848 -320.264ZM693.125 -300.415C687.416 -298.139 681.182 -295.974 674.467 -293.908L676.128 -289.105C682.942 -291.201 689.299 -293.408 695.148 -295.739L693.125 -300.415ZM655.303 -288.588C649.092 -287.024 642.589 -285.522 635.82 -284.073L637.075 -279.164C643.892 -280.623 650.452 -282.138 656.725 -283.718L655.303 -288.588ZM616.096 -280.134C609.727 -278.943 603.173 -277.789 596.453 -276.666L597.494 -271.716C604.241 -272.844 610.825 -274.003 617.228 -275.2L616.096 -280.134ZM576.723 -273.524C570.207 -272.533 563.564 -271.565 556.808 -270.615L557.725 -265.647C564.497 -266.599 571.158 -267.569 577.694 -268.563L576.723 -273.524ZM536.851 -267.902C530.318 -267.04 523.699 -266.192 517.005 -265.353L517.851 -260.375C524.553 -261.215 531.182 -262.065 537.727 -262.927L536.851 -267.902ZM497.006 -262.896C490.401 -262.098 483.738 -261.307 477.028 -260.518L477.836 -255.535C484.55 -256.325 491.218 -257.117 497.829 -257.915L497.006 -262.896ZM457.074 -258.19C450.429 -257.419 443.75 -256.648 437.046 -255.873L437.845 -250.889C444.548 -251.664 451.228 -252.435 457.875 -253.206L457.074 -258.19ZM417.081 -253.559C410.424 -252.783 403.755 -252.002 397.082 -251.211L397.894 -246.229C404.563 -247.019 411.229 -247.8 417.884 -248.575L417.081 -253.559ZM377.106 -248.814C370.433 -248.001 363.766 -247.177 357.117 -246.337L357.966 -241.36C364.608 -242.198 371.267 -243.022 377.934 -243.833L377.106 -248.814ZM337.169 -243.763C330.49 -242.881 323.839 -241.981 317.227 -241.059L318.138 -236.09C324.738 -237.01 331.377 -237.908 338.045 -238.789L337.169 -243.763ZM297.282 -238.195C290.627 -237.208 284.022 -236.197 277.479 -235.157L278.481 -230.201C285.007 -231.238 291.595 -232.247 298.235 -233.231L297.282 -238.195ZM257.561 -231.866C250.876 -230.717 244.271 -229.533 237.757 -228.312L238.892 -223.379C245.38 -224.595 251.962 -225.775 258.624 -226.92L257.561 -231.866ZM218.166 -224.461C211.459 -223.077 204.869 -221.647 198.412 -220.165L199.736 -215.272C206.156 -216.745 212.711 -218.168 219.386 -219.544L218.166 -224.461ZM178.857 -215.409C172.254 -213.704 165.819 -211.935 159.571 -210.097L161.176 -205.276C167.368 -207.099 173.751 -208.853 180.308 -210.546L178.857 -215.409ZM140.544 -204.073C133.969 -201.83 127.654 -199.49 121.627 -197.046L123.675 -192.381C129.611 -194.788 135.841 -197.096 142.341 -199.314L140.544 -204.073ZM103.26 -188.813C96.979 -185.688 91.122 -182.404 85.7354 -178.95L88.5526 -174.683C93.778 -178.034 99.4851 -181.235 105.636 -184.296L103.26 -188.813ZM69.6498 -166.84C64.3655 -162.098 59.8566 -157.059 56.2232 -151.695L60.3832 -148.738C63.7717 -153.74 68.0167 -158.498 73.0634 -163.027L69.6498 -166.84ZM47.5724 -132.874C46.6907 -129.492 46.1153 -126.011 45.8598 -122.428L50.831 -121.834C51.0648 -125.114 51.5911 -128.297 52.3972 -131.389L47.5724 -132.874ZM45.8598 -122.428C45.604 -118.841 45.5921 -115.307 45.8145 -111.822L50.788 -111.907C50.5803 -115.162 50.591 -118.469 50.831 -121.834L45.8598 -122.428ZM50.0136 -91.1173C52.2837 -84.5514 55.3987 -78.1938 59.2598 -72.019L63.4424 -74.5444C59.7712 -80.4156 56.8391 -86.4127 54.7126 -92.5631L50.0136 -91.1173ZM72.038 -55.0754C76.544 -49.9785 81.5505 -44.9948 86.997 -40.1059L90.2148 -43.779C84.8991 -48.5504 80.0419 -53.3884 75.6914 -58.3094L72.038 -55.0754ZM103.24 -26.7322C108.622 -22.6345 114.299 -18.5903 120.234 -14.5885L122.87 -18.7149C117.008 -22.6677 111.416 -26.6525 106.125 -30.6804L103.24 -26.7322ZM137.771 -3.31369C143.543 0.238728 149.501 3.7674 155.617 7.28052L157.93 2.95259C151.854 -0.537826 145.943 -4.03916 140.221 -7.55986L137.771 -3.31369ZM173.695 17.3904C179.668 20.6505 185.757 23.9048 191.943 27.16L194.085 22.738C187.919 19.493 181.853 16.2514 175.908 13.0063L173.695 17.3904ZM210.309 36.7005C216.391 39.8254 222.543 42.9576 228.745 46.1028L230.817 41.6443C224.619 38.5015 218.476 35.3738 212.405 32.2547L210.309 36.7005ZM247.208 55.4429C253.33 58.5377 259.483 61.6501 265.65 64.7865L267.727 60.3308C261.554 57.1913 255.397 54.0764 249.274 50.9814L247.208 55.4429ZM284.019 74.1908C290.131 77.3454 296.24 80.5282 302.33 83.7446L304.479 79.3264C298.372 76.1008 292.248 72.9102 286.124 69.7494L284.019 74.1908ZM320.534 93.5057C326.591 96.8075 332.612 100.148 338.579 103.533L340.867 99.1912C334.871 95.7897 328.824 92.4345 322.744 89.1202L320.534 93.5057ZM356.411 113.891C362.366 117.437 368.248 121.035 374.039 124.69L376.54 120.475C370.707 116.794 364.786 113.172 358.796 109.605L356.411 113.891ZM391.351 135.985C397.108 139.875 402.75 143.831 408.257 147.86L411.06 143.85C405.495 139.78 399.799 135.785 393.991 131.861L391.351 135.985ZM424.65 160.405C430.074 164.757 435.331 169.194 440.398 173.721L443.606 170.04C438.464 165.445 433.134 160.947 427.642 156.54L424.65 160.405ZM455.334 187.913C460.214 192.859 464.86 197.912 469.25 203.079L472.973 199.925C468.491 194.65 463.754 189.499 458.788 184.465L455.334 187.913ZM481.888 219.302C485.883 224.931 489.572 230.692 492.93 236.594L497.227 234.26C493.776 228.194 489.989 222.283 485.897 216.516L481.888 219.302ZM502.046 254.882C504.718 261.101 507.029 267.473 508.952 274.008L513.725 272.796C511.742 266.055 509.359 259.485 506.606 253.078L502.046 254.882ZM513.463 293.719C514.538 300.223 515.241 306.885 515.547 313.714L520.525 313.725C520.211 306.696 519.487 299.832 518.379 293.125L513.463 293.719ZM515.316 333.718C515.094 337.066 514.78 340.453 514.371 343.88L519.32 344.709C519.739 341.197 520.061 337.723 520.289 334.287L515.316 333.718ZM514.371 343.88C513.969 347.248 513.506 350.594 512.985 353.916L517.909 354.926C518.44 351.544 518.91 348.138 519.32 344.709L514.371 343.88ZM509.145 373.649C507.624 380.193 505.873 386.644 503.908 393.003L508.674 394.696C510.672 388.23 512.453 381.667 514.001 375.009L509.145 373.649ZM497.343 411.906C494.941 418.126 492.336 424.253 489.54 430.287L494.075 432.581C496.913 426.455 499.56 420.232 502 413.912L497.343 411.906ZM480.599 448.099C477.445 453.932 474.114 459.673 470.621 465.322L474.887 468.115C478.426 462.391 481.803 456.571 485.003 450.655L480.599 448.099ZM459.701 481.946C455.921 487.378 451.994 492.72 447.934 497.971L451.922 501.166C456.028 495.856 460.001 490.451 463.828 484.952L459.701 481.946ZM435.41 513.403C431.126 518.441 426.723 523.389 422.215 528.248L425.932 531.763C430.484 526.857 434.931 521.858 439.261 516.767L435.41 513.403ZM408.413 542.536C403.717 547.208 398.93 551.792 394.065 556.286L397.529 560.054C402.434 555.522 407.262 550.899 412 546.184L408.413 542.536ZM379.232 569.518C374.204 573.852 369.111 578.097 363.967 582.251L367.196 586.221C372.378 582.037 377.509 577.761 382.576 573.393L379.232 569.518ZM348.317 594.503C343.013 598.532 337.669 602.467 332.301 606.311L335.316 610.445C340.718 606.577 346.096 602.615 351.437 598.559L348.317 594.503ZM315.953 617.693C310.412 621.444 304.86 625.099 299.312 628.657L302.13 632.924C307.708 629.346 313.293 625.67 318.867 621.896L315.953 617.693ZM282.407 639.22C276.664 642.716 270.942 646.108 265.26 649.396L267.895 653.774C273.606 650.47 279.357 647.06 285.131 643.545L282.407 639.22ZM247.89 659.199C241.96 662.464 236.093 665.611 230.311 668.642L232.775 673.115C238.584 670.07 244.479 666.907 250.438 663.626L247.89 659.199ZM212.531 677.736C206.404 680.795 200.405 683.712 194.56 686.489L196.86 691.044C202.73 688.255 208.757 685.324 214.912 682.251L212.531 677.736ZM176.416 694.9C170.065 697.771 163.961 700.454 158.147 702.949L160.283 707.578C166.124 705.071 172.255 702.376 178.634 699.493L176.416 694.9ZM139.743 710.638C132.873 713.428 126.612 715.881 121.062 717.998L123.018 722.699C128.598 720.571 134.891 718.105 141.793 715.302L139.743 710.638ZM102.394 724.857C99.3492 725.929 96.9934 726.73 95.4013 727.263C94.6052 727.53 94.0002 727.729 93.5954 727.861C93.393 727.928 93.2406 727.977 93.1395 728.01C93.089 728.026 93.0512 728.038 93.0265 728.046C93.0141 728.05 93.0049 728.053 92.999 728.055C92.9961 728.056 92.9939 728.057 92.9926 728.057C92.992 728.057 92.9915 728.057 92.9912 728.057C92.9911 728.057 92.9911 728.057 92.991 728.057C92.991 728.057 92.991 728.057 92.991 728.057C92.9911 728.057 92.9911 728.057 93.8454 730.451C94.6997 732.846 94.6997 732.846 94.6998 732.846C94.6999 732.846 94.7 732.846 94.7001 732.845C94.7002 732.845 94.7005 732.845 94.7007 732.845C94.7013 732.845 94.7021 732.845 94.7031 732.844C94.705 732.844 94.7078 732.843 94.7114 732.842C94.7185 732.84 94.729 732.836 94.7426 732.832C94.77 732.823 94.8103 732.81 94.8635 732.793C94.9697 732.759 95.1273 732.708 95.335 732.64C95.7503 732.504 96.3661 732.301 97.1731 732.031C98.7871 731.491 101.166 730.681 104.235 729.601L102.394 724.857Z" fill="#F5E832"/>
</g>
<path d="M736.348 -349.259L733.937 -348.741L736.348 -349.259ZM49.3341 -125.039L46.8485 -125.336L49.3341 -125.039ZM517.823 341.352L515.349 340.937L517.823 341.352ZM-144.155 -516.243C-144.17 -513.738 -144.17 -513.738 -144.17 -513.738C-144.17 -513.738 -144.17 -513.738 -144.17 -513.738C-144.17 -513.738 -144.169 -513.738 -144.169 -513.738C-144.169 -513.738 -144.168 -513.738 -144.167 -513.738C-144.166 -513.738 -144.163 -513.738 -144.16 -513.738C-144.154 -513.738 -144.144 -513.737 -144.131 -513.736C-144.104 -513.735 -144.065 -513.733 -144.013 -513.73C-143.908 -513.724 -143.75 -513.716 -143.542 -513.704C-143.124 -513.681 -142.501 -513.647 -141.679 -513.601C-140.034 -513.509 -137.592 -513.371 -134.405 -513.185L-134.352 -518.193C-137.542 -518.379 -139.988 -518.517 -141.637 -518.609C-142.462 -518.656 -143.087 -518.69 -143.506 -518.713C-143.716 -518.724 -143.874 -518.733 -143.98 -518.739C-144.033 -518.742 -144.073 -518.744 -144.099 -518.745C-144.113 -518.746 -144.123 -518.746 -144.129 -518.747C-144.133 -518.747 -144.135 -518.747 -144.137 -518.747C-144.138 -518.747 -144.139 -518.747 -144.139 -518.747C-144.139 -518.747 -144.139 -518.747 -144.14 -518.747C-144.14 -518.747 -144.14 -518.747 -144.14 -518.747C-144.14 -518.747 -144.14 -518.747 -144.155 -516.243ZM-115.195 -512.023C-109.394 -511.662 -102.797 -511.242 -95.473 -510.762L-95.3837 -515.767C-102.713 -516.247 -109.315 -516.668 -115.121 -517.03L-115.195 -512.023ZM-75.825 -509.446C-69.6111 -509.021 -63.0376 -508.563 -56.1318 -508.073L-56.0152 -513.076C-62.9255 -513.567 -69.5034 -514.025 -75.7216 -514.45L-75.825 -509.446ZM-36.2846 -506.636C-29.9686 -506.171 -23.4342 -505.682 -16.6978 -505.169L-16.5556 -510.17C-23.2964 -510.684 -29.8349 -511.174 -36.155 -511.639L-36.2846 -506.636ZM2.8511 -503.654C9.32017 -503.145 15.9442 -502.615 22.7107 -502.065L22.8781 -507.065C16.1072 -507.615 9.47894 -508.145 3.00575 -508.655L2.8511 -503.654ZM42.1924 -500.457C48.6524 -499.915 55.2232 -499.356 61.8952 -498.779L62.0882 -503.777C55.4117 -504.354 48.8366 -504.913 42.3724 -505.455L42.1924 -500.457ZM81.5464 -497.054C88.0043 -496.478 94.5437 -495.887 101.157 -495.28L101.376 -500.275C94.7587 -500.883 88.2148 -501.474 81.7525 -502.05L81.5464 -497.054ZM120.863 -493.442C127.33 -492.83 133.856 -492.203 140.436 -491.561L140.684 -496.553C134.099 -497.196 127.568 -497.823 121.097 -498.436L120.863 -493.442ZM160.141 -489.609C166.623 -488.957 173.148 -488.291 179.711 -487.611L179.989 -492.601C173.421 -493.281 166.891 -493.948 160.404 -494.6L160.141 -489.609ZM199.39 -485.539C205.89 -484.844 212.42 -484.136 218.973 -483.413L219.284 -488.399C212.725 -489.122 206.189 -489.832 199.684 -490.527L199.39 -485.539ZM238.618 -481.211C245.136 -480.469 251.67 -479.714 258.216 -478.944L258.563 -483.926C252.011 -484.696 245.47 -485.453 238.946 -486.195L238.618 -481.211ZM277.829 -476.6C284.361 -475.806 290.898 -474.999 297.435 -474.177L297.821 -479.154C291.277 -479.977 284.733 -480.785 278.194 -481.58L277.829 -476.6ZM317.02 -471.674C323.562 -470.823 330.098 -469.958 336.622 -469.079L337.053 -474.05C330.521 -474.93 323.977 -475.796 317.428 -476.648L317.02 -471.674ZM356.186 -466.394C362.733 -465.478 369.263 -464.549 375.769 -463.604L376.251 -468.568C369.736 -469.514 363.197 -470.445 356.641 -471.361L356.186 -466.394ZM395.313 -460.711C401.865 -459.722 408.386 -458.718 414.869 -457.698L415.41 -462.653C408.916 -463.674 402.385 -464.68 395.823 -465.671L395.313 -460.711ZM434.387 -454.563C440.943 -453.487 447.454 -452.394 453.913 -451.286L454.524 -456.229C448.052 -457.34 441.529 -458.434 434.961 -459.512L434.387 -454.563ZM473.381 -447.865C479.948 -446.684 486.452 -445.484 492.885 -444.268L493.581 -449.196C487.132 -450.416 480.613 -451.618 474.032 -452.802L473.381 -447.865ZM512.256 -440.506C518.844 -439.192 525.346 -437.858 531.754 -436.505L532.555 -441.412C526.128 -442.77 519.607 -444.107 513.001 -445.425L512.256 -440.506ZM550.934 -432.329C557.558 -430.842 564.063 -429.332 570.44 -427.8L571.379 -432.676C564.976 -434.215 558.445 -435.73 551.798 -437.223L550.934 -432.329ZM589.554 -423.036C596.122 -421.337 602.528 -419.611 608.759 -417.86L609.888 -422.686C603.619 -424.449 597.178 -426.183 590.579 -427.891L589.554 -423.036ZM627.894 -412.223C634.373 -410.22 640.62 -408.185 646.618 -406.117L648.031 -410.855C641.976 -412.942 635.676 -414.995 629.149 -417.012L627.894 -412.223ZM665.193 -399.289C671.727 -396.72 677.869 -394.105 683.591 -391.445L685.502 -395.981C679.672 -398.692 673.431 -401.348 666.814 -403.95L665.193 -399.289ZM701.222 -382.322C707.439 -378.702 712.852 -375.019 717.411 -371.279L720.449 -375.107C715.624 -379.066 709.965 -382.906 703.562 -386.634L701.222 -382.322ZM730.3 -357.15C732.005 -354.354 733.216 -351.553 733.937 -348.741L738.759 -349.777C737.895 -353.149 736.461 -356.432 734.515 -359.624L730.3 -357.15ZM733.937 -348.741C734.78 -345.452 735.029 -342.35 734.743 -339.408L739.703 -338.687C740.05 -342.255 739.74 -345.953 738.759 -349.777L733.937 -348.741ZM726.85 -323.218C723.083 -319.158 718.018 -315.327 711.723 -311.71L714.345 -307.325C720.916 -311.1 726.393 -315.204 730.567 -319.703L726.85 -323.218ZM694.126 -303.367C688.417 -301.09 682.182 -298.925 675.468 -296.859L677.128 -292.056C683.942 -294.152 690.3 -296.359 696.148 -298.691L694.126 -303.367ZM656.303 -291.537C650.092 -289.973 643.589 -288.47 636.819 -287.021L638.074 -282.112C644.892 -283.572 651.452 -285.087 657.725 -286.667L656.303 -291.537ZM617.095 -283.08C610.726 -281.889 604.172 -280.734 597.452 -279.611L598.493 -274.662C605.24 -275.789 611.824 -276.949 618.228 -278.147L617.095 -283.08ZM577.722 -276.468C571.206 -275.477 564.563 -274.508 557.807 -273.558L558.723 -268.589C565.495 -269.542 572.157 -270.513 578.693 -271.507L577.722 -276.468ZM537.85 -270.843C531.316 -269.981 524.697 -269.132 518.003 -268.293L518.848 -263.315C525.551 -264.155 532.18 -265.005 538.725 -265.869L537.85 -270.843ZM498.004 -265.834C491.398 -265.036 484.735 -264.244 478.025 -263.455L478.833 -258.472C485.547 -259.262 492.215 -260.055 498.827 -260.853L498.004 -265.834ZM458.072 -261.125C451.426 -260.354 444.747 -259.582 438.043 -258.807L438.842 -253.823C445.544 -254.599 452.225 -255.37 458.872 -256.142L458.072 -261.125ZM418.077 -256.491C411.421 -255.716 404.751 -254.934 398.078 -254.143L398.891 -249.161C405.559 -249.951 412.226 -250.733 418.88 -251.508L418.077 -256.491ZM378.102 -251.744C371.429 -250.931 364.762 -250.106 358.113 -249.266L358.962 -244.288C365.603 -245.127 372.263 -245.951 378.93 -246.764L378.102 -251.744ZM338.164 -246.69C331.486 -245.808 324.835 -244.907 318.222 -243.985L319.133 -239.016C325.733 -239.936 332.373 -240.835 339.041 -241.716L338.164 -246.69ZM298.277 -241.119C291.622 -240.132 285.017 -239.12 278.473 -238.08L279.476 -233.124C286.001 -234.162 292.59 -235.171 299.23 -236.156L298.277 -241.119ZM258.555 -234.788C251.871 -233.638 245.265 -232.454 238.751 -231.232L239.886 -226.299C246.374 -227.516 252.956 -228.696 259.618 -229.842L258.555 -234.788ZM219.159 -227.38C212.452 -225.996 205.863 -224.565 199.405 -223.083L200.729 -218.19C207.149 -219.663 213.704 -221.086 220.379 -222.464L219.159 -227.38ZM179.851 -218.325C173.247 -216.62 166.812 -214.851 160.564 -213.012L162.168 -208.192C168.361 -210.014 174.744 -211.769 181.301 -213.462L179.851 -218.325ZM141.536 -206.987C134.961 -204.743 128.646 -202.403 122.619 -199.959L124.666 -195.293C130.603 -197.701 136.833 -200.01 143.333 -202.228L141.536 -206.987ZM104.252 -191.725C97.9703 -188.598 92.1131 -185.315 86.7263 -181.86L89.5434 -177.593C94.769 -180.944 100.476 -184.146 106.628 -187.207L104.252 -191.725ZM70.6402 -169.749C65.3556 -165.006 60.8465 -159.967 57.213 -154.604L61.3729 -151.647C64.7616 -156.649 69.0068 -161.407 74.0536 -165.936L70.6402 -169.749ZM48.5614 -135.782C47.6796 -132.4 47.1041 -128.918 46.8485 -125.336L51.8197 -124.742C52.0536 -128.022 52.5801 -131.205 53.3862 -134.297L48.5614 -135.782ZM46.8485 -125.336C46.5926 -121.749 46.5805 -118.215 46.8028 -114.73L51.7764 -114.815C51.5688 -118.07 51.5796 -121.377 51.8197 -124.742L46.8485 -125.336ZM51.0013 -94.0253C53.2712 -87.4596 56.386 -81.1023 60.247 -74.9278L64.4297 -77.4535C60.7586 -83.3244 57.8267 -89.3213 55.7004 -95.4715L51.0013 -94.0253ZM73.0247 -57.9852C77.5305 -52.8885 82.537 -47.9052 87.9834 -43.0168L91.2013 -46.69C85.8857 -51.461 81.0286 -56.2987 76.6782 -61.2194L73.0247 -57.9852ZM104.226 -29.6442C109.608 -25.5469 115.285 -21.5032 121.219 -17.5017L123.856 -21.6284C117.994 -25.5808 112.402 -29.5651 107.111 -33.5926L104.226 -29.6442ZM138.756 -6.22824C144.529 -2.67624 150.487 0.852006 156.602 4.36469L158.916 0.0366081C152.84 -3.45337 146.928 -6.95427 141.207 -10.4746L138.756 -6.22824ZM174.68 14.4733C180.653 17.7329 186.743 20.9868 192.928 24.2415L195.07 19.8194C188.904 16.5748 182.838 13.3337 176.893 10.0891L174.68 14.4733ZM211.294 33.7807C217.376 36.9052 223.528 40.037 229.73 43.1817L231.802 38.7231C225.604 35.5808 219.461 32.4535 213.39 29.3348L211.294 33.7807ZM248.193 52.5204C254.315 55.6148 260.467 58.7268 266.635 61.8627L268.712 57.4069C262.539 54.2679 256.381 51.1534 250.259 48.0588L248.193 52.5204ZM285.004 71.2657C291.116 74.4199 297.225 77.6022 303.314 80.8183L305.464 76.3999C299.357 73.1747 293.233 69.9845 287.109 66.8242L285.004 71.2657ZM321.518 90.578C327.575 93.8794 333.596 97.2196 339.563 100.604L341.851 96.2621C335.855 92.861 329.809 89.5062 323.728 86.1924L321.518 90.578ZM357.395 110.96C363.35 114.506 369.231 118.104 375.022 121.758L377.524 117.544C371.691 113.863 365.77 110.241 359.78 106.674L357.395 110.96ZM392.334 133.052C398.092 136.942 403.733 140.898 409.24 144.926L412.043 140.916C406.479 136.846 400.783 132.852 394.975 128.928L392.334 133.052ZM425.633 157.47C431.057 161.822 436.313 166.258 441.38 170.785L444.589 167.104C439.446 162.509 434.117 158.012 428.625 153.605L425.633 157.47ZM456.317 184.976C461.196 189.922 465.842 194.974 470.232 200.141L473.955 196.986C469.473 191.711 464.736 186.561 459.77 181.527L456.317 184.976ZM482.869 216.362C486.864 221.991 490.554 227.752 493.911 233.654L498.208 231.319C494.757 225.254 490.971 219.343 486.878 213.577L482.869 216.362ZM503.027 251.941C505.698 258.16 508.009 264.532 509.931 271.066L514.705 269.854C512.722 263.113 510.339 256.544 507.587 250.137L503.027 251.941ZM514.442 290.777C515.517 297.281 516.22 303.943 516.525 310.772L521.504 310.783C521.19 303.754 520.466 296.889 519.358 290.183L514.442 290.777ZM516.294 330.775C516.072 334.124 515.758 337.511 515.349 340.937L520.297 341.766C520.717 338.255 521.039 334.781 521.267 331.344L516.294 330.775ZM515.349 340.937C514.947 344.306 514.484 347.651 513.962 350.974L518.886 351.984C519.417 348.601 519.888 345.195 520.297 341.766L515.349 340.937ZM510.122 370.707C508.6 377.251 506.85 383.702 504.884 390.061L509.65 391.754C511.648 385.288 513.429 378.725 514.978 372.067L510.122 370.707ZM498.318 408.965C495.916 415.185 493.311 421.312 490.514 427.346L495.049 429.64C497.888 423.514 500.535 417.291 502.975 410.97L498.318 408.965ZM481.573 445.158C478.418 450.992 475.087 456.733 471.594 462.382L475.86 465.175C479.4 459.451 482.777 453.631 485.977 447.714L481.573 445.158ZM460.673 479.007C456.893 484.439 452.966 489.781 448.906 495.032L452.894 498.228C457 492.917 460.973 487.512 464.8 482.012L460.673 479.007ZM436.382 510.465C432.097 515.503 427.694 520.452 423.186 525.311L426.903 528.826C431.455 523.919 435.902 518.921 440.232 513.829L436.382 510.465ZM409.383 539.6C404.687 544.273 399.9 548.857 395.035 553.351L398.498 557.119C403.403 552.587 408.232 547.963 412.97 543.248L409.383 539.6ZM380.201 566.584C375.173 570.919 370.08 575.163 364.935 579.318L368.164 583.288C373.346 579.103 378.477 574.827 383.545 570.459L380.201 566.584ZM349.285 591.571C343.98 595.6 338.637 599.536 333.269 603.381L336.283 607.514C341.685 603.645 347.064 599.683 352.405 595.627L349.285 591.571ZM316.92 614.763C311.378 618.515 305.826 622.17 300.278 625.729L303.096 629.995C308.675 626.417 314.259 622.741 319.834 618.966L316.92 614.763ZM283.372 636.293C277.629 639.789 271.908 643.182 266.225 646.47L268.86 650.848C274.571 647.543 280.323 644.133 286.097 640.618L283.372 636.293ZM248.855 656.274C242.924 659.539 237.057 662.687 231.275 665.718L233.739 670.19C239.548 667.145 245.443 663.982 251.403 660.701L248.855 656.274ZM213.495 674.814C207.367 677.872 201.368 680.79 195.524 683.568L197.823 688.123C203.694 685.332 209.72 682.401 215.876 679.328L213.495 674.814ZM177.379 691.98C171.028 694.851 164.924 697.534 159.109 700.03L161.245 704.659C167.086 702.152 173.217 699.456 179.597 696.572L177.379 691.98ZM140.705 707.72C133.835 710.51 127.573 712.964 122.023 715.081L123.98 719.783C129.56 717.654 135.852 715.188 142.755 712.384L140.705 707.72ZM103.355 721.942C100.31 723.013 97.9543 723.815 96.3622 724.348C95.5661 724.615 94.961 724.814 94.5562 724.947C94.3538 725.013 94.2015 725.062 94.1004 725.095C94.0499 725.111 94.0121 725.123 93.9873 725.131C93.9749 725.135 93.9658 725.138 93.9599 725.14C93.9569 725.141 93.9548 725.142 93.9535 725.142C93.9528 725.142 93.9524 725.143 93.9521 725.143C93.952 725.143 93.9519 725.143 93.9519 725.143C93.9519 725.143 93.9519 725.143 93.9519 725.143C93.9519 725.143 93.952 725.143 94.8062 727.537C95.6604 729.931 95.6604 729.931 95.6605 729.931C95.6606 729.931 95.6607 729.931 95.6608 729.931C95.661 729.931 95.6612 729.93 95.6615 729.93C95.6621 729.93 95.6628 729.93 95.6638 729.93C95.6657 729.929 95.6685 729.928 95.6721 729.927C95.6793 729.925 95.6897 729.921 95.7034 729.917C95.7307 729.908 95.7711 729.895 95.8242 729.878C95.9305 729.844 96.088 729.793 96.2957 729.725C96.711 729.589 97.3269 729.386 98.1339 729.116C99.7479 728.575 102.127 727.766 105.195 726.686L103.355 721.942Z" fill="white"/>
</g>
<mask id="mask1_139_8" style="mask-type:alpha" maskUnits="userSpaceOnUse" x="327" y="0" width="328" height="782">
<rect x="327" width="328" height="782" fill="#C4C4C4"/>
</mask>
<g mask="url(#mask1_139_8)">
<g filter="url(#filter1_d_139_8)">
<path d="M735.345 -346.305L732.934 -345.787L735.345 -346.305ZM48.3454 -122.131L45.8598 -122.428L48.3454 -122.131ZM516.845 344.294L514.371 343.88L516.845 344.294ZM-145.155 -513.35C-145.17 -510.846 -145.17 -510.846 -145.17 -510.846C-145.169 -510.846 -145.169 -510.846 -145.169 -510.846C-145.169 -510.846 -145.169 -510.846 -145.169 -510.846C-145.169 -510.846 -145.168 -510.846 -145.167 -510.846C-145.166 -510.846 -145.163 -510.845 -145.16 -510.845C-145.153 -510.845 -145.144 -510.844 -145.13 -510.844C-145.104 -510.842 -145.065 -510.84 -145.012 -510.837C-144.907 -510.832 -144.75 -510.823 -144.542 -510.812C-144.124 -510.789 -143.501 -510.754 -142.678 -510.708C-141.033 -510.616 -138.591 -510.478 -135.405 -510.292L-135.352 -515.299C-138.542 -515.486 -140.988 -515.624 -142.637 -515.717C-143.462 -515.763 -144.087 -515.797 -144.506 -515.82C-144.716 -515.832 -144.874 -515.84 -144.98 -515.846C-145.033 -515.849 -145.073 -515.851 -145.099 -515.853C-145.113 -515.853 -145.123 -515.854 -145.129 -515.854C-145.133 -515.854 -145.135 -515.855 -145.137 -515.855C-145.138 -515.855 -145.139 -515.855 -145.139 -515.855C-145.139 -515.855 -145.139 -515.855 -145.139 -515.855C-145.14 -515.855 -145.14 -515.855 -145.14 -515.855C-145.14 -515.855 -145.14 -515.855 -145.155 -513.35ZM-116.195 -509.129C-110.394 -508.767 -103.797 -508.346 -96.4731 -507.866L-96.384 -512.871C-103.713 -513.352 -110.315 -513.773 -116.121 -514.135L-116.195 -509.129ZM-76.8253 -506.549C-70.6114 -506.123 -64.038 -505.665 -57.1322 -505.174L-57.0158 -510.178C-63.9261 -510.669 -70.5039 -511.127 -76.7221 -511.553L-76.8253 -506.549ZM-37.2852 -503.736C-30.9692 -503.271 -24.4349 -502.781 -17.6985 -502.267L-17.5565 -507.269C-24.2972 -507.783 -30.8357 -508.273 -37.1558 -508.739L-37.2852 -503.736ZM1.85026 -500.751C8.31929 -500.242 14.9432 -499.712 21.7098 -499.161L21.877 -504.161C15.1061 -504.712 8.4779 -505.242 2.00475 -505.752L1.85026 -500.751ZM41.1913 -497.551C47.6513 -497.009 54.222 -496.449 60.894 -495.872L61.0868 -500.87C54.4104 -501.447 47.8353 -502.007 41.3711 -502.55L41.1913 -497.551ZM80.545 -494.146C87.0029 -493.57 93.5423 -492.978 100.155 -492.37L100.375 -497.365C93.7571 -497.973 87.2132 -498.566 80.751 -499.142L80.545 -494.146ZM119.862 -490.531C126.328 -489.918 132.854 -489.291 139.434 -488.649L139.682 -493.641C133.097 -494.284 126.566 -494.912 120.095 -495.525L119.862 -490.531ZM159.139 -486.695C165.621 -486.043 172.147 -485.377 178.709 -484.696L178.987 -489.685C172.419 -490.367 165.889 -491.034 159.402 -491.686L159.139 -486.695ZM198.388 -482.623C204.888 -481.927 211.418 -481.218 217.971 -480.495L218.281 -485.481C211.722 -486.205 205.187 -486.915 198.682 -487.611L198.388 -482.623ZM237.616 -478.292C244.133 -477.55 250.668 -476.793 257.214 -476.023L257.56 -481.005C251.008 -481.776 244.467 -482.533 237.944 -483.276L237.616 -478.292ZM276.826 -473.678C283.358 -472.884 289.895 -472.076 296.432 -471.254L296.818 -476.231C290.274 -477.054 283.73 -477.863 277.192 -478.657L276.826 -473.678ZM316.017 -468.749C322.559 -467.897 329.095 -467.032 335.619 -466.152L336.05 -471.124C329.518 -472.004 322.975 -472.871 316.425 -473.723L316.017 -468.749ZM355.183 -463.466C361.731 -462.55 368.26 -461.62 374.766 -460.675L375.248 -465.639C368.733 -466.586 362.194 -467.517 355.638 -468.434L355.183 -463.466ZM394.31 -457.781C400.862 -456.791 407.383 -455.786 413.866 -454.766L414.407 -459.721C407.913 -460.743 401.382 -461.75 394.82 -462.741L394.31 -457.781ZM433.383 -451.63C439.94 -450.553 446.451 -449.46 452.91 -448.351L453.52 -453.295C447.049 -454.406 440.526 -455.501 433.957 -456.579L433.383 -451.63ZM472.378 -444.929C478.945 -443.747 485.449 -442.548 491.882 -441.33L492.577 -446.259C486.128 -447.479 479.61 -448.681 473.028 -449.866L472.378 -444.929ZM511.252 -437.567C517.841 -436.253 524.343 -434.919 530.75 -433.565L531.551 -438.472C525.124 -439.83 518.603 -441.168 511.997 -442.486L511.252 -437.567ZM549.931 -429.388C556.554 -427.9 563.06 -426.39 569.437 -424.857L570.375 -429.733C563.972 -431.272 557.442 -432.788 550.795 -434.281L549.931 -429.388ZM588.55 -420.092C595.118 -418.392 601.524 -416.667 607.756 -414.914L608.884 -419.741C602.615 -421.504 596.174 -423.239 589.575 -424.947L588.55 -420.092ZM626.89 -409.276C633.369 -407.273 639.616 -405.237 645.614 -403.169L647.027 -407.907C640.972 -409.995 634.672 -412.048 628.145 -414.066L626.89 -409.276ZM664.189 -396.34C670.723 -393.77 676.865 -391.155 682.588 -388.494L684.498 -393.031C678.668 -395.742 672.427 -398.398 665.81 -401.001L664.189 -396.34ZM700.218 -379.37C706.436 -375.749 711.849 -372.067 716.408 -368.326L719.446 -372.153C714.62 -376.113 708.962 -379.953 702.559 -383.682L700.218 -379.37ZM729.298 -354.196C731.002 -351.4 732.213 -348.599 732.934 -345.787L737.757 -346.823C736.892 -350.194 735.458 -353.478 733.512 -356.67L729.298 -354.196ZM732.934 -345.787C733.778 -342.498 734.027 -339.395 733.741 -336.454L738.701 -335.732C739.048 -339.3 738.737 -342.998 737.757 -346.823L732.934 -345.787ZM725.848 -320.264C722.082 -316.204 717.016 -312.373 710.722 -308.757L713.344 -304.372C719.914 -308.146 725.391 -312.25 729.565 -316.749L725.848 -320.264ZM693.125 -300.415C687.416 -298.139 681.182 -295.974 674.467 -293.908L676.128 -289.105C682.942 -291.201 689.299 -293.408 695.148 -295.739L693.125 -300.415ZM655.303 -288.588C649.092 -287.024 642.589 -285.522 635.82 -284.073L637.075 -279.164C643.892 -280.623 650.452 -282.138 656.725 -283.718L655.303 -288.588ZM616.096 -280.134C609.727 -278.943 603.173 -277.789 596.453 -276.666L597.494 -271.716C604.241 -272.844 610.825 -274.003 617.228 -275.2L616.096 -280.134ZM576.723 -273.524C570.207 -272.533 563.564 -271.565 556.808 -270.615L557.725 -265.647C564.497 -266.599 571.158 -267.569 577.694 -268.563L576.723 -273.524ZM536.851 -267.902C530.318 -267.04 523.699 -266.192 517.005 -265.353L517.851 -260.375C524.553 -261.215 531.182 -262.065 537.727 -262.927L536.851 -267.902ZM497.006 -262.896C490.401 -262.098 483.738 -261.307 477.028 -260.518L477.836 -255.535C484.55 -256.325 491.218 -257.117 497.829 -257.915L497.006 -262.896ZM457.074 -258.19C450.429 -257.419 443.75 -256.648 437.046 -255.873L437.845 -250.889C444.548 -251.664 451.228 -252.435 457.875 -253.206L457.074 -258.19ZM417.081 -253.559C410.424 -252.783 403.755 -252.002 397.082 -251.211L397.894 -246.229C404.563 -247.019 411.229 -247.8 417.884 -248.575L417.081 -253.559ZM377.106 -248.814C370.433 -248.001 363.766 -247.177 357.117 -246.337L357.966 -241.36C364.608 -242.198 371.267 -243.022 377.934 -243.833L377.106 -248.814ZM337.169 -243.763C330.49 -242.881 323.839 -241.981 317.227 -241.059L318.138 -236.09C324.738 -237.01 331.377 -237.908 338.045 -238.789L337.169 -243.763ZM297.282 -238.195C290.627 -237.208 284.022 -236.197 277.479 -235.157L278.481 -230.201C285.007 -231.238 291.595 -232.247 298.235 -233.231L297.282 -238.195ZM257.561 -231.866C250.876 -230.717 244.271 -229.533 237.757 -228.312L238.892 -223.379C245.38 -224.595 251.962 -225.775 258.624 -226.92L257.561 -231.866ZM218.166 -224.461C211.459 -223.077 204.869 -221.647 198.412 -220.165L199.736 -215.272C206.156 -216.745 212.711 -218.168 219.386 -219.544L218.166 -224.461ZM178.857 -215.409C172.254 -213.704 165.819 -211.935 159.571 -210.097L161.176 -205.276C167.368 -207.099 173.751 -208.853 180.308 -210.546L178.857 -215.409ZM140.544 -204.073C133.969 -201.83 127.654 -199.49 121.627 -197.046L123.675 -192.381C129.611 -194.788 135.841 -197.096 142.341 -199.314L140.544 -204.073ZM103.26 -188.813C96.979 -185.688 91.122 -182.404 85.7354 -178.95L88.5526 -174.683C93.778 -178.034 99.4851 -181.235 105.636 -184.296L103.26 -188.813ZM69.6498 -166.84C64.3655 -162.098 59.8566 -157.059 56.2232 -151.695L60.3832 -148.738C63.7717 -153.74 68.0167 -158.498 73.0634 -163.027L69.6498 -166.84ZM47.5724 -132.874C46.6907 -129.492 46.1153 -126.011 45.8598 -122.428L50.831 -121.834C51.0648 -125.114 51.5911 -128.297 52.3972 -131.389L47.5724 -132.874ZM45.8598 -122.428C45.604 -118.841 45.5921 -115.307 45.8145 -111.822L50.788 -111.907C50.5803 -115.162 50.591 -118.469 50.831 -121.834L45.8598 -122.428ZM50.0136 -91.1173C52.2837 -84.5514 55.3987 -78.1938 59.2598 -72.019L63.4424 -74.5444C59.7712 -80.4156 56.8391 -86.4127 54.7126 -92.5631L50.0136 -91.1173ZM72.038 -55.0754C76.544 -49.9785 81.5505 -44.9948 86.997 -40.1059L90.2148 -43.779C84.8991 -48.5504 80.0419 -53.3884 75.6914 -58.3094L72.038 -55.0754ZM103.24 -26.7322C108.622 -22.6345 114.299 -18.5903 120.234 -14.5885L122.87 -18.7149C117.008 -22.6677 111.416 -26.6525 106.125 -30.6804L103.24 -26.7322ZM137.771 -3.31369C143.543 0.238728 149.501 3.7674 155.617 7.28052L157.93 2.95259C151.854 -0.537826 145.943 -4.03916 140.221 -7.55986L137.771 -3.31369ZM173.695 17.3904C179.668 20.6505 185.757 23.9048 191.943 27.16L194.085 22.738C187.919 19.493 181.853 16.2514 175.908 13.0063L173.695 17.3904ZM210.309 36.7005C216.391 39.8254 222.543 42.9576 228.745 46.1028L230.817 41.6443C224.619 38.5015 218.476 35.3738 212.405 32.2547L210.309 36.7005ZM247.208 55.4429C253.33 58.5377 259.483 61.6501 265.65 64.7865L267.727 60.3308C261.554 57.1913 255.397 54.0764 249.274 50.9814L247.208 55.4429ZM284.019 74.1908C290.131 77.3454 296.24 80.5282 302.33 83.7446L304.479 79.3264C298.372 76.1008 292.248 72.9102 286.124 69.7494L284.019 74.1908ZM320.534 93.5057C326.591 96.8075 332.612 100.148 338.579 103.533L340.867 99.1912C334.871 95.7897 328.824 92.4345 322.744 89.1202L320.534 93.5057ZM356.411 113.891C362.366 117.437 368.248 121.035 374.039 124.69L376.54 120.475C370.707 116.794 364.786 113.172 358.796 109.605L356.411 113.891ZM391.351 135.985C397.108 139.875 402.75 143.831 408.257 147.86L411.06 143.85C405.495 139.78 399.799 135.785 393.991 131.861L391.351 135.985ZM424.65 160.405C430.074 164.757 435.331 169.194 440.398 173.721L443.606 170.04C438.464 165.445 433.134 160.947 427.642 156.54L424.65 160.405ZM455.334 187.913C460.214 192.859 464.86 197.912 469.25 203.079L472.973 199.925C468.491 194.65 463.754 189.499 458.788 184.465L455.334 187.913ZM481.888 219.302C485.883 224.931 489.572 230.692 492.93 236.594L497.227 234.26C493.776 228.194 489.989 222.283 485.897 216.516L481.888 219.302ZM502.046 254.882C504.718 261.101 507.029 267.473 508.952 274.008L513.725 272.796C511.742 266.055 509.359 259.485 506.606 253.078L502.046 254.882ZM513.463 293.719C514.538 300.223 515.241 306.885 515.547 313.714L520.525 313.725C520.211 306.696 519.487 299.832 518.379 293.125L513.463 293.719ZM515.316 333.718C515.094 337.066 514.78 340.453 514.371 343.88L519.32 344.709C519.739 341.197 520.061 337.723 520.289 334.287L515.316 333.718ZM514.371 343.88C513.969 347.248 513.506 350.594 512.985 353.916L517.909 354.926C518.44 351.544 518.91 348.138 519.32 344.709L514.371 343.88ZM509.145 373.649C507.624 380.193 505.873 386.644 503.908 393.003L508.674 394.696C510.672 388.23 512.453 381.667 514.001 375.009L509.145 373.649ZM497.343 411.906C494.941 418.126 492.336 424.253 489.54 430.287L494.075 432.581C496.913 426.455 499.56 420.232 502 413.912L497.343 411.906ZM480.599 448.099C477.445 453.932 474.114 459.673 470.621 465.322L474.887 468.115C478.426 462.391 481.803 456.571 485.003 450.655L480.599 448.099ZM459.701 481.946C455.921 487.378 451.994 492.72 447.934 497.971L451.922 501.166C456.028 495.856 460.001 490.451 463.828 484.952L459.701 481.946ZM435.41 513.403C431.126 518.441 426.723 523.389 422.215 528.248L425.932 531.763C430.484 526.857 434.931 521.858 439.261 516.767L435.41 513.403ZM408.413 542.536C403.717 547.208 398.93 551.792 394.065 556.286L397.529 560.054C402.434 555.522 407.262 550.899 412 546.184L408.413 542.536ZM379.232 569.518C374.204 573.852 369.111 578.097 363.967 582.251L367.196 586.221C372.378 582.037 377.509 577.761 382.576 573.393L379.232 569.518ZM348.317 594.503C343.013 598.532 337.669 602.467 332.301 606.311L335.316 610.445C340.718 606.577 346.096 602.615 351.437 598.559L348.317 594.503ZM315.953 617.693C310.412 621.444 304.86 625.099 299.312 628.657L302.13 632.924C307.708 629.346 313.293 625.67 318.867 621.896L315.953 617.693ZM282.407 639.22C276.664 642.716 270.942 646.108 265.26 649.396L267.895 653.774C273.606 650.47 279.357 647.06 285.131 643.545L282.407 639.22ZM247.89 659.199C241.96 662.464 236.093 665.611 230.311 668.642L232.775 673.115C238.584 670.07 244.479 666.907 250.438 663.626L247.89 659.199ZM212.531 677.736C206.404 680.795 200.405 683.712 194.56 686.489L196.86 691.044C202.73 688.255 208.757 685.324 214.912 682.251L212.531 677.736ZM176.416 694.9C170.065 697.771 163.961 700.454 158.147 702.949L160.283 707.578C166.124 705.071 172.255 702.376 178.634 699.493L176.416 694.9ZM139.743 710.638C132.873 713.428 126.612 715.881 121.062 717.998L123.018 722.699C128.598 720.571 134.891 718.105 141.793 715.302L139.743 710.638ZM102.394 724.857C99.3492 725.929 96.9934 726.73 95.4013 727.263C94.6052 727.53 94.0002 727.729 93.5954 727.861C93.393 727.928 93.2406 727.977 93.1395 728.01C93.089 728.026 93.0512 728.038 93.0265 728.046C93.0141 728.05 93.0049 728.053 92.999 728.055C92.9961 728.056 92.9939 728.057 92.9926 728.057C92.992 728.057 92.9915 728.057 92.9912 728.057C92.9911 728.057 92.9911 728.057 92.991 728.057C92.991 728.057 92.991 728.057 92.991 728.057C92.9911 728.057 92.9911 728.057 93.8454 730.451C94.6997 732.846 94.6997 732.846 94.6998 732.846C94.6999 732.846 94.7 732.846 94.7001 732.845C94.7002 732.845 94.7005 732.845 94.7007 732.845C94.7013 732.845 94.7021 732.845 94.7031 732.844C94.705 732.844 94.7078 732.843 94.7114 732.842C94.7185 732.84 94.729 732.836 94.7426 732.832C94.77 732.823 94.8103 732.81 94.8635 732.793C94.9697 732.759 95.1273 732.708 95.335 732.64C95.7503 732.504 96.3661 732.301 97.1731 732.031C98.7871 731.491 101.166 730.681 104.235 729.601L102.394 724.857Z" fill="#F5E832"/>
</g>
<path d="M736.348 -349.259L733.937 -348.741L736.348 -349.259ZM49.3341 -125.039L46.8485 -125.336L49.3341 -125.039ZM517.823 341.352L515.349 340.937L517.823 341.352ZM-144.155 -516.243C-144.17 -513.738 -144.17 -513.738 -144.17 -513.738C-144.17 -513.738 -144.17 -513.738 -144.17 -513.738C-144.17 -513.738 -144.169 -513.738 -144.169 -513.738C-144.169 -513.738 -144.168 -513.738 -144.167 -513.738C-144.166 -513.738 -144.163 -513.738 -144.16 -513.738C-144.154 -513.738 -144.144 -513.737 -144.131 -513.736C-144.104 -513.735 -144.065 -513.733 -144.013 -513.73C-143.908 -513.724 -143.75 -513.716 -143.542 -513.704C-143.124 -513.681 -142.501 -513.647 -141.679 -513.601C-140.034 -513.509 -137.592 -513.371 -134.405 -513.185L-134.352 -518.193C-137.542 -518.379 -139.988 -518.517 -141.637 -518.609C-142.462 -518.656 -143.087 -518.69 -143.506 -518.713C-143.716 -518.724 -143.874 -518.733 -143.98 -518.739C-144.033 -518.742 -144.073 -518.744 -144.099 -518.745C-144.113 -518.746 -144.123 -518.746 -144.129 -518.747C-144.133 -518.747 -144.135 -518.747 -144.137 -518.747C-144.138 -518.747 -144.139 -518.747 -144.139 -518.747C-144.139 -518.747 -144.139 -518.747 -144.14 -518.747C-144.14 -518.747 -144.14 -518.747 -144.14 -518.747C-144.14 -518.747 -144.14 -518.747 -144.155 -516.243ZM-115.195 -512.023C-109.394 -511.662 -102.797 -511.242 -95.473 -510.762L-95.3837 -515.767C-102.713 -516.247 -109.315 -516.668 -115.121 -517.03L-115.195 -512.023ZM-75.825 -509.446C-69.6111 -509.021 -63.0376 -508.563 -56.1318 -508.073L-56.0152 -513.076C-62.9255 -513.567 -69.5034 -514.025 -75.7216 -514.45L-75.825 -509.446ZM-36.2846 -506.636C-29.9686 -506.171 -23.4342 -505.682 -16.6978 -505.169L-16.5556 -510.17C-23.2964 -510.684 -29.8349 -511.174 -36.155 -511.639L-36.2846 -506.636ZM2.8511 -503.654C9.32017 -503.145 15.9442 -502.615 22.7107 -502.065L22.8781 -507.065C16.1072 -507.615 9.47894 -508.145 3.00575 -508.655L2.8511 -503.654ZM42.1924 -500.457C48.6524 -499.915 55.2232 -499.356 61.8952 -498.779L62.0882 -503.777C55.4117 -504.354 48.8366 -504.913 42.3724 -505.455L42.1924 -500.457ZM81.5464 -497.054C88.0043 -496.478 94.5437 -495.887 101.157 -495.28L101.376 -500.275C94.7587 -500.883 88.2148 -501.474 81.7525 -502.05L81.5464 -497.054ZM120.863 -493.442C127.33 -492.83 133.856 -492.203 140.436 -491.561L140.684 -496.553C134.099 -497.196 127.568 -497.823 121.097 -498.436L120.863 -493.442ZM160.141 -489.609C166.623 -488.957 173.148 -488.291 179.711 -487.611L179.989 -492.601C173.421 -493.281 166.891 -493.948 160.404 -494.6L160.141 -489.609ZM199.39 -485.539C205.89 -484.844 212.42 -484.136 218.973 -483.413L219.284 -488.399C212.725 -489.122 206.189 -489.832 199.684 -490.527L199.39 -485.539ZM238.618 -481.211C245.136 -480.469 251.67 -479.714 258.216 -478.944L258.563 -483.926C252.011 -484.696 245.47 -485.453 238.946 -486.195L238.618 -481.211ZM277.829 -476.6C284.361 -475.806 290.898 -474.999 297.435 -474.177L297.821 -479.154C291.277 -479.977 284.733 -480.785 278.194 -481.58L277.829 -476.6ZM317.02 -471.674C323.562 -470.823 330.098 -469.958 336.622 -469.079L337.053 -474.05C330.521 -474.93 323.977 -475.796 317.428 -476.648L317.02 -471.674ZM356.186 -466.394C362.733 -465.478 369.263 -464.549 375.769 -463.604L376.251 -468.568C369.736 -469.514 363.197 -470.445 356.641 -471.361L356.186 -466.394ZM395.313 -460.711C401.865 -459.722 408.386 -458.718 414.869 -457.698L415.41 -462.653C408.916 -463.674 402.385 -464.68 395.823 -465.671L395.313 -460.711ZM434.387 -454.563C440.943 -453.487 447.454 -452.394 453.913 -451.286L454.524 -456.229C448.052 -457.34 441.529 -458.434 434.961 -459.512L434.387 -454.563ZM473.381 -447.865C479.948 -446.684 486.452 -445.484 492.885 -444.268L493.581 -449.196C487.132 -450.416 480.613 -451.618 474.032 -452.802L473.381 -447.865ZM512.256 -440.506C518.844 -439.192 525.346 -437.858 531.754 -436.505L532.555 -441.412C526.128 -442.77 519.607 -444.107 513.001 -445.425L512.256 -440.506ZM550.934 -432.329C557.558 -430.842 564.063 -429.332 570.44 -427.8L571.379 -432.676C564.976 -434.215 558.445 -435.73 551.798 -437.223L550.934 -432.329ZM589.554 -423.036C596.122 -421.337 602.528 -419.611 608.759 -417.86L609.888 -422.686C603.619 -424.449 597.178 -426.183 590.579 -427.891L589.554 -423.036ZM627.894 -412.223C634.373 -410.22 640.62 -408.185 646.618 -406.117L648.031 -410.855C641.976 -412.942 635.676 -414.995 629.149 -417.012L627.894 -412.223ZM665.193 -399.289C671.727 -396.72 677.869 -394.105 683.591 -391.445L685.502 -395.981C679.672 -398.692 673.431 -401.348 666.814 -403.95L665.193 -399.289ZM701.222 -382.322C707.439 -378.702 712.852 -375.019 717.411 -371.279L720.449 -375.107C715.624 -379.066 709.965 -382.906 703.562 -386.634L701.222 -382.322ZM730.3 -357.15C732.005 -354.354 733.216 -351.553 733.937 -348.741L738.759 -349.777C737.895 -353.149 736.461 -356.432 734.515 -359.624L730.3 -357.15ZM733.937 -348.741C734.78 -345.452 735.029 -342.35 734.743 -339.408L739.703 -338.687C740.05 -342.255 739.74 -345.953 738.759 -349.777L733.937 -348.741ZM726.85 -323.218C723.083 -319.158 718.018 -315.327 711.723 -311.71L714.345 -307.325C720.916 -311.1 726.393 -315.204 730.567 -319.703L726.85 -323.218ZM694.126 -303.367C688.417 -301.09 682.182 -298.925 675.468 -296.859L677.128 -292.056C683.942 -294.152 690.3 -296.359 696.148 -298.691L694.126 -303.367ZM656.303 -291.537C650.092 -289.973 643.589 -288.47 636.819 -287.021L638.074 -282.112C644.892 -283.572 651.452 -285.087 657.725 -286.667L656.303 -291.537ZM617.095 -283.08C610.726 -281.889 604.172 -280.734 597.452 -279.611L598.493 -274.662C605.24 -275.789 611.824 -276.949 618.228 -278.147L617.095 -283.08ZM577.722 -276.468C571.206 -275.477 564.563 -274.508 557.807 -273.558L558.723 -268.589C565.495 -269.542 572.157 -270.513 578.693 -271.507L577.722 -276.468ZM537.85 -270.843C531.316 -269.981 524.697 -269.132 518.003 -268.293L518.848 -263.315C525.551 -264.155 532.18 -265.005 538.725 -265.869L537.85 -270.843ZM498.004 -265.834C491.398 -265.036 484.735 -264.244 478.025 -263.455L478.833 -258.472C485.547 -259.262 492.215 -260.055 498.827 -260.853L498.004 -265.834ZM458.072 -261.125C451.426 -260.354 444.747 -259.582 438.043 -258.807L438.842 -253.823C445.544 -254.599 452.225 -255.37 458.872 -256.142L458.072 -261.125ZM418.077 -256.491C411.421 -255.716 404.751 -254.934 398.078 -254.143L398.891 -249.161C405.559 -249.951 412.226 -250.733 418.88 -251.508L418.077 -256.491ZM378.102 -251.744C371.429 -250.931 364.762 -250.106 358.113 -249.266L358.962 -244.288C365.603 -245.127 372.263 -245.951 378.93 -246.764L378.102 -251.744ZM338.164 -246.69C331.486 -245.808 324.835 -244.907 318.222 -243.985L319.133 -239.016C325.733 -239.936 332.373 -240.835 339.041 -241.716L338.164 -246.69ZM298.277 -241.119C291.622 -240.132 285.017 -239.12 278.473 -238.08L279.476 -233.124C286.001 -234.162 292.59 -235.171 299.23 -236.156L298.277 -241.119ZM258.555 -234.788C251.871 -233.638 245.265 -232.454 238.751 -231.232L239.886 -226.299C246.374 -227.516 252.956 -228.696 259.618 -229.842L258.555 -234.788ZM219.159 -227.38C212.452 -225.996 205.863 -224.565 199.405 -223.083L200.729 -218.19C207.149 -219.663 213.704 -221.086 220.379 -222.464L219.159 -227.38ZM179.851 -218.325C173.247 -216.62 166.812 -214.851 160.564 -213.012L162.168 -208.192C168.361 -210.014 174.744 -211.769 181.301 -213.462L179.851 -218.325ZM141.536 -206.987C134.961 -204.743 128.646 -202.403 122.619 -199.959L124.666 -195.293C130.603 -197.701 136.833 -200.01 143.333 -202.228L141.536 -206.987ZM104.252 -191.725C97.9703 -188.598 92.1131 -185.315 86.7263 -181.86L89.5434 -177.593C94.769 -180.944 100.476 -184.146 106.628 -187.207L104.252 -191.725ZM70.6402 -169.749C65.3556 -165.006 60.8465 -159.967 57.213 -154.604L61.3729 -151.647C64.7616 -156.649 69.0068 -161.407 74.0536 -165.936L70.6402 -169.749ZM48.5614 -135.782C47.6796 -132.4 47.1041 -128.918 46.8485 -125.336L51.8197 -124.742C52.0536 -128.022 52.5801 -131.205 53.3862 -134.297L48.5614 -135.782ZM46.8485 -125.336C46.5926 -121.749 46.5805 -118.215 46.8028 -114.73L51.7764 -114.815C51.5688 -118.07 51.5796 -121.377 51.8197 -124.742L46.8485 -125.336ZM51.0013 -94.0253C53.2712 -87.4596 56.386 -81.1023 60.247 -74.9278L64.4297 -77.4535C60.7586 -83.3244 57.8267 -89.3213 55.7004 -95.4715L51.0013 -94.0253ZM73.0247 -57.9852C77.5305 -52.8885 82.537 -47.9052 87.9834 -43.0168L91.2013 -46.69C85.8857 -51.461 81.0286 -56.2987 76.6782 -61.2194L73.0247 -57.9852ZM104.226 -29.6442C109.608 -25.5469 115.285 -21.5032 121.219 -17.5017L123.856 -21.6284C117.994 -25.5808 112.402 -29.5651 107.111 -33.5926L104.226 -29.6442ZM138.756 -6.22824C144.529 -2.67624 150.487 0.852006 156.602 4.36469L158.916 0.0366081C152.84 -3.45337 146.928 -6.95427 141.207 -10.4746L138.756 -6.22824ZM174.68 14.4733C180.653 17.7329 186.743 20.9868 192.928 24.2415L195.07 19.8194C188.904 16.5748 182.838 13.3337 176.893 10.0891L174.68 14.4733ZM211.294 33.7807C217.376 36.9052 223.528 40.037 229.73 43.1817L231.802 38.7231C225.604 35.5808 219.461 32.4535 213.39 29.3348L211.294 33.7807ZM248.193 52.5204C254.315 55.6148 260.467 58.7268 266.635 61.8627L268.712 57.4069C262.539 54.2679 256.381 51.1534 250.259 48.0588L248.193 52.5204ZM285.004 71.2657C291.116 74.4199 297.225 77.6022 303.314 80.8183L305.464 76.3999C299.357 73.1747 293.233 69.9845 287.109 66.8242L285.004 71.2657ZM321.518 90.578C327.575 93.8794 333.596 97.2196 339.563 100.604L341.851 96.2621C335.855 92.861 329.809 89.5062 323.728 86.1924L321.518 90.578ZM357.395 110.96C363.35 114.506 369.231 118.104 375.022 121.758L377.524 117.544C371.691 113.863 365.77 110.241 359.78 106.674L357.395 110.96ZM392.334 133.052C398.092 136.942 403.733 140.898 409.24 144.926L412.043 140.916C406.479 136.846 400.783 132.852 394.975 128.928L392.334 133.052ZM425.633 157.47C431.057 161.822 436.313 166.258 441.38 170.785L444.589 167.104C439.446 162.509 434.117 158.012 428.625 153.605L425.633 157.47ZM456.317 184.976C461.196 189.922 465.842 194.974 470.232 200.141L473.955 196.986C469.473 191.711 464.736 186.561 459.77 181.527L456.317 184.976ZM482.869 216.362C486.864 221.991 490.554 227.752 493.911 233.654L498.208 231.319C494.757 225.254 490.971 219.343 486.878 213.577L482.869 216.362ZM503.027 251.941C505.698 258.16 508.009 264.532 509.931 271.066L514.705 269.854C512.722 263.113 510.339 256.544 507.587 250.137L503.027 251.941ZM514.442 290.777C515.517 297.281 516.22 303.943 516.525 310.772L521.504 310.783C521.19 303.754 520.466 296.889 519.358 290.183L514.442 290.777ZM516.294 330.775C516.072 334.124 515.758 337.511 515.349 340.937L520.297 341.766C520.717 338.255 521.039 334.781 521.267 331.344L516.294 330.775ZM515.349 340.937C514.947 344.306 514.484 347.651 513.962 350.974L518.886 351.984C519.417 348.601 519.888 345.195 520.297 341.766L515.349 340.937ZM510.122 370.707C508.6 377.251 506.85 383.702 504.884 390.061L509.65 391.754C511.648 385.288 513.429 378.725 514.978 372.067L510.122 370.707ZM498.318 408.965C495.916 415.185 493.311 421.312 490.514 427.346L495.049 429.64C497.888 423.514 500.535 417.291 502.975 410.97L498.318 408.965ZM481.573 445.158C478.418 450.992 475.087 456.733 471.594 462.382L475.86 465.175C479.4 459.451 482.777 453.631 485.977 447.714L481.573 445.158ZM460.673 479.007C456.893 484.439 452.966 489.781 448.906 495.032L452.894 498.228C457 492.917 460.973 487.512 464.8 482.012L460.673 479.007ZM436.382 510.465C432.097 515.503 427.694 520.452 423.186 525.311L426.903 528.826C431.455 523.919 435.902 518.921 440.232 513.829L436.382 510.465ZM409.383 539.6C404.687 544.273 399.9 548.857 395.035 553.351L398.498 557.119C403.403 552.587 408.232 547.963 412.97 543.248L409.383 539.6ZM380.201 566.584C375.173 570.919 370.08 575.163 364.935 579.318L368.164 583.288C373.346 579.103 378.477 574.827 383.545 570.459L380.201 566.584ZM349.285 591.571C343.98 595.6 338.637 599.536 333.269 603.381L336.283 607.514C341.685 603.645 347.064 599.683 352.405 595.627L349.285 591.571ZM316.92 614.763C311.378 618.515 305.826 622.17 300.278 625.729L303.096 629.995C308.675 626.417 314.259 622.741 319.834 618.966L316.92 614.763ZM283.372 636.293C277.629 639.789 271.908 643.182 266.225 646.47L268.86 650.848C274.571 647.543 280.323 644.133 286.097 640.618L283.372 636.293ZM248.855 656.274C242.924 659.539 237.057 662.687 231.275 665.718L233.739 670.19C239.548 667.145 245.443 663.982 251.403 660.701L248.855 656.274ZM213.495 674.814C207.367 677.872 201.368 680.79 195.524 683.568L197.823 688.123C203.694 685.332 209.72 682.401 215.876 679.328L213.495 674.814ZM177.379 691.98C171.028 694.851 164.924 697.534 159.109 700.03L161.245 704.659C167.086 702.152 173.217 699.456 179.597 696.572L177.379 691.98ZM140.705 707.72C133.835 710.51 127.573 712.964 122.023 715.081L123.98 719.783C129.56 717.654 135.852 715.188 142.755 712.384L140.705 707.72ZM103.355 721.942C100.31 723.013 97.9543 723.815 96.3622 724.348C95.5661 724.615 94.961 724.814 94.5562 724.947C94.3538 725.013 94.2015 725.062 94.1004 725.095C94.0499 725.111 94.0121 725.123 93.9873 725.131C93.9749 725.135 93.9658 725.138 93.9599 725.14C93.9569 725.141 93.9548 725.142 93.9535 725.142C93.9528 725.142 93.9524 725.143 93.9521 725.143C93.952 725.143 93.9519 725.143 93.9519 725.143C93.9519 725.143 93.9519 725.143 93.9519 725.143C93.9519 725.143 93.952 725.143 94.8062 727.537C95.6604 729.931 95.6604 729.931 95.6605 729.931C95.6606 729.931 95.6607 729.931 95.6608 729.931C95.661 729.931 95.6612 729.93 95.6615 729.93C95.6621 729.93 95.6628 729.93 95.6638 729.93C95.6657 729.929 95.6685 729.928 95.6721 729.927C95.6793 729.925 95.6897 729.921 95.7034 729.917C95.7307 729.908 95.7711 729.895 95.8242 729.878C95.9305 729.844 96.088 729.793 96.2957 729.725C96.711 729.589 97.3269 729.386 98.1339 729.116C99.7479 728.575 102.127 727.766 105.195 726.686L103.355 721.942Z" fill="white"/>
</g>
<g opacity="0.7">
<path style="mix-blend-mode:color-dodge" d="M89.122 688.202C80.5492 688.202 72.1688 690.744 65.0407 695.507C57.9127 700.27 52.357 707.04 49.0763 714.96C45.7956 722.88 44.9373 731.595 46.6097 740.003C48.2822 748.412 52.4104 756.135 58.4724 762.197C64.5343 768.259 72.2577 772.387 80.6658 774.06C89.0739 775.732 97.7892 774.874 105.709 771.593C113.63 768.312 120.399 762.757 125.162 755.629C129.925 748.5 132.467 740.12 132.467 731.547C132.467 725.855 131.346 720.219 129.168 714.96C126.989 709.701 123.797 704.923 119.772 700.898C115.747 696.873 110.968 693.68 105.709 691.502C100.451 689.323 94.8142 688.202 89.122 688.202ZM89.122 760.486C83.3882 760.486 77.7831 758.785 73.0158 755.599C68.2484 752.414 64.5329 747.885 62.3393 742.588C60.1456 737.29 59.5723 731.461 60.6918 725.838C61.8113 720.214 64.5734 715.049 68.6287 710.995C72.684 706.942 77.8504 704.182 83.4743 703.065C89.0983 701.948 94.9272 702.523 100.224 704.719C105.521 706.915 110.047 710.633 113.231 715.402C116.415 720.17 118.113 725.776 118.11 731.51C118.115 735.319 117.369 739.092 115.914 742.613C114.459 746.133 112.325 749.333 109.632 752.027C106.94 754.722 103.742 756.86 100.223 758.317C96.7036 759.775 92.9313 760.525 89.122 760.523V760.486Z" fill="url(#paint0_linear_139_8)"/>
<path style="mix-blend-mode:color-dodge" d="M112.053 733.105C111.841 738.007 109.912 742.679 106.604 746.303C103.296 749.928 98.82 752.275 93.9575 752.933V763.365C101.582 762.676 108.69 759.216 113.935 753.64C119.181 748.063 122.2 740.758 122.422 733.105H112.053Z" fill="url(#paint1_linear_139_8)"/>
<path style="mix-blend-mode:color-dodge" d="M83.626 767.116C75.4011 765.839 67.8722 761.754 62.3193 755.553C56.7665 749.353 53.5325 741.421 53.1673 733.105H35.3457C35.727 746.148 40.8331 758.608 49.7142 768.168C58.5953 777.728 70.6465 783.736 83.626 785.074V767.116Z" fill="url(#paint2_linear_139_8)"/>
<path style="mix-blend-mode:color-dodge" d="M83.6261 678.008C71.2362 679.286 59.6731 684.822 50.9078 693.671C42.1425 702.521 36.7175 714.136 35.5576 726.538H53.4789C54.5529 718.883 58.0636 711.777 63.4912 706.273C68.9187 700.77 75.9745 697.16 83.6136 695.979L83.6261 678.008Z" fill="url(#paint3_linear_139_8)"/>
<path style="mix-blend-mode:color-dodge" d="M96.7871 784.152C109.177 782.874 120.74 777.339 129.505 768.489C138.271 759.64 143.696 748.024 144.856 735.623H126.922C125.848 743.278 122.337 750.383 116.91 755.887C111.482 761.391 104.426 765 96.7871 766.181V784.152Z" fill="url(#paint4_linear_139_8)"/>
<path style="mix-blend-mode:color-dodge" d="M95.8521 664V686.246C105.5 687.557 114.456 691.983 121.357 698.851C128.259 705.719 132.729 714.653 134.087 724.294H156.346C154.89 708.762 148.043 694.229 136.994 683.216C125.945 672.203 111.389 665.405 95.8521 664Z" fill="url(#paint5_linear_139_8)"/>
<path style="mix-blend-mode:color-dodge" d="M89.122 688.202C80.5492 688.202 72.1688 690.744 65.0407 695.507C57.9127 700.27 52.357 707.04 49.0763 714.96C45.7956 722.88 44.9373 731.595 46.6097 740.003C48.2822 748.412 52.4104 756.135 58.4724 762.197C64.5343 768.259 72.2577 772.387 80.6658 774.06C89.0739 775.732 97.7892 774.874 105.709 771.593C113.63 768.312 120.399 762.757 125.162 755.629C129.925 748.5 132.467 740.12 132.467 731.547C132.467 725.855 131.346 720.219 129.168 714.96C126.989 709.701 123.797 704.923 119.772 700.898C115.747 696.873 110.968 693.68 105.709 691.502C100.451 689.323 94.8142 688.202 89.122 688.202ZM89.122 760.486C83.3882 760.486 77.7831 758.785 73.0158 755.599C68.2484 752.414 64.5329 747.885 62.3393 742.588C60.1456 737.29 59.5723 731.461 60.6918 725.838C61.8113 720.214 64.5734 715.049 68.6287 710.995C72.684 706.942 77.8504 704.182 83.4743 703.065C89.0983 701.948 94.9272 702.523 100.224 704.719C105.521 706.915 110.047 710.633 113.231 715.402C116.415 720.17 118.113 725.776 118.11 731.51C118.115 735.319 117.369 739.092 115.914 742.613C114.459 746.133 112.325 749.333 109.632 752.027C106.94 754.722 103.742 756.86 100.223 758.317C96.7036 759.775 92.9313 760.525 89.122 760.523V760.486Z" fill="url(#paint6_linear_139_8)"/>
<path style="mix-blend-mode:color-dodge" d="M112.053 733.105C111.841 738.007 109.912 742.679 106.604 746.303C103.296 749.928 98.82 752.275 93.9575 752.933V763.365C101.582 762.676 108.69 759.216 113.935 753.64C119.181 748.063 122.2 740.758 122.422 733.105H112.053Z" fill="url(#paint7_linear_139_8)"/>
<path style="mix-blend-mode:color-dodge" d="M85.8067 698.746C78.0789 699.554 70.869 703.012 65.401 708.532C59.933 714.053 56.5439 721.295 55.8091 729.03H67.0255C67.693 724.252 69.8832 719.817 73.2709 716.382C76.6586 712.947 81.0633 710.696 85.8316 709.962L85.8067 698.746Z" fill="url(#paint8_linear_139_8)"/>
<path style="mix-blend-mode:color-dodge" d="M95.8521 664V686.246C105.5 687.557 114.456 691.983 121.357 698.851C128.259 705.719 132.729 714.653 134.087 724.294H156.346C154.89 708.762 148.043 694.229 136.994 683.216C125.945 672.203 111.389 665.405 95.8521 664Z" fill="url(#paint9_linear_139_8)"/>
</g>
<circle cx="89.3457" cy="731" r="27" fill="url(#paint10_linear_139_8)"/>
<path d="M109.574 705.243C110.438 704.437 111.587 703.991 112.78 704C113.973 704.009 115.116 704.472 115.968 705.291C116.819 706.11 117.313 707.221 117.344 708.39C117.376 709.559 116.943 710.694 116.137 711.557L91.6635 741.559C91.2427 742.003 90.7348 742.36 90.1702 742.607C89.6056 742.855 88.9959 742.988 88.3775 742.999C87.7591 743.01 87.1448 742.899 86.5712 742.672C85.9976 742.446 85.4766 742.108 85.0393 741.679L68.8098 725.77C68.3579 725.357 67.9954 724.859 67.7439 724.306C67.4925 723.753 67.3573 723.156 67.3464 722.55C67.3355 721.945 67.4491 721.344 67.6805 720.782C67.9119 720.221 68.2562 719.711 68.6931 719.282C69.1299 718.854 69.6502 718.517 70.223 718.29C70.7958 718.063 71.4094 717.952 72.027 717.962C72.6447 717.973 73.2539 718.105 73.8181 718.352C74.3824 718.598 74.8903 718.954 75.3114 719.397L88.1551 731.981L109.457 705.376C109.495 705.329 109.536 705.285 109.58 705.243H109.574Z" fill="#16171B"/>
<g opacity="0.7">
<path style="mix-blend-mode:color-dodge" d="M516.122 243.202C507.549 243.202 499.168 245.744 492.04 250.507C484.912 255.27 479.357 262.04 476.076 269.96C472.795 277.88 471.937 286.595 473.609 295.003C475.282 303.412 479.41 311.135 485.472 317.197C491.534 323.259 499.257 327.387 507.665 329.06C516.073 330.732 524.789 329.874 532.709 326.593C540.629 323.312 547.399 317.757 552.162 310.629C556.924 303.5 559.467 295.12 559.467 286.547C559.467 280.855 558.345 275.219 556.167 269.96C553.989 264.701 550.796 259.923 546.771 255.898C542.746 251.873 537.968 248.68 532.709 246.502C527.45 244.323 521.814 243.202 516.122 243.202ZM516.122 315.486C510.388 315.486 504.783 313.785 500.015 310.599C495.248 307.414 491.532 302.885 489.339 297.588C487.145 292.29 486.572 286.461 487.691 280.838C488.811 275.214 491.573 270.049 495.628 265.995C499.684 261.942 504.85 259.182 510.474 258.065C516.098 256.948 521.927 257.523 527.223 259.719C532.52 261.915 537.047 265.633 540.23 270.402C543.414 275.17 545.112 280.776 545.11 286.51C545.115 290.319 544.368 294.092 542.914 297.613C541.459 301.133 539.324 304.333 536.632 307.027C533.939 309.722 530.742 311.86 527.222 313.317C523.703 314.775 519.931 315.525 516.122 315.523V315.486Z" fill="url(#paint11_linear_139_8)"/>
<path style="mix-blend-mode:color-dodge" d="M539.054 288.105C538.841 293.008 536.912 297.679 533.604 301.304C530.297 304.928 525.82 307.275 520.958 307.933V318.365C528.583 317.676 535.69 314.216 540.936 308.64C546.181 303.063 549.201 295.758 549.423 288.105H539.054Z" fill="url(#paint12_linear_139_8)"/>
<path style="mix-blend-mode:color-dodge" d="M510.626 322.116C502.401 320.839 494.872 316.754 489.319 310.553C483.766 304.353 480.533 296.421 480.167 288.105H462.346C462.727 301.148 467.833 313.608 476.714 323.168C485.595 332.728 497.647 338.736 510.626 340.075V322.116Z" fill="url(#paint13_linear_139_8)"/>
<path style="mix-blend-mode:color-dodge" d="M510.626 233.008C498.236 234.286 486.673 239.822 477.908 248.671C469.142 257.521 463.718 269.136 462.558 281.538H480.479C481.553 273.883 485.064 266.777 490.491 261.273C495.919 255.77 502.974 252.16 510.614 250.979L510.626 233.008Z" fill="url(#paint14_linear_139_8)"/>
<path style="mix-blend-mode:color-dodge" d="M523.787 339.152C536.177 337.874 547.74 332.339 556.505 323.489C565.271 314.64 570.696 303.024 571.856 290.623H553.922C552.848 298.278 549.337 305.383 543.91 310.887C538.482 316.391 531.426 320 523.787 321.181V339.152Z" fill="url(#paint15_linear_139_8)"/>
<path style="mix-blend-mode:color-dodge" d="M522.852 219V241.246C532.499 242.557 541.455 246.983 548.357 253.851C555.259 260.719 559.728 269.653 561.087 279.294H583.345C581.889 263.762 575.043 249.229 563.994 238.216C552.944 227.203 538.389 220.405 522.852 219Z" fill="url(#paint16_linear_139_8)"/>
<path style="mix-blend-mode:color-dodge" d="M516.122 243.202C507.549 243.202 499.168 245.744 492.04 250.507C484.912 255.27 479.357 262.04 476.076 269.96C472.795 277.88 471.937 286.595 473.609 295.003C475.282 303.412 479.41 311.135 485.472 317.197C491.534 323.259 499.257 327.387 507.665 329.06C516.073 330.732 524.789 329.874 532.709 326.593C540.629 323.312 547.399 317.757 552.162 310.629C556.924 303.5 559.467 295.12 559.467 286.547C559.467 280.855 558.345 275.219 556.167 269.96C553.989 264.701 550.796 259.923 546.771 255.898C542.746 251.873 537.968 248.68 532.709 246.502C527.45 244.323 521.814 243.202 516.122 243.202ZM516.122 315.486C510.388 315.486 504.783 313.785 500.015 310.599C495.248 307.414 491.532 302.885 489.339 297.588C487.145 292.29 486.572 286.461 487.691 280.838C488.811 275.214 491.573 270.049 495.628 265.995C499.684 261.942 504.85 259.182 510.474 258.065C516.098 256.948 521.927 257.523 527.223 259.719C532.52 261.915 537.047 265.633 540.23 270.402C543.414 275.17 545.112 280.776 545.11 286.51C545.115 290.319 544.368 294.092 542.914 297.613C541.459 301.133 539.324 304.333 536.632 307.027C533.939 309.722 530.742 311.86 527.222 313.317C523.703 314.775 519.931 315.525 516.122 315.523V315.486Z" fill="url(#paint17_linear_139_8)"/>
<path style="mix-blend-mode:color-dodge" d="M539.054 288.105C538.841 293.008 536.912 297.679 533.604 301.304C530.297 304.928 525.82 307.275 520.958 307.933V318.365C528.583 317.676 535.69 314.216 540.936 308.64C546.181 303.063 549.201 295.758 549.423 288.105H539.054Z" fill="url(#paint18_linear_139_8)"/>
<path style="mix-blend-mode:color-dodge" d="M512.807 253.746C505.079 254.554 497.869 258.012 492.401 263.532C486.933 269.053 483.544 276.295 482.81 284.03H494.026C494.694 279.252 496.884 274.817 500.271 271.382C503.659 267.947 508.064 265.696 512.832 264.962L512.807 253.746Z" fill="url(#paint19_linear_139_8)"/>
<path style="mix-blend-mode:color-dodge" d="M522.852 219V241.246C532.499 242.557 541.455 246.983 548.357 253.851C555.259 260.719 559.728 269.653 561.087 279.294H583.345C581.889 263.762 575.043 249.229 563.994 238.216C552.944 227.203 538.389 220.405 522.852 219Z" fill="url(#paint20_linear_139_8)"/>
</g>
<circle cx="516.346" cy="286" r="27" fill="url(#paint21_linear_139_8)"/>
<path d="M536.574 260.243C537.438 259.437 538.587 258.991 539.78 259C540.973 259.009 542.116 259.472 542.968 260.291C543.819 261.11 544.313 262.221 544.344 263.39C544.376 264.559 543.943 265.694 543.137 266.557L518.664 296.559C518.243 297.003 517.735 297.36 517.17 297.607C516.606 297.855 515.996 297.988 515.377 297.999C514.759 298.01 514.145 297.899 513.571 297.672C512.998 297.446 512.477 297.108 512.039 296.679L495.81 280.77C495.358 280.357 494.995 279.859 494.744 279.306C494.493 278.753 494.357 278.156 494.346 277.55C494.336 276.945 494.449 276.344 494.681 275.782C494.912 275.221 495.256 274.711 495.693 274.282C496.13 273.854 496.65 273.517 497.223 273.29C497.796 273.063 498.409 272.952 499.027 272.962C499.645 272.973 500.254 273.105 500.818 273.352C501.382 273.598 501.89 273.954 502.311 274.397L515.155 286.981L536.457 260.376C536.495 260.329 536.536 260.285 536.58 260.243H536.574Z" fill="#16171B"/>
<defs>
<filter id="filter0_d_139_8" x="-160.169" y="-526.855" width="914.007" height="1278.7" filterUnits="userSpaceOnUse" color-interpolation-filters="sRGB">
<feFlood flood-opacity="0" result="BackgroundImageFix"/>
<feColorMatrix in="SourceAlpha" type="matrix" values="0 0 0 0 0 0 0 0 0 0 0 0 0 0 0 0 0 0 127 0" result="hardAlpha"/>
<feOffset dy="4"/>
<feGaussianBlur stdDeviation="7.5"/>
<feComposite in2="hardAlpha" operator="out"/>
<feColorMatrix type="matrix" values="0 0 0 0 0 0 0 0 0 0.6 0 0 0 0 0.282353 0 0 0 0.53 0"/>
<feBlend mode="normal" in2="BackgroundImageFix" result="effect1_dropShadow_139_8"/>
<feBlend mode="normal" in="SourceGraphic" in2="effect1_dropShadow_139_8" result="shape"/>
</filter>
<filter id="filter1_d_139_8" x="-160.169" y="-526.855" width="914.007" height="1278.7" filterUnits="userSpaceOnUse" color-interpolation-filters="sRGB">
<feFlood flood-opacity="0" result="BackgroundImageFix"/>
<feColorMatrix in="SourceAlpha" type="matrix" values="0 0 0 0 0 0 0 0 0 0 0 0 0 0 0 0 0 0 127 0" result="hardAlpha"/>
<feOffset dy="4"/>
<feGaussianBlur stdDeviation="7.5"/>
<feComposite in2="hardAlpha" operator="out"/>
<feColorMatrix type="matrix" values="0 0 0 0 0 0 0 0 0 0.6 0 0 0 0 0.282353 0 0 0 0.53 0"/>
<feBlend mode="normal" in2="BackgroundImageFix" result="effect1_dropShadow_139_8"/>
<feBlend mode="normal" in="SourceGraphic" in2="effect1_dropShadow_139_8" result="shape"/>
</filter>
<linearGradient id="paint0_linear_139_8" x1="96.4376" y1="624.58" x2="83.7631" y2="809.962" gradientUnits="userSpaceOnUse">
<stop stop-opacity="0"/>
<stop offset="1" stop-color="white"/>
</linearGradient>
<linearGradient id="paint1_linear_139_8" x1="167.375" y1="752.285" x2="33.5011" y2="743.138" gradientUnits="userSpaceOnUse">
<stop stop-opacity="0"/>
<stop offset="1" stop-color="white"/>
</linearGradient>
<linearGradient id="paint2_linear_139_8" x1="219.98" y1="769.459" x2="-10.2178" y2="753.718" gradientUnits="userSpaceOnUse">
<stop stop-opacity="0"/>
<stop offset="1" stop-color="white"/>
</linearGradient>
<linearGradient id="paint3_linear_139_8" x1="223.806" y1="713.502" x2="-6.40415" y2="697.774" gradientUnits="userSpaceOnUse">
<stop stop-opacity="0"/>
<stop offset="1" stop-color="white"/>
</linearGradient>
<linearGradient id="paint4_linear_139_8" x1="-43.3804" y1="748.659" x2="186.83" y2="764.399" gradientUnits="userSpaceOnUse">
<stop stop-opacity="0"/>
<stop offset="1" stop-color="white"/>
</linearGradient>
<linearGradient id="paint5_linear_139_8" x1="257.306" y1="703.88" x2="-28.3633" y2="684.364" gradientUnits="userSpaceOnUse">
<stop stop-opacity="0"/>
<stop offset="1" stop-color="white"/>
</linearGradient>
<linearGradient id="paint6_linear_139_8" x1="96.4376" y1="624.58" x2="83.7631" y2="809.962" gradientUnits="userSpaceOnUse">
<stop stop-opacity="0"/>
<stop offset="1" stop-color="white"/>
</linearGradient>
<linearGradient id="paint7_linear_139_8" x1="167.375" y1="752.285" x2="33.5011" y2="743.138" gradientUnits="userSpaceOnUse">
<stop stop-opacity="0"/>
<stop offset="1" stop-color="white"/>
</linearGradient>
<linearGradient id="paint8_linear_139_8" x1="173.282" y1="720.904" x2="29.6375" y2="711.084" gradientUnits="userSpaceOnUse">
<stop stop-opacity="0"/>
<stop offset="1" stop-color="white"/>
</linearGradient>
<linearGradient id="paint9_linear_139_8" x1="257.306" y1="703.88" x2="-28.3633" y2="684.364" gradientUnits="userSpaceOnUse">
<stop stop-opacity="0"/>
<stop offset="1" stop-color="white"/>
</linearGradient>
<linearGradient id="paint10_linear_139_8" x1="89.3457" y1="704" x2="89.3457" y2="758" gradientUnits="userSpaceOnUse">
<stop stop-color="white"/>
<stop offset="1" stop-color="#EAEAEA"/>
</linearGradient>
<linearGradient id="paint11_linear_139_8" x1="523.437" y1="179.58" x2="510.763" y2="364.962" gradientUnits="userSpaceOnUse">
<stop stop-opacity="0"/>
<stop offset="1" stop-color="white"/>
</linearGradient>
<linearGradient id="paint12_linear_139_8" x1="594.376" y1="307.285" x2="460.502" y2="298.138" gradientUnits="userSpaceOnUse">
<stop stop-opacity="0"/>
<stop offset="1" stop-color="white"/>
</linearGradient>
<linearGradient id="paint13_linear_139_8" x1="646.98" y1="324.459" x2="416.782" y2="308.719" gradientUnits="userSpaceOnUse">
<stop stop-opacity="0"/>
<stop offset="1" stop-color="white"/>
</linearGradient>
<linearGradient id="paint14_linear_139_8" x1="650.806" y1="268.502" x2="420.596" y2="252.774" gradientUnits="userSpaceOnUse">
<stop stop-opacity="0"/>
<stop offset="1" stop-color="white"/>
</linearGradient>
<linearGradient id="paint15_linear_139_8" x1="383.62" y1="303.659" x2="613.83" y2="319.399" gradientUnits="userSpaceOnUse">
<stop stop-opacity="0"/>
<stop offset="1" stop-color="white"/>
</linearGradient>
<linearGradient id="paint16_linear_139_8" x1="684.305" y1="258.88" x2="398.636" y2="239.364" gradientUnits="userSpaceOnUse">
<stop stop-opacity="0"/>
<stop offset="1" stop-color="white"/>
</linearGradient>
<linearGradient id="paint17_linear_139_8" x1="523.437" y1="179.58" x2="510.763" y2="364.962" gradientUnits="userSpaceOnUse">
<stop stop-opacity="0"/>
<stop offset="1" stop-color="white"/>
</linearGradient>
<linearGradient id="paint18_linear_139_8" x1="594.376" y1="307.285" x2="460.502" y2="298.138" gradientUnits="userSpaceOnUse">
<stop stop-opacity="0"/>
<stop offset="1" stop-color="white"/>
</linearGradient>
<linearGradient id="paint19_linear_139_8" x1="600.283" y1="275.904" x2="456.638" y2="266.084" gradientUnits="userSpaceOnUse">
<stop stop-opacity="0"/>
<stop offset="1" stop-color="white"/>
</linearGradient>
<linearGradient id="paint20_linear_139_8" x1="684.305" y1="258.88" x2="398.636" y2="239.364" gradientUnits="userSpaceOnUse">
<stop stop-opacity="0"/>
<stop offset="1" stop-color="white"/>
</linearGradient>
<linearGradient id="paint21_linear_139_8" x1="516.346" y1="259" x2="516.346" y2="313" gradientUnits="userSpaceOnUse">
<stop stop-color="white"/>
<stop offset="1" stop-color="#EAEAEA"/>
</linearGradient>
</defs>
</svg>
