<svg width="294" height="142" viewBox="0 0 294 142" fill="none" xmlns="http://www.w3.org/2000/svg">
<rect x="64" y="71.6367" width="175" height="48.5662" transform="rotate(-15.7958 64 71.6367)" fill="#804118"/>
<rect x="50" y="91.6365" width="175" height="50.159" transform="rotate(-15.7958 50 91.6365)" fill="#804118"/>
<g filter="url(#filter0_d_106_36)">
<path d="M112.105 88.7457C112.752 92.4567 112.254 95.6778 110.609 98.4091C108.964 101.14 106.208 103.025 102.341 104.062C98.1493 105.186 94.3988 104.713 91.0898 102.644C87.8006 100.54 85.5431 97.203 84.3173 92.6325C83.1568 88.3054 83.4768 84.364 85.2771 80.8082C87.1046 77.2452 90.1683 74.8871 94.4683 73.7339C97.903 72.8128 101.044 73.0139 103.892 74.3373C106.74 75.6607 108.689 77.7908 109.737 80.7274L103.53 82.392C102.778 80.8834 101.718 79.8487 100.35 79.2879C99.0016 78.6929 97.4757 78.6238 95.7719 79.0807C94.014 79.5522 92.6607 80.4514 91.7121 81.7784C90.7833 83.0712 90.2677 84.4995 90.1653 86.0634C90.0629 87.6273 90.2402 89.2611 90.6971 90.9649C91.495 93.9398 92.8229 96.1347 94.6808 97.5498C96.5315 98.9377 98.6198 99.3198 100.946 98.6961C104.813 97.6589 106.437 94.9042 105.817 90.4321L112.105 88.7457ZM132.365 64.3095L133.812 69.7048L125.131 72.033L131.43 95.521L125.061 97.2291L118.762 73.7411L110.081 76.0694L108.634 70.6741L132.365 64.3095ZM147.044 60.3293L165.794 86.3048L159.142 88.089L155.14 82.2482L144.39 85.1313L143.767 92.2124L137.276 93.9531L140.513 62.0809L147.044 60.3293ZM152.358 78.0371L145.662 68.3097L144.691 80.0933L152.358 78.0371ZM160.505 56.7625L172.959 53.4225C176.204 52.5521 178.984 52.6473 181.298 53.7082C183.631 54.7347 185.212 56.7895 186.038 59.8726C186.851 62.9015 186.521 65.4542 185.048 67.5304C183.569 69.5797 181.301 71.0141 178.245 71.8337L171.754 73.5744L174.539 83.9594L168.252 85.6458L160.505 56.7625ZM168.186 60.2687L170.416 68.5848L176.055 67.0725C179.354 66.1876 180.634 64.3659 179.894 61.6074C179.147 58.8219 177.137 57.8679 173.865 58.7455L168.186 60.2687ZM208.982 43.7614L210.429 49.1568L201.748 51.485L208.047 74.973L201.678 76.6811L195.379 53.1931L186.697 55.5213L185.25 50.126L208.982 43.7614Z" fill="white"/>
</g>
<defs>
<filter id="filter0_d_106_36" x="80.27" y="43.0718" width="140.643" height="66.7325" filterUnits="userSpaceOnUse" color-interpolation-filters="sRGB">
<feFlood flood-opacity="0" result="BackgroundImageFix"/>
<feColorMatrix in="SourceAlpha" type="matrix" values="0 0 0 0 0 0 0 0 0 0 0 0 0 0 0 0 0 0 127 0" result="hardAlpha"/>
<feOffset dx="4" dy="2"/>
<feComposite in2="hardAlpha" operator="out"/>
<feColorMatrix type="matrix" values="0 0 0 0 0.2 0 0 0 0 0.0431373 0 0 0 0 0.00392157 0 0 0 1 0"/>
<feBlend mode="normal" in2="BackgroundImageFix" result="effect1_dropShadow_106_36"/>
<feBlend mode="normal" in="SourceGraphic" in2="effect1_dropShadow_106_36" result="shape"/>
</filter>
</defs>
</svg>
