<svg width="11" height="8" viewBox="0 0 11 8" fill="none" xmlns="http://www.w3.org/2000/svg">
<path d="M10.739 1.10398L9.82846 0.188613C9.70409 0.063576 9.55156 -0.00012207 9.37322 -0.00012207C9.19487 -0.00012207 9.04234 0.063576 8.91797 0.188613L4.52275 4.61445L2.55393 2.62801C2.42956 2.50297 2.27703 2.43928 2.09869 2.43928C1.92034 2.43928 1.76781 2.50297 1.64344 2.62801L0.730607 3.54338C0.606236 3.66841 0.542877 3.82176 0.542877 4.00106C0.542877 4.18036 0.606236 4.3337 0.730607 4.45874L3.15701 6.89578L4.0675 7.81114C4.19187 7.93618 4.34441 7.99988 4.52275 7.99988C4.70109 7.99988 4.85362 7.93618 4.97799 7.81114L5.88848 6.89578L10.739 2.0217C10.8633 1.89666 10.9267 1.74332 10.9267 1.56402C10.9267 1.38236 10.8657 1.23137 10.739 1.10398Z" fill="white"/>
</svg>
