<svg width="55" height="54" viewBox="0 0 55 54" fill="none" xmlns="http://www.w3.org/2000/svg">
<path d="M28.2206 35.1171C27.7676 35.3396 27.2326 35.3396 26.7794 35.1171L10.8496 27.2966L13.0437 36.0782C13.1334 36.4335 13.3443 36.7472 13.6432 36.9665C17.7219 39.97 22.6109 41.4731 27.5 41.4731C32.3891 41.4731 37.2781 39.9699 41.3568 36.9665C41.6557 36.7472 41.8666 36.4335 41.9563 36.0782L44.1504 27.2966L28.2206 35.1171Z" fill="#F5E832"/>
<path d="M54.6607 42.968C53.3539 43.8662 51.7712 44.4023 50.0586 44.4023C48.346 44.4023 46.7633 43.8662 45.4565 42.968C45.321 43.4251 45.2246 43.899 45.2246 44.4023C45.2246 47.7703 48.7573 50.1959 49.1601 50.4616C49.7046 50.8201 50.4127 50.8201 50.9572 50.4616C51.3599 50.1959 54.8926 47.7703 54.8926 44.4023C54.8926 43.899 54.7962 43.4251 54.6607 42.968Z" fill="#F5E832"/>
<path d="M51.6699 32.0375V20.0677L54.1094 18.923C54.6554 18.6541 55 18.1073 55 17.5078C55 16.9083 54.6554 16.3614 54.1094 16.0926L28.2207 3.43636C27.7675 3.21392 27.2325 3.21392 26.7793 3.43636L0.890635 16.0926C0.344609 16.3614 0 16.9083 0 17.5078C0 18.1073 0.344609 18.6541 0.890635 18.923L26.7793 31.5792C27.2325 31.8016 27.7675 31.8016 28.2207 31.5792L48.4473 21.6498V32.0375C46.5758 32.6928 45.2246 34.4324 45.2246 36.4922C45.2246 39.1093 47.393 41.2383 50.0586 41.2383C52.7242 41.2383 54.8926 39.1093 54.8926 36.4922C54.8926 34.4324 53.5414 32.6928 51.6699 32.0375ZM35.4748 15.8454C33.3458 17.9373 30.5134 19.0898 27.5 19.0898C24.4866 19.0898 21.6542 17.9373 19.5252 15.8454C18.8958 15.2274 18.8958 14.2248 19.5252 13.6083C20.1546 12.9903 21.1744 12.9903 21.8037 13.6083C24.847 16.5962 30.1531 16.5962 33.1964 13.6083C33.8258 12.9903 34.8455 12.9903 35.4749 13.6083C36.1043 14.2248 36.1043 15.2274 35.4748 15.8454Z" fill="#F5E832"/>
</svg>
