<svg width="55" height="55" viewBox="0 0 55 55" fill="none" xmlns="http://www.w3.org/2000/svg">
<path d="M41.6097 22.1106C40.0115 22.1106 38.7114 23.4108 38.7114 25.0088C38.7114 26.6069 40.0117 27.9071 41.6097 27.9071C43.2078 27.9071 44.5079 26.6068 44.5079 25.0088C44.508 23.4108 43.2079 22.1106 41.6097 22.1106Z" fill="#F5E832"/>
<path d="M54.8392 33.6828L51.7421 16.8612C51.0089 12.8791 47.545 9.98877 43.5056 9.98877H37.8173C37.4302 9.98877 37.0559 10.1282 36.7632 10.3815L33.4907 13.2124H21.5092L18.2367 10.3815C17.9438 10.1282 17.5697 9.98877 17.1825 9.98877H11.4942C7.45484 9.98877 3.9907 12.879 3.25776 16.8612L0.160681 33.6828C-0.784846 38.8178 2.53696 43.7623 7.64165 44.8119C11.2215 45.548 14.8435 44.2123 17.0942 41.3263L20.6321 36.7901H34.368L37.9058 41.3263C40.143 44.1948 43.7565 45.5524 47.3584 44.8119C52.451 43.7648 55.7867 38.8288 54.8392 33.6828ZM17.917 26.6201H15.5824V28.9547C15.5824 29.8446 14.8609 30.5661 13.9711 30.5661C13.0812 30.5661 12.3597 29.8446 12.3597 28.9547V26.6201H10.0252C9.13535 26.6201 8.4139 25.8987 8.4139 25.0088C8.4139 24.1189 9.13535 23.3975 10.0252 23.3975H12.3598V21.0628C12.3598 20.1729 13.0813 19.4515 13.9712 19.4515C14.861 19.4515 15.5825 20.1729 15.5825 21.0628V23.3975H17.917C18.8069 23.3975 19.5283 24.1189 19.5283 25.0088C19.5283 25.8987 18.8069 26.6201 17.917 26.6201ZM41.6095 31.1297C38.2345 31.1297 35.4886 28.3839 35.4886 25.0088C35.4886 21.6337 38.2344 18.8879 41.6095 18.8879C44.9845 18.8879 47.7304 21.6337 47.7304 25.0088C47.7304 28.384 44.9847 31.1297 41.6095 31.1297Z" fill="#F5E832"/>
</svg>
