<svg width="55" height="54" viewBox="0 0 55 54" fill="none" xmlns="http://www.w3.org/2000/svg">
<g clip-path="url(#clip0_58_193)">
<path d="M53.3887 11.8619H29.087C28.0149 10.8152 26.5386 10.1672 24.911 10.1672H16.2811C13.0136 10.1672 10.3553 12.7775 10.3553 15.9859V19.0958C8.32 19.8838 6.90332 21.6107 6.90332 23.611V24.0579C7.43033 23.9865 7.96809 23.9488 8.51465 23.9488H39.5814C40.1279 23.9488 40.6657 23.9865 41.1925 24.0579V23.611C41.1925 20.8701 38.534 18.6402 35.2662 18.6402H30.8368V15.9859C30.8368 15.6588 30.8079 15.3385 30.7547 15.026H53.3887C54.2787 15.026 55.0001 14.3176 55.0001 13.4439C55.0001 12.5702 54.2787 11.8619 53.3887 11.8619V11.8619Z" fill="#F5E832"/>
<path d="M39.5814 27.1128H8.51469C3.81981 27.1128 0 30.8631 0 35.4727C0 40.0826 3.81981 43.8332 8.51469 43.8332H39.5814C44.2765 43.8332 48.0961 40.0826 48.0961 35.4727C48.096 30.8631 44.2765 27.1128 39.5814 27.1128ZM9.99893 36.5915C9.69923 36.8857 9.2835 37.0545 8.86016 37.0545C8.43595 37.0545 8.02022 36.8857 7.72052 36.5915C7.42081 36.2972 7.24883 35.8891 7.24883 35.4725C7.24883 35.0559 7.42081 34.6487 7.72052 34.3545C8.02022 34.0591 8.43595 33.8904 8.86016 33.8904C9.2834 33.8904 9.69923 34.0592 9.99893 34.3545C10.2986 34.6487 10.4705 35.0557 10.4705 35.4725C10.4705 35.8892 10.2986 36.2972 9.99893 36.5915ZM17.5937 36.5915C17.2928 36.8857 16.8772 37.0545 16.4539 37.0545C16.0296 37.0545 15.614 36.8857 15.3142 36.5915C15.0146 36.2972 14.8426 35.8891 14.8426 35.4725C14.8426 35.0559 15.0146 34.6487 15.3142 34.3545C15.614 34.0591 16.0296 33.8904 16.4539 33.8904C16.8782 33.8904 17.2929 34.0592 17.5937 34.3545C17.8933 34.6487 18.0652 35.0557 18.0652 35.4725C18.0652 35.8892 17.8933 36.2972 17.5937 36.5915ZM25.1873 36.5915C24.8865 36.8857 24.4719 37.0545 24.0477 37.0545C23.6244 37.0545 23.2086 36.8857 22.9089 36.5915C22.6081 36.2972 22.4363 35.8891 22.4363 35.4725C22.4363 35.0559 22.6082 34.6477 22.9089 34.3545C23.2086 34.0591 23.6232 33.8904 24.0477 33.8904C24.4719 33.8904 24.8877 34.0592 25.1873 34.3545C25.487 34.6487 25.659 35.0557 25.659 35.4725C25.659 35.8892 25.487 36.2972 25.1873 36.5915ZM32.7809 36.5915C32.4802 36.8857 32.0654 37.0545 31.6422 37.0545C31.218 37.0545 30.8021 36.8857 30.5025 36.5915C30.2027 36.2972 30.0299 35.8891 30.0299 35.4725C30.0299 35.0559 30.2027 34.6487 30.5025 34.3545C30.8021 34.0591 31.218 33.8904 31.6422 33.8904C32.0654 33.8904 32.4813 34.0592 32.7809 34.3545C33.0807 34.6487 33.2535 35.0568 33.2535 35.4725C33.2535 35.8891 33.0807 36.2962 32.7809 36.5915ZM40.3747 36.5915C40.0749 36.8857 39.6593 37.0545 39.2358 37.0545C38.8116 37.0545 38.396 36.8857 38.0962 36.5915C37.7966 36.2972 37.6245 35.8891 37.6245 35.4725C37.6245 35.0559 37.7966 34.6487 38.0962 34.3545C38.396 34.0591 38.8116 33.8904 39.2358 33.8904C39.6603 33.8904 40.0748 34.0592 40.3747 34.3545C40.6754 34.6487 40.8472 35.0557 40.8472 35.4725C40.8472 35.8892 40.6753 36.2972 40.3747 36.5915Z" fill="#F5E832"/>
</g>
<defs>
<clipPath id="clip0_58_193">
<rect width="55" height="54" fill="white"/>
</clipPath>
</defs>
</svg>
