<svg width="292" height="139" viewBox="0 0 292 139" fill="none" xmlns="http://www.w3.org/2000/svg">
<path d="M59.7833 16H266V72.0443L247.205 93H37V38.2895L59.7833 16Z" fill="#32F53A"/>
<g filter="url(#filter0_d_201_3)">
<path d="M53.032 20H261.5V77.5L242.5 99H30V42.8684L53.032 20Z" fill="#F5E832"/>
<path d="M31 43.2847L53.4441 21H260.5V77.1215L242.049 98H31V43.2847Z" stroke="#16171B" stroke-width="2"/>
</g>
<mask id="mask0_201_3" style="mask-type:alpha" maskUnits="userSpaceOnUse" x="30" y="20" width="232" height="79">
<path d="M31 43.2847L53.4441 21H260.5V77.1215L242.049 98H31V43.2847Z" fill="#F5E832" stroke="#16171B" stroke-width="2"/>
</mask>
<g mask="url(#mask0_201_3)">
<g clip-path="url(#clip0_201_3)">
<path d="M-44.8027 88.0791L-109.244 177.481H-120.086L-55.6441 88.1196L-44.8027 88.0791ZM90.4658 88.0791L26.0243 177.481H15.1829L79.6244 88.1196L90.4658 88.0791ZM0.293411 88.0791L-64.1481 177.481H-74.9895L-10.5579 88.0791H0.293411ZM-67.3409 88.0791L-131.772 177.481H-142.624L-78.1822 88.0791H-67.3409ZM-90.8835 88.0791L-155.325 177.481H-166.166L-101.735 88.0791H-90.8835ZM-22.2546 88.0791L-86.6863 177.481H-97.5376L-33.096 88.0791H-22.2546ZM67.9178 88.0791L3.47622 177.481H-7.36518L57.0764 88.0791H67.9178ZM45.3796 88.0791L-19.0619 177.481H-29.9033L34.5283 88.0791H45.3796ZM22.8315 88.0791L-41.6001 177.481H-52.4613L11.9902 88.1196L22.8315 88.0791Z" fill="#16171B"/>
</g>
<g clip-path="url(#clip1_201_3)">
<path d="M159.86 88.0791L95.4188 177.481H84.5775L149.019 88.1196L159.86 88.0791ZM295.129 88.0791L230.687 177.481H219.846L284.288 88.1196L295.129 88.0791ZM204.956 88.0791L140.515 177.481H129.674L194.105 88.0791H204.956ZM137.322 88.0791L72.8907 177.481H62.0393L126.481 88.0791H137.322ZM113.78 88.0791L49.338 177.481H38.4966L102.928 88.0791H113.78ZM182.408 88.0791L117.977 177.481H107.126L171.567 88.0791H182.408ZM272.581 88.0791L208.139 177.481H197.298L261.739 88.0791H272.581ZM250.043 88.0791L185.601 177.481H174.76L239.191 88.0791H250.043ZM227.495 88.0791L163.063 177.481H152.202L216.653 88.1196L227.495 88.0791Z" fill="#16171B"/>
</g>
</g>
<defs>
<filter id="filter0_d_201_3" x="0" y="0" width="291.5" height="139" filterUnits="userSpaceOnUse" color-interpolation-filters="sRGB">
<feFlood flood-opacity="0" result="BackgroundImageFix"/>
<feColorMatrix in="SourceAlpha" type="matrix" values="0 0 0 0 0 0 0 0 0 0 0 0 0 0 0 0 0 0 127 0" result="hardAlpha"/>
<feOffset dy="10"/>
<feGaussianBlur stdDeviation="15"/>
<feComposite in2="hardAlpha" operator="out"/>
<feColorMatrix type="matrix" values="0 0 0 0 0.960784 0 0 0 0 0.909804 0 0 0 0 0.196078 0 0 0 0.21 0"/>
<feBlend mode="normal" in2="BackgroundImageFix" result="effect1_dropShadow_201_3"/>
<feBlend mode="normal" in="SourceGraphic" in2="effect1_dropShadow_201_3" result="shape"/>
</filter>
<clipPath id="clip0_201_3">
<rect width="319.839" height="17" fill="white" transform="translate(-170.75 88)"/>
</clipPath>
<clipPath id="clip1_201_3">
<rect width="319.839" height="17" fill="white" transform="translate(33.9131 88)"/>
</clipPath>
</defs>
</svg>
