<svg width="36" height="36" viewBox="0 0 36 36" fill="none" xmlns="http://www.w3.org/2000/svg">
<circle cx="18" cy="18" r="17" stroke="white" stroke-width="2"/>
<g clip-path="url(#clip0_509_3)">
<path fill-rule="evenodd" clip-rule="evenodd" d="M13 9C11.9391 9 10.9217 9.42143 10.1716 10.1716C9.42143 10.9217 9 11.9391 9 13V23C9 24.0609 9.42143 25.0783 10.1716 25.8284C10.9217 26.5786 11.9391 27 13 27H23C24.0609 27 25.0783 26.5786 25.8284 25.8284C26.5786 25.0783 27 24.0609 27 23V13C27 11.9391 26.5786 10.9217 25.8284 10.1716C25.0783 9.42143 24.0609 9 23 9H13ZM23.332 16.055C23.4792 15.8343 23.5327 15.5642 23.4808 15.3041C23.4288 15.044 23.2757 14.8152 23.055 14.668C22.8343 14.5208 22.5642 14.4673 22.3041 14.5192C22.044 14.5712 21.8152 14.7243 21.668 14.945C21.314 15.415 20.943 15.865 20.509 16.265C20.006 16.729 19.497 17.077 19.001 17.283L18.993 15.383C18.9643 15.1397 18.8474 14.9155 18.6644 14.7527C18.4813 14.59 18.2449 14.5 18 14.5C17.458 14.531 17 14.931 17 15.5V19.873C15.052 19.333 14 17.443 14 15.5C14 15.2348 13.8946 14.9804 13.7071 14.7929C13.5196 14.6054 13.2652 14.5 13 14.5C12.7348 14.5 12.4804 14.6054 12.2929 14.7929C12.1054 14.9804 12 15.2348 12 15.5C12 19.132 14.51 22 18 22C18.2652 22 18.5196 21.8946 18.7071 21.7071C18.8946 21.5196 19 21.2652 19 21V19.437C20.332 19.543 21.624 20.484 22.106 21.447C22.1622 21.5686 22.2422 21.6776 22.3413 21.7677C22.4404 21.8578 22.5566 21.927 22.683 21.9713C22.8094 22.0156 22.9433 22.0341 23.077 22.0256C23.2107 22.0172 23.3413 21.982 23.461 21.9221C23.5808 21.8622 23.6874 21.7788 23.7743 21.677C23.8613 21.5751 23.9269 21.4569 23.9673 21.3292C24.0077 21.2015 24.022 21.067 24.0094 20.9337C23.9968 20.8003 23.9576 20.6709 23.894 20.553C23.416 19.596 22.524 18.701 21.426 18.117C21.574 17.996 21.721 17.868 21.866 17.735C22.4169 17.2326 22.9088 16.6689 23.332 16.055Z" fill="white"/>
</g>
<defs>
<clipPath id="clip0_509_3">
<rect width="24" height="24" fill="white" transform="translate(6 6)"/>
</clipPath>
</defs>
</svg>
