<svg width="147" height="147" viewBox="0 0 147 147" fill="none" xmlns="http://www.w3.org/2000/svg">
<g filter="url(#filter0_d_58_665)">
<path d="M118.476 86.3494C126.834 68.2762 127.365 48.8505 126.406 32.9984V32.9993C126.294 31.2798 125.446 29.6925 124.078 28.6451C122.711 27.5968 120.957 27.1894 119.268 27.5276C116.22 28.1088 113.107 28.2784 110.013 28.031C91.2928 26.8546 82.4429 19.506 78.3133 13.542V13.5429C77.1698 11.9462 75.3267 11 73.3633 11C71.3999 11 69.5567 11.9463 68.4132 13.5429C64.2847 19.5024 55.432 26.8554 36.7135 28.0318V28.031C33.6204 28.2775 30.5084 28.108 27.4602 27.5276C25.771 27.1885 24.0168 27.5959 22.6493 28.6442C21.2818 29.6917 20.4323 31.2797 20.3207 32.9993C19.352 48.8523 19.8926 68.2751 28.2505 86.3503L16.8193 97.7816V97.7807C15.7934 98.7641 15.156 100.085 15.0253 101.5C14.8939 102.915 15.277 104.329 16.1048 105.485C16.9326 106.64 18.1496 107.458 19.5319 107.788L31.9586 109.305C32.5261 109.485 32.9706 109.93 33.1505 110.497L34.6677 122.924C34.9981 124.306 35.8155 125.522 36.971 126.35C38.1257 127.178 39.5407 127.562 40.9558 127.43C42.3709 127.3 43.6916 126.662 44.6743 125.637L53.6195 116.69C59.0308 120.566 64.8052 123.908 70.8633 126.665C72.4608 127.387 74.291 127.387 75.8877 126.665C81.9449 123.908 87.7204 120.567 93.1315 116.691L102.077 125.638C103.06 126.664 104.38 127.302 105.795 127.432C107.21 127.564 108.625 127.181 109.78 126.353C110.936 125.525 111.753 124.308 112.083 122.926L113.6 110.499C113.78 109.932 114.225 109.487 114.792 109.307L127.219 107.79C128.601 107.459 129.818 106.642 130.646 105.487C131.474 104.332 131.857 102.917 131.727 101.502C131.595 100.087 130.958 98.766 129.932 97.7833L118.476 86.3494ZM41.9304 122.905C41.4711 123.461 40.7488 123.729 40.0378 123.606C39.326 123.484 38.7352 122.99 38.4878 122.312L36.9707 109.882C36.7484 108.799 36.213 107.805 35.4302 107.023C34.6483 106.241 33.6545 105.705 32.5707 105.482L20.1457 103.969C19.4693 103.721 18.9771 103.131 18.8543 102.421C18.7323 101.712 18.9987 100.991 19.5523 100.53L30.0693 90.0194C35.0973 99.4708 42.0585 107.759 50.5005 114.343L41.9304 122.905ZM74.2567 123.151H74.2576C73.6893 123.408 73.0371 123.408 72.4689 123.151C25.619 101.586 22.4769 61.505 24.1864 33.2352C24.2192 32.6367 24.5099 32.0814 24.983 31.7129C25.4561 31.3444 26.0659 31.1991 26.6541 31.3133C30.0464 31.9672 33.5106 32.1627 36.9541 31.8945C57.2243 30.6239 66.9842 22.4103 71.5988 15.7457H71.5996C72.0217 15.2008 72.6731 14.8817 73.3624 14.8817C74.0518 14.8817 74.7031 15.2008 75.1252 15.7457C79.7424 22.4112 89.4999 30.6238 109.77 31.8945H109.771C113.215 32.1627 116.68 31.9672 120.072 31.3133C120.66 31.1991 121.268 31.3436 121.74 31.7103C122.213 32.077 122.504 32.6306 122.538 33.2274C124.249 61.5061 121.105 101.589 74.258 123.152L74.2567 123.151ZM127.807 102.687C127.653 103.297 127.192 103.782 126.59 103.966L114.161 105.483L114.161 105.482C113.078 105.705 112.084 106.241 111.301 107.023C110.519 107.805 109.984 108.799 109.761 109.882L108.238 122.312C107.99 122.988 107.4 123.48 106.69 123.603C105.981 123.725 105.259 123.459 104.799 122.905L96.2256 114.343C104.667 107.758 111.629 99.4709 116.658 90.019L127.173 100.533H127.174C127.757 101.084 128 101.907 127.807 102.686L127.807 102.687Z" fill="white"/>
<path d="M115.117 41.654C115.1 40.5962 114.238 39.7477 113.18 39.7477C98.1485 39.7338 83.4441 35.084 74.6645 26.8632C73.9267 26.1963 72.804 26.1963 72.0662 26.8632C63.2895 35.0802 48.5638 39.7364 33.5487 39.7477C32.4909 39.7477 31.6285 40.5962 31.6112 41.654C31.2583 63.9342 35.1125 95.7424 72.4914 114.562C73.0398 114.838 73.6867 114.838 74.2351 114.562C111.614 95.7393 115.47 63.9364 115.115 41.654H115.117ZM73.3647 110.653C39.7585 93.2876 35.3897 64.5409 35.4672 43.5982C50.5017 43.1294 64.2042 38.6845 73.3647 30.8669C82.5177 38.6827 96.236 43.1389 111.262 43.5982C111.34 64.5327 106.971 93.2845 73.3647 110.653Z" fill="white"/>
<path d="M85.4786 95.6096C85.8307 95.9841 86.3168 96.203 86.8306 96.2185C87.3443 96.2341 87.8434 96.0447 88.2179 95.6926C90.548 93.5009 92.6932 91.1197 94.6307 88.5742C95.2777 87.7213 95.1108 86.5061 94.2579 85.859C93.4051 85.212 92.1898 85.3789 91.5428 86.2318C89.7402 88.6062 87.7422 90.8256 85.5693 92.8678C85.1931 93.219 84.9725 93.7051 84.9552 94.2197C84.9379 94.7344 85.1265 95.2343 85.4785 95.6097L85.4786 95.6096Z" fill="white"/>
<path d="M69.8767 53.4961C69.0282 54.7728 66.4109 58.5553 66.4109 58.5553C66.3642 58.6236 66.2959 58.6738 66.2172 58.698C66.2172 58.698 61.8127 60.0214 60.3371 60.4322H60.3363C59.012 60.8474 57.9696 61.8776 57.5398 63.1983C57.11 64.5182 57.3461 65.9644 58.1721 67.0802C59.1236 68.2816 61.9114 71.9379 61.9114 71.9379V71.937C61.9633 72.0036 61.9901 72.0858 61.9892 72.1697C61.9892 72.1697 61.8828 76.7694 61.8188 78.3022C61.8059 79.6895 62.4658 80.9974 63.5885 81.8129C64.7113 82.6286 66.1582 82.85 67.4739 82.4097C68.9115 81.8752 73.2552 80.3537 73.2552 80.3537H73.2561C73.3331 80.3252 73.417 80.3252 73.4939 80.3537C73.4939 80.3537 77.8359 81.8743 79.2737 82.4097C80.5893 82.8517 82.0371 82.6294 83.1609 81.8138C84.2836 80.9981 84.9427 79.6894 84.9297 78.3021C84.8657 76.7712 84.7593 72.1739 84.7593 72.1739H84.7584C84.7567 72.09 84.7835 72.0078 84.8345 71.9412C84.8345 71.9412 87.6223 68.279 88.5756 67.0784V67.0775C89.4016 65.9626 89.6369 64.5174 89.2079 63.1975C88.7789 61.8784 87.7375 60.8483 86.4132 60.4323C84.9367 60.0214 80.5308 58.698 80.5308 58.698H80.5316C80.4529 58.6747 80.3837 58.6245 80.3379 58.557C80.3379 58.557 77.7188 54.7728 76.8694 53.4963C76.0641 52.3649 74.7615 51.6937 73.3733 51.6937C71.985 51.6937 70.6825 52.3649 69.8771 53.4963L69.8767 53.4961ZM73.6687 55.687L77.1389 60.7478C77.6907 61.5487 78.5003 62.1369 79.4327 62.4145L85.3169 64.1487C85.4337 64.1782 85.5262 64.2664 85.5634 64.3806C85.6015 64.4956 85.5773 64.621 85.5003 64.7144L81.7568 69.5799L81.7577 69.579C81.1678 70.3523 80.859 71.3037 80.8815 72.276L81.0519 78.4085C81.0605 78.5296 81.006 78.6455 80.9074 78.7164C80.8097 78.7873 80.6817 78.8029 80.5701 78.7571L74.7948 76.7054H74.794C73.8754 76.3776 72.872 76.3776 71.9535 76.7054L66.1737 78.7588C66.0622 78.8046 65.9342 78.7899 65.8364 78.719C65.7378 78.6481 65.6833 78.5313 65.692 78.4102L65.8624 72.2742C65.884 71.302 65.5743 70.3505 64.9844 69.5772L61.2357 64.7162C61.1578 64.6219 61.1345 64.4939 61.1742 64.378C61.2132 64.263 61.31 64.1756 61.4294 64.1488L67.3119 62.4145H67.311C68.2443 62.1369 69.0548 61.5478 69.6074 60.746L73.0759 55.6853H73.075C73.1408 55.5875 73.2506 55.5287 73.3683 55.5287C73.4859 55.5296 73.5957 55.5893 73.6606 55.687H73.6687Z" fill="white"/>
<path d="M83.0518 99.1237C83.0518 100.194 82.1842 101.061 81.1143 101.061C80.0443 101.061 79.1768 100.194 79.1768 99.1237C79.1768 98.0537 80.0443 97.1862 81.1143 97.1862C82.1842 97.1862 83.0518 98.0537 83.0518 99.1237Z" fill="white"/>
</g>
<defs>
<filter id="filter0_d_58_665" x="0" y="0" width="146.752" height="146.458" filterUnits="userSpaceOnUse" color-interpolation-filters="sRGB">
<feFlood flood-opacity="0" result="BackgroundImageFix"/>
<feColorMatrix in="SourceAlpha" type="matrix" values="0 0 0 0 0 0 0 0 0 0 0 0 0 0 0 0 0 0 127 0" result="hardAlpha"/>
<feOffset dy="4"/>
<feGaussianBlur stdDeviation="7.5"/>
<feComposite in2="hardAlpha" operator="out"/>
<feColorMatrix type="matrix" values="0 0 0 0 0.960784 0 0 0 0 0.909804 0 0 0 0 0.196078 0 0 0 0.66 0"/>
<feBlend mode="normal" in2="BackgroundImageFix" result="effect1_dropShadow_58_665"/>
<feBlend mode="normal" in="SourceGraphic" in2="effect1_dropShadow_58_665" result="shape"/>
</filter>
</defs>
</svg>
