<svg width="55" height="78" viewBox="0 0 55 78" fill="none" xmlns="http://www.w3.org/2000/svg">
<path d="M27.2933 5.23803e-05C20.9345 -0.0124124 14.7717 2.20013 9.87288 6.25425C4.97403 10.3084 1.64793 15.9486 0.470834 22.1975C-0.706259 28.4464 0.339847 34.9102 3.42797 40.4688C6.51609 46.0274 11.4515 50.3305 17.3791 52.6324L25.8057 77.0098L36.8692 52.7613C42.8414 50.5177 47.8366 46.249 50.9839 40.6996C54.1312 35.1502 55.2309 28.6722 54.0912 22.3951C52.9514 16.118 49.6446 10.44 44.7473 6.35128C39.8501 2.26253 33.673 0.022404 27.2933 0.0214904V5.23803e-05ZM26.8046 47.063C22.8136 47.063 18.9123 45.8795 15.594 43.6621C12.2757 41.4448 9.68946 38.2931 8.16242 34.6059C6.63539 30.9186 6.23614 26.8613 7.01513 22.9471C7.79412 19.0329 9.71638 15.4376 12.5388 12.616C15.3612 9.7943 18.957 7.873 22.8714 7.09505C26.7858 6.3171 30.843 6.71741 34.5299 8.24543C38.2167 9.77344 41.3677 12.3605 43.5842 15.6794C45.8007 18.9983 46.9832 22.8999 46.9821 26.8909C46.9821 29.5404 46.4602 32.1639 45.4461 34.6117C44.432 37.0594 42.9457 39.2834 41.0719 41.1566C39.1982 43.0299 36.9738 44.5156 34.5258 45.5291C32.0778 46.5425 29.4541 47.0637 26.8046 47.063V47.063Z" fill="url(#paint0_linear_58_709)"/>
<defs>
<linearGradient id="paint0_linear_58_709" x1="27.2647" y1="77.0098" x2="27.2647" y2="0" gradientUnits="userSpaceOnUse">
<stop stop-color="#F78500"/>
<stop offset="1" stop-color="#F1C504"/>
</linearGradient>
</defs>
</svg>
