<svg width="1920" height="119" viewBox="0 0 1920 119" fill="none" xmlns="http://www.w3.org/2000/svg">
<g clip-path="url(#clip0_58_112)">
<path d="M-237.102 0.549805L-684.976 621.902H-760.324L-312.45 0.831387L-237.102 0.549805ZM703.025 0.549805L255.151 621.902H179.803L627.677 0.831387L703.025 0.549805ZM76.3199 0.549805L-371.554 621.902H-446.902L0.902466 0.549805H76.3199ZM-393.744 0.549805L-841.548 621.902H-916.966L-469.092 0.549805H-393.744ZM-557.367 0.549805L-1005.24 621.902H-1080.59L-632.785 0.549805H-557.367ZM-80.3909 0.549805L-528.196 621.902H-603.613L-155.74 0.549805H-80.3909ZM546.315 0.549805L98.4406 621.902H23.092L470.966 0.549805H546.315ZM389.673 0.549805L-58.201 621.902H-133.55L314.255 0.549805H389.673ZM232.962 0.549805L-214.843 621.902H-290.33L157.613 0.831387L232.962 0.549805Z" fill="#FAEF59"/>
</g>
<g clip-path="url(#clip1_58_112)">
<path d="M1185.33 0.550537L737.453 621.903H662.105L1109.98 0.832119L1185.33 0.550537ZM2125.45 0.550537L1677.58 621.903H1602.23L2050.11 0.832119L2125.45 0.550537ZM1498.75 0.550537L1050.87 621.903H975.526L1423.33 0.550537H1498.75ZM1028.68 0.550537L580.88 621.903H505.463L953.337 0.550537H1028.68ZM865.061 0.550537L417.188 621.903H341.839L789.644 0.550537H865.061ZM1342.04 0.550537L894.233 621.903H818.815L1266.69 0.550537H1342.04ZM1968.74 0.550537L1520.87 621.903H1445.52L1893.39 0.550537H1968.74ZM1812.1 0.550537L1364.23 621.903H1288.88L1736.68 0.550537H1812.1ZM1655.39 0.550537L1207.59 621.903H1132.1L1580.04 0.832119L1655.39 0.550537Z" fill="#FAEF59"/>
</g>
<defs>
<clipPath id="clip0_58_112">
<rect width="2222.91" height="118.151" fill="white" transform="translate(-1112.45)"/>
</clipPath>
<clipPath id="clip1_58_112">
<rect width="2222.91" height="118.151" fill="white" transform="translate(309.982 0.000732422)"/>
</clipPath>
</defs>
</svg>
