<svg width="29" height="28" viewBox="0 0 29 28" fill="none" xmlns="http://www.w3.org/2000/svg">
<g clip-path="url(#clip0_148_1512)">
<path d="M14.6543 22C14.6543 22 20.6543 16.314 20.6543 12C20.6543 10.4087 20.0222 8.88258 18.8969 7.75736C17.7717 6.63214 16.2456 6 14.6543 6C13.063 6 11.5369 6.63214 10.4117 7.75736C9.28644 8.88258 8.6543 10.4087 8.6543 12C8.6543 16.314 14.6543 22 14.6543 22ZM14.6543 15C13.8586 15 13.0956 14.6839 12.533 14.1213C11.9704 13.5587 11.6543 12.7956 11.6543 12C11.6543 11.2044 11.9704 10.4413 12.533 9.87868C13.0956 9.31607 13.8586 9 14.6543 9C15.4499 9 16.213 9.31607 16.7756 9.87868C17.3382 10.4413 17.6543 11.2044 17.6543 12C17.6543 12.7956 17.3382 13.5587 16.7756 14.1213C16.213 14.6839 15.4499 15 14.6543 15Z" fill="#F5E832"/>
</g>
<circle cx="14.6543" cy="14" r="13" stroke="#28130C" stroke-opacity="0.5" stroke-width="2"/>
<defs>
<clipPath id="clip0_148_1512">
<rect width="16" height="16" fill="white" transform="translate(6.6543 6)"/>
</clipPath>
</defs>
</svg>
