<svg width="29" height="28" viewBox="0 0 29 28" fill="none" xmlns="http://www.w3.org/2000/svg">
<path d="M20.4918 9.59687L18.8277 7.93438C18.7104 7.81647 18.5708 7.72293 18.4172 7.65911C18.2635 7.59529 18.0988 7.56246 17.9324 7.5625C17.5934 7.5625 17.2746 7.69531 17.0355 7.93438L15.2449 9.725C15.127 9.84238 15.0335 9.98191 14.9697 10.1356C14.9058 10.2892 14.873 10.4539 14.873 10.6203C14.873 10.9594 15.0059 11.2781 15.2449 11.5172L16.5543 12.8266C16.2478 13.5021 15.8217 14.1167 15.2965 14.6406C14.7726 15.1671 14.1581 15.5948 13.4824 15.9031L12.173 14.5938C12.0557 14.4758 11.9161 14.3823 11.7625 14.3185C11.6088 14.2547 11.4441 14.2218 11.2777 14.2219C10.9387 14.2219 10.6199 14.3547 10.3809 14.5938L8.58867 16.3828C8.47063 16.5004 8.377 16.6402 8.31318 16.7941C8.24936 16.948 8.2166 17.1131 8.2168 17.2797C8.2168 17.6188 8.34961 17.9375 8.58867 18.1766L10.2496 19.8375C10.6309 20.2203 11.1574 20.4375 11.698 20.4375C11.8121 20.4375 11.9215 20.4281 12.0293 20.4094C14.1355 20.0625 16.2246 18.9422 17.9105 17.2578C19.5949 15.575 20.7137 13.4875 21.0652 11.375C21.1715 10.7297 20.9574 10.0656 20.4918 9.59687Z" fill="#F5E832"/>
<circle cx="14.6543" cy="14" r="13" stroke="#28130C" stroke-opacity="0.5" stroke-width="2"/>
</svg>
