<svg width="29" height="28" viewBox="0 0 29 28" fill="none" xmlns="http://www.w3.org/2000/svg">
<path d="M21.0234 8.66655C20.9628 8.6603 20.9017 8.6603 20.8411 8.66655H8.39669C8.31693 8.66778 8.2377 8.67974 8.16113 8.7021L14.5834 15.0977L21.0234 8.66655Z" fill="#F5E832"/>
<path d="M21.6811 9.28442L15.21 15.7289C15.0434 15.8944 14.8182 15.9874 14.5833 15.9874C14.3485 15.9874 14.1232 15.8944 13.9567 15.7289L7.54332 9.33331C7.5236 9.40578 7.51315 9.48044 7.51221 9.55553V18.4444C7.51221 18.6802 7.60586 18.9063 7.77256 19.073C7.93926 19.2397 8.16535 19.3333 8.4011 19.3333H20.8455C21.0813 19.3333 21.3074 19.2397 21.4741 19.073C21.6408 18.9063 21.7344 18.6802 21.7344 18.4444V9.55553C21.7309 9.46294 21.7129 9.37146 21.6811 9.28442ZM9.00999 18.4444H8.39221V17.8089L11.6233 14.6044L12.25 15.2311L9.00999 18.4444ZM20.8367 18.4444H20.2144L16.9744 15.2311L17.6011 14.6044L20.8322 17.8089L20.8367 18.4444Z" fill="#F5E832"/>
<circle cx="14.6543" cy="14" r="13" stroke="#28130C" stroke-opacity="0.5" stroke-width="2"/>
</svg>
