<svg width="1378" height="16" viewBox="0 0 1378 16" fill="none" xmlns="http://www.w3.org/2000/svg">
<path d="M23.0248 14.992C64.3757 15.4621 105.725 15.7423 147.073 15.8324C172.108 15.8889 197.085 15.8957 222.175 15.7918C258.202 15.6276 294.284 15.263 330.31 14.8388C361.431 14.5006 392.608 14.202 423.729 13.8938L498.487 13.1056C527.24 12.7948 555.993 12.524 584.69 12.1635C650.764 11.339 716.82 10.5213 782.857 9.71043C809.129 9.39778 835.402 9.14514 861.787 8.90166L919.012 8.37205C927.638 8.3088 936.264 8.24555 944.89 8.1823L1008.04 7.87927C1017.17 7.8123 1026.36 7.74491 1035.49 7.79794C1065.89 7.8351 1096.33 7.83185 1126.72 7.93901C1159.99 8.05509 1193.27 8.08104 1226.58 8.01685C1255.56 7.96435 1284.59 7.87144 1313.57 7.61894C1334.93 7.48267 1356.28 7.12581 1377.5 6.55015C1363.52 6.29269 1349.59 5.9848 1335.55 5.75775L1336.79 5.74866C1306 5.2044 1275.04 4.81138 1244.14 4.49795C1220.08 4.25435 1196.01 4.05088 1171.91 3.88756L1198.75 3.47079L1236.86 2.84132C1253.04 2.59268 1269.22 2.28403 1285.45 2.01497C1314.83 1.53959 1344.14 0.964629 1373.34 0.240496C1343.74 -0.0624496 1313.86 0.0966607 1284.09 0.214945C1252.33 0.427834 1220.64 0.650172 1189.03 0.881958C1158.96 1.10244 1128.89 1.41626 1098.82 1.82341C1071.93 2.1506 1045.04 2.4878 1018.09 2.7754L952.806 3.48413C942.206 3.56185 931.551 3.73999 920.952 3.82771L813.831 4.69318C804.81 4.75933 795.789 4.82547 786.825 4.89121L739.973 5.17476L677.109 5.52571C669.498 5.58152 661.886 5.63734 654.274 5.63315L542.132 5.97543C512.419 6.0633 482.761 6.05076 453.104 6.08822C397.398 6.14668 341.749 6.17473 286.043 6.31319C256.612 6.37899 227.181 6.4748 197.694 6.65101L175.142 6.81638C161.724 6.91477 148.268 7.01344 134.774 7.11238C124.513 7.18762 114.196 7.35327 103.879 7.42892C69.3179 7.68235 34.7017 8.08618 0.14114 8.3696C9.22019 8.56303 18.2992 8.75647 27.4344 8.90949L55.2343 9.32566C72.3765 9.57997 89.5185 9.80762 106.66 10.0086C109.818 10.0455 113.032 10.0519 116.246 10.0783C125.38 10.1447 134.515 10.1977 143.649 10.2374C163.779 10.3498 183.908 10.4122 204.093 10.4442C215.37 10.4715 226.646 10.4488 237.923 10.4261C182.278 11.1842 126.693 12.3018 71.3355 13.7077C55.2132 14.1359 39.0907 14.5442 23.0248 14.992Z" fill="#16171B"/>
</svg>
