<svg width="453" height="34" viewBox="0 0 453 34" fill="none" xmlns="http://www.w3.org/2000/svg">
<path d="M178.346 2H179.346V32H178.346V2Z" fill="#F5E832"/>
<path d="M48.2755 2.26093C48.641 2.19824 49.1017 2.1669 49.6422 2.1669C50.1827 2.1669 50.6265 2.19824 50.9927 2.26093L45.2404 12.2946C44.8741 12.3573 44.4288 12.3871 43.8891 12.3871C43.3493 12.3871 42.8887 12.3557 42.5224 12.2946L44.6039 8.68234L40.9169 2.26171C41.2824 2.19903 41.743 2.16769 42.2836 2.16769C42.8241 2.16769 43.2695 2.19903 43.6349 2.26171L45.9552 6.52202L48.2755 2.26093ZM61.0194 2.26093C61.8624 2.12145 62.7055 2.12145 63.547 2.26093V12.2946C62.7047 12.4333 61.8624 12.4333 61.0202 12.2946V8.2498H56.7442V12.2931C55.9028 12.4325 55.0605 12.4325 54.219 12.2931V2.26171C55.0605 2.12224 55.9028 2.12224 56.7442 2.26171V6.19762H61.0202L61.0194 2.26093ZM76.6724 12.2946C75.8302 12.4333 74.9879 12.4333 74.1448 12.2946V6.41388L69.3284 12.2946C68.6773 12.4028 68.0101 12.4028 67.3437 12.2946V2.26093C68.1843 2.12145 69.0266 2.12145 69.8689 2.26093V8.14167L74.6862 2.26093C75.338 2.1528 76.006 2.1528 76.6732 2.26093L76.6724 12.2946ZM84.887 2.24526C85.8874 2.24526 86.6991 2.49209 87.3195 2.98652C87.9383 3.48018 88.2553 4.11487 88.2553 4.88591C88.2553 5.90456 87.7793 6.64504 86.8419 7.10813C87.334 7.3244 87.7317 7.63313 88.0173 8.03432C88.3037 8.43551 88.4465 8.91428 88.4465 9.45494C88.4465 10.3341 88.1287 11.0299 87.4945 11.5393C86.8572 12.0486 85.9988 12.2946 84.9185 12.2946H80.4385V2.26015L84.887 2.24526ZM82.9806 6.38254H84.6023C84.9363 6.38254 85.2073 6.29008 85.4131 6.10516C85.6196 5.92023 85.7148 5.65852 85.7148 5.33412C85.7148 4.63987 85.3485 4.2998 84.6014 4.2998H82.9798V6.38411L82.9806 6.38254ZM82.9806 10.2409H84.7612C85.5083 10.2409 85.8745 9.88513 85.8745 9.15954C85.8745 8.46529 85.4768 8.10954 84.666 8.10954H82.9798L82.9806 10.2409ZM98.9193 10.2417C99.0468 10.9202 99.0468 11.5996 98.9193 12.2946H91.7196V2.26015H98.9193C99.0468 2.9544 99.0468 3.63376 98.9193 4.31312H94.2642V6.19605H98.3788C98.5062 6.89108 98.5062 7.56966 98.3788 8.24902H94.2642V10.2393H98.9193V10.2417ZM106.308 2.26093C107.468 2.26093 108.405 2.56888 109.121 3.18555C109.837 3.80458 110.202 4.62185 110.202 5.62561C110.202 6.62858 109.837 7.44585 109.121 8.0641C108.405 8.68155 107.467 8.98872 106.308 8.98872H104.797V12.2931C103.955 12.431 103.114 12.431 102.272 12.2931V2.26015L106.308 2.26093ZM106.292 6.90754C106.657 6.90754 106.976 6.7994 107.229 6.58314C107.484 6.36844 107.612 6.04404 107.612 5.6115C107.612 5.18054 107.485 4.85535 107.23 4.63987C106.977 4.4236 106.673 4.31468 106.309 4.31468H104.798V6.93966L106.292 6.90832L106.292 6.90754ZM119.196 10.4422C120.132 10.4422 121.134 10.1178 122.199 9.48472C122.278 9.60852 122.31 9.9627 122.294 10.5661C122.278 11.1678 122.246 11.5534 122.183 11.7234C121.325 12.2327 120.276 12.496 119.036 12.496C117.272 12.496 115.858 11.9867 114.793 10.9837C113.728 9.98072 113.203 8.72935 113.203 7.24761C113.203 5.76587 113.744 4.51606 114.809 3.5123C115.874 2.50932 117.288 2 119.052 2C120.292 2 121.34 2.26328 122.199 2.77182C122.263 2.94186 122.294 3.32816 122.31 3.92995C122.326 4.53173 122.294 4.88591 122.215 5.01128C121.15 4.37659 120.15 4.05297 119.211 4.05297C118.241 4.05297 117.43 4.34681 116.779 4.93293C116.127 5.52061 115.809 6.29165 115.809 7.26406C115.809 8.2357 116.127 9.00831 116.779 9.5952C117.43 10.1813 118.241 10.4744 119.211 10.4744L119.194 10.443L119.196 10.4422ZM135.388 12.2946C134.547 12.4333 133.704 12.4333 132.861 12.2946V6.41388L128.045 12.2946C127.395 12.4028 126.727 12.4028 126.06 12.2946V2.26093C126.902 2.12145 127.744 2.12145 128.585 2.26093V8.14167L133.402 2.26093C134.054 2.1528 134.722 2.1528 135.389 2.26093L135.388 12.2946ZM146.766 2.26093C146.893 2.95518 146.893 3.63454 146.766 4.3139H143.968V12.2946C143.126 12.4333 142.284 12.4333 141.441 12.2946V4.3139H138.645C138.516 3.61887 138.516 2.94029 138.645 2.26093H146.766ZM157.286 10.2417C157.412 10.9202 157.412 11.5996 157.286 12.2946H150.086V2.26015H157.286C157.412 2.9544 157.412 3.63376 157.286 4.31312H152.629V6.19605H156.745C156.872 6.89108 156.872 7.56966 156.745 8.24902H152.629V10.2393H157.286V10.2417ZM168.251 2.26093C168.377 2.95518 168.377 3.63454 168.251 4.3139H165.453V12.2946C164.611 12.4333 163.769 12.4333 162.927 12.2946V4.3139H160.13C160.001 3.61887 160.001 2.94029 160.13 2.26093H168.251ZM49.7342 28.7842C51.2025 28.7842 52.7725 28.2764 54.4409 27.2844C54.5651 27.4772 54.6152 28.0343 54.591 28.977C54.5651 29.9196 54.5159 30.5261 54.4159 30.7909C53.071 31.5886 51.4276 32 49.4849 32C46.7209 32 44.5046 31.2008 42.8354 29.6297C41.1678 28.057 40.3457 26.0973 40.3457 23.7764C40.3457 21.4554 41.1928 19.4949 42.8604 17.9231C44.5305 16.3504 46.7475 15.552 49.5115 15.552C51.4542 15.552 53.0976 15.9633 54.4425 16.7618C54.5417 17.0282 54.5926 17.6331 54.6168 18.5766C54.641 19.52 54.5926 20.0763 54.4667 20.2691C52.7991 19.2771 51.2299 18.7701 49.76 18.7701C48.2408 18.7701 46.971 19.2301 45.9504 20.1492C44.929 21.0675 44.4312 22.2766 44.4312 23.8007C44.4312 25.3247 44.929 26.5353 45.9504 27.4537C46.971 28.3728 48.2416 28.8328 49.76 28.8328L49.7358 28.7858L49.7342 28.7842ZM72.6208 31.6858C71.3001 31.9028 69.9802 31.9028 68.6595 31.6858V22.4709L61.1138 31.6858C60.0932 31.8558 59.0484 31.8558 58.0012 31.6858V15.9641C59.3203 15.7463 60.6394 15.7463 61.9601 15.9641V25.179L69.5067 15.9641C70.528 15.7949 71.5736 15.7949 72.6208 15.9641V31.6858ZM86.7152 15.9641C88.0351 15.7463 89.3534 15.7463 90.6741 15.9641V31.6858C89.3542 31.9028 88.0359 31.9028 86.7144 31.6858V25.349H80.0141V31.6858C78.695 31.9028 77.376 31.9028 76.0553 31.6858V15.9641C77.3751 15.7463 78.695 15.7463 80.0141 15.9641V22.1324H86.7136V15.9641H86.7152ZM105.466 28.4676C105.666 29.5333 105.666 30.599 105.466 31.685H94.186V15.9641H105.466C105.666 17.0533 105.666 18.1166 105.466 19.1799H98.1698V22.1316H104.62C104.819 23.2208 104.819 24.2841 104.62 25.349H98.1698V28.4676H105.466ZM114.555 15.9633C116.374 15.9633 117.843 16.4476 118.964 17.4153C120.085 18.383 120.658 19.6642 120.658 21.2368C120.658 22.8087 120.085 24.0906 118.964 25.0583C117.842 26.026 116.374 26.5079 114.555 26.5079H112.19V31.6842C110.87 31.9036 109.55 31.9036 108.229 31.6842V15.9633H114.555ZM114.531 23.2443C115.104 23.2443 115.602 23.0751 116 22.7373C116.398 22.3981 116.598 21.8911 116.598 21.2133C116.598 20.5355 116.398 20.0285 116.001 19.69C115.602 19.3507 115.128 19.1807 114.555 19.1807H112.19V23.2945L114.531 23.2443ZM134.18 15.9641C134.379 17.0533 134.379 18.1174 134.18 19.1799H127.506V31.6858C126.185 31.9028 124.865 31.9028 123.545 31.6858V15.9641H134.18ZM151.462 31.6858C150.142 31.9028 148.824 31.9028 147.503 31.6858V22.4709L139.957 31.6858C138.936 31.8558 137.89 31.8558 136.844 31.6858V15.9641C138.164 15.7463 139.482 15.7463 140.804 15.9641V25.179L148.35 15.9641C149.37 15.7949 150.417 15.7949 151.462 15.9641V31.6858ZM167.326 31.6615C166.005 31.8793 164.685 31.8793 163.365 31.6615V26.341H161.821L158.26 31.6615C157.687 31.7587 156.965 31.8072 156.094 31.8072C155.223 31.8072 154.5 31.7587 153.927 31.6615L157.861 25.7612C156.889 25.349 156.142 24.7441 155.595 23.9464C155.047 23.1472 154.772 22.2304 154.772 21.1882C154.772 19.6399 155.321 18.383 156.417 17.4153C157.512 16.4476 158.982 15.9641 160.8 15.9641H167.349L167.324 31.6615H167.326ZM160.826 19.1556C160.253 19.1556 159.779 19.3264 159.382 19.6634C158.982 20.0027 158.785 20.4861 158.785 21.1396C158.785 21.7931 158.982 22.2758 159.382 22.6151C159.779 22.956 160.277 23.1244 160.85 23.1244H163.34V19.1572H160.826V19.1556Z" fill="white"/>
<path d="M0.345703 32H30.3457V2H0.345703V32ZM26.5967 28.2486H4.0963V5.74901H26.5967V28.2486ZM18.978 26.9619L9.01608 17L18.978 7.03574V12.3392L14.3179 16.9992L18.9787 21.6593L18.978 26.9619Z" fill="#F5E832"/>
<path d="M203.442 9.384C203.442 10.8667 202.924 12.0293 201.89 12.872C200.855 13.7147 199.394 14.168 197.506 14.232V15.416H196.018V14.232C194.13 14.1573 192.663 13.6987 191.618 12.856C190.583 12.0133 190.066 10.856 190.066 9.384C190.066 7.90133 190.583 6.73867 191.618 5.896C192.663 5.05333 194.13 4.59467 196.018 4.52V3.384H197.506V4.52C199.383 4.59467 200.839 5.05867 201.874 5.912C202.919 6.75467 203.442 7.912 203.442 9.384ZM197.506 12.984C198.935 12.8987 200.023 12.552 200.77 11.944C201.527 11.3253 201.906 10.4667 201.906 9.368C201.906 8.29067 201.522 7.448 200.754 6.84C199.996 6.22133 198.914 5.86933 197.506 5.784V12.984ZM191.618 9.384C191.618 10.472 191.996 11.3253 192.754 11.944C193.522 12.552 194.61 12.8987 196.018 12.984V5.784C194.588 5.86933 193.495 6.216 192.738 6.824C191.991 7.432 191.618 8.28533 191.618 9.384ZM213.026 12.2H207.074L205.842 15H204.194L209.266 3.8H210.85L215.938 15H214.258L213.026 12.2ZM212.466 10.92L210.05 5.432L207.634 10.92H212.466ZM221.775 10.072H219.439V15H217.871V3.8H219.439V8.664H221.807L225.327 3.8H227.039L223.039 9.224L227.231 15H225.407L221.775 10.072ZM238.117 3.8L233.141 13.032C232.746 13.768 232.282 14.3173 231.749 14.68C231.216 15.0427 230.634 15.224 230.005 15.224C229.514 15.224 229.013 15.112 228.501 14.888L228.917 13.608C229.312 13.7467 229.664 13.816 229.973 13.816C230.677 13.816 231.258 13.4427 231.717 12.696L231.973 12.296L227.461 3.8H229.173L232.805 10.904L236.533 3.8H238.117ZM248.789 3.8V15H247.221V5.192H242.261L242.149 8.472C242.095 10.0187 241.967 11.272 241.765 12.232C241.573 13.192 241.263 13.9173 240.837 14.408C240.41 14.888 239.834 15.128 239.109 15.128C238.778 15.128 238.442 15.0853 238.101 15L238.213 13.576C238.383 13.6187 238.554 13.64 238.725 13.64C239.183 13.64 239.551 13.4587 239.829 13.096C240.106 12.7227 240.314 12.168 240.453 11.432C240.591 10.696 240.682 9.72533 240.725 8.52L240.901 3.8H248.789ZM257.189 7.704C258.523 7.704 259.541 8.00267 260.245 8.6C260.96 9.19733 261.317 10.0773 261.317 11.24C261.317 12.4667 260.933 13.4 260.165 14.04C259.408 14.68 258.32 15 256.901 15H252.277V3.8H253.861V7.704H257.189ZM256.837 13.736C257.765 13.736 258.475 13.528 258.965 13.112C259.467 12.6853 259.717 12.072 259.717 11.272C259.717 9.736 258.757 8.968 256.837 8.968H253.861V13.736H256.837ZM270.286 5.192H266.446V15H264.878V5.192H261.054V3.8H270.286V5.192ZM280.358 13.608V15H272.23V3.8H280.134V5.192H273.83V8.632H279.446V9.992H273.83V13.608H280.358ZM290.567 5.192H286.727V15H285.159V5.192H281.335V3.8H290.567V5.192ZM296.808 3.8H298.392V12.44L305.016 3.8H306.488V15H304.92V6.376L298.28 15H296.808V3.8ZM317.308 5.192H311.548L311.564 15H309.98V3.8H317.324L317.308 5.192ZM323.598 3.8C325.049 3.8 326.19 4.14667 327.022 4.84C327.854 5.53333 328.27 6.488 328.27 7.704C328.27 8.92 327.854 9.87467 327.022 10.568C326.19 11.2613 325.049 11.608 323.598 11.608H320.83V15H319.23V3.8H323.598ZM323.55 10.216C324.564 10.216 325.337 10.0027 325.87 9.576C326.404 9.13867 326.67 8.51467 326.67 7.704C326.67 6.89333 326.404 6.27467 325.87 5.848C325.337 5.41067 324.564 5.192 323.55 5.192H320.83V10.216H323.55ZM335.692 15.128C334.562 15.128 333.543 14.8827 332.636 14.392C331.73 13.8907 331.015 13.2027 330.492 12.328C329.98 11.4533 329.724 10.4773 329.724 9.4C329.724 8.32267 329.98 7.34667 330.492 6.472C331.015 5.59733 331.73 4.91467 332.636 4.424C333.543 3.92267 334.562 3.672 335.692 3.672C336.812 3.672 337.826 3.92267 338.732 4.424C339.639 4.91467 340.348 5.59733 340.86 6.472C341.372 7.336 341.628 8.312 341.628 9.4C341.628 10.488 341.372 11.4693 340.86 12.344C340.348 13.208 339.639 13.8907 338.732 14.392C337.826 14.8827 336.812 15.128 335.692 15.128ZM335.692 13.704C336.514 13.704 337.25 13.5173 337.9 13.144C338.562 12.7707 339.079 12.2587 339.452 11.608C339.836 10.9467 340.028 10.2107 340.028 9.4C340.028 8.58933 339.836 7.85867 339.452 7.208C339.079 6.54667 338.562 6.02933 337.9 5.656C337.25 5.28267 336.514 5.096 335.692 5.096C334.871 5.096 334.124 5.28267 333.452 5.656C332.791 6.02933 332.268 6.54667 331.884 7.208C331.511 7.85867 331.324 8.58933 331.324 9.4C331.324 10.2107 331.511 10.9467 331.884 11.608C332.268 12.2587 332.791 12.7707 333.452 13.144C334.124 13.5173 334.871 13.704 335.692 13.704ZM351.191 9.192C351.948 9.37333 352.519 9.69867 352.903 10.168C353.297 10.6267 353.495 11.2187 353.495 11.944C353.495 12.9147 353.137 13.6667 352.423 14.2C351.719 14.7333 350.689 15 349.335 15H344.215V3.8H349.031C350.257 3.8 351.212 4.05067 351.895 4.552C352.588 5.04267 352.935 5.752 352.935 6.68C352.935 7.288 352.78 7.80533 352.471 8.232C352.172 8.65867 351.745 8.97867 351.191 9.192ZM345.799 8.728H348.919C349.697 8.728 350.289 8.57333 350.695 8.264C351.111 7.95467 351.319 7.50133 351.319 6.904C351.319 6.30667 351.111 5.85333 350.695 5.544C350.279 5.224 349.687 5.064 348.919 5.064H345.799V8.728ZM349.303 13.736C351.02 13.736 351.879 13.096 351.879 11.816C351.879 11.176 351.66 10.7067 351.223 10.408C350.796 10.0987 350.156 9.944 349.303 9.944H345.799V13.736H349.303ZM361.208 15.128C360.077 15.128 359.058 14.8827 358.152 14.392C357.245 13.8907 356.53 13.2027 356.008 12.328C355.496 11.4533 355.24 10.4773 355.24 9.4C355.24 8.32267 355.496 7.34667 356.008 6.472C356.53 5.59733 357.245 4.91467 358.152 4.424C359.058 3.92267 360.077 3.672 361.208 3.672C362.328 3.672 363.341 3.92267 364.248 4.424C365.154 4.91467 365.864 5.59733 366.376 6.472C366.888 7.336 367.144 8.312 367.144 9.4C367.144 10.488 366.888 11.4693 366.376 12.344C365.864 13.208 365.154 13.8907 364.248 14.392C363.341 14.8827 362.328 15.128 361.208 15.128ZM361.208 13.704C362.029 13.704 362.765 13.5173 363.416 13.144C364.077 12.7707 364.594 12.2587 364.968 11.608C365.352 10.9467 365.544 10.2107 365.544 9.4C365.544 8.58933 365.352 7.85867 364.968 7.208C364.594 6.54667 364.077 6.02933 363.416 5.656C362.765 5.28267 362.029 5.096 361.208 5.096C360.386 5.096 359.64 5.28267 358.968 5.656C358.306 6.02933 357.784 6.54667 357.4 7.208C357.026 7.85867 356.84 8.58933 356.84 9.4C356.84 10.2107 357.026 10.9467 357.4 11.608C357.784 12.2587 358.306 12.7707 358.968 13.144C359.64 13.5173 360.386 13.704 361.208 13.704ZM369.73 3.8H371.314V12.44L377.938 3.8H379.41V15H377.842V6.376L371.202 15H369.73V3.8ZM374.546 3.016C373.672 3.016 372.994 2.82933 372.514 2.456C372.045 2.072 371.805 1.528 371.794 0.823999H372.93C372.941 1.24 373.085 1.56533 373.362 1.8C373.65 2.024 374.045 2.136 374.546 2.136C375.026 2.136 375.41 2.024 375.698 1.8C375.997 1.56533 376.152 1.24 376.162 0.823999H377.282C377.272 1.51733 377.026 2.056 376.546 2.44C376.077 2.824 375.41 3.016 374.546 3.016ZM191.09 19.8H192.674V28.44L199.298 19.8H200.77V31H199.202V22.376L192.562 31H191.09V19.8ZM213.894 19.8V31H212.294V26.008H205.862V31H204.262V19.8H205.862V24.616H212.294V19.8H213.894ZM227.918 29.608V33.448H226.43V31H217.214L217.198 33.448H215.71L215.726 29.608H216.27C216.974 29.5653 217.47 29.0107 217.758 27.944C218.046 26.8667 218.222 25.352 218.286 23.4L218.398 19.8H226.27V29.608H227.918ZM219.694 23.544C219.641 25.1227 219.513 26.4293 219.31 27.464C219.118 28.4987 218.803 29.2133 218.366 29.608H224.686V21.192H219.774L219.694 23.544ZM239.273 19.8L234.297 29.032C233.903 29.768 233.439 30.3173 232.905 30.68C232.372 31.0427 231.791 31.224 231.161 31.224C230.671 31.224 230.169 31.112 229.657 30.888L230.073 29.608C230.468 29.7467 230.82 29.816 231.129 29.816C231.833 29.816 232.415 29.4427 232.873 28.696L233.129 28.296L228.617 19.8H230.329L233.961 26.904L237.689 19.8H239.273ZM245.816 31.128C244.696 31.128 243.683 30.8827 242.776 30.392C241.88 29.8907 241.176 29.208 240.664 28.344C240.152 27.4693 239.896 26.488 239.896 25.4C239.896 24.312 240.152 23.336 240.664 22.472C241.176 21.5973 241.886 20.9147 242.792 20.424C243.699 19.9227 244.712 19.672 245.832 19.672C246.707 19.672 247.507 19.8213 248.232 20.12C248.958 20.408 249.576 20.84 250.088 21.416L249.048 22.424C248.206 21.5387 247.155 21.096 245.896 21.096C245.064 21.096 244.312 21.2827 243.64 21.656C242.968 22.0293 242.44 22.5467 242.056 23.208C241.683 23.8587 241.496 24.5893 241.496 25.4C241.496 26.2107 241.683 26.9467 242.056 27.608C242.44 28.2587 242.968 28.7707 243.64 29.144C244.312 29.5173 245.064 29.704 245.896 29.704C247.144 29.704 248.195 29.256 249.048 28.36L250.088 29.368C249.576 29.944 248.952 30.3813 248.216 30.68C247.491 30.9787 246.691 31.128 245.816 31.128ZM259.864 21.192H256.024V31H254.456V21.192H250.632V19.8H259.864V21.192ZM266.176 19.8C267.627 19.8 268.768 20.1467 269.6 20.84C270.432 21.5333 270.848 22.488 270.848 23.704C270.848 24.92 270.432 25.8747 269.6 26.568C268.768 27.2613 267.627 27.608 266.176 27.608H263.408V31H261.808V19.8H266.176ZM266.128 26.216C267.142 26.216 267.915 26.0027 268.448 25.576C268.982 25.1387 269.248 24.5147 269.248 23.704C269.248 22.8933 268.982 22.2747 268.448 21.848C267.915 21.4107 267.142 21.192 266.128 21.192H263.408V26.216H266.128ZM273.074 19.8H274.658V28.44L281.282 19.8H282.754V31H281.186V22.376L274.546 31H273.074V19.8ZM286.246 19.8H287.83V28.44L294.454 19.8H295.926V31H294.358V22.376L287.718 31H286.246V19.8ZM303.715 19.8H305.299V28.44L311.923 19.8H313.395V31H311.827V22.376L305.187 31H303.715V19.8ZM325.087 26.072H322.751V31H321.183V19.8H322.751V24.664H325.119L328.639 19.8H330.351L326.351 25.224L330.543 31H328.719L325.087 26.072ZM332.183 19.8H333.767V28.44L340.391 19.8H341.863V31H340.295V22.376L333.655 31H332.183V19.8ZM345.355 19.8H353.803V21.16H346.939V24.36H350.427C351.761 24.36 352.774 24.6373 353.467 25.192C354.161 25.7467 354.507 26.5467 354.507 27.592C354.507 28.6907 354.129 29.5333 353.371 30.12C352.625 30.7067 351.553 31 350.155 31H345.355V19.8ZM350.091 29.736C351.009 29.736 351.707 29.56 352.187 29.208C352.667 28.856 352.907 28.3387 352.907 27.656C352.907 26.3013 351.969 25.624 350.091 25.624H346.939V29.736H350.091ZM365.186 29.608V31H357.058V19.8H364.962V21.192H358.658V24.632H364.274V25.992H358.658V29.608H365.186ZM372.067 19.8C373.518 19.8 374.659 20.1467 375.491 20.84C376.323 21.5333 376.739 22.488 376.739 23.704C376.739 24.92 376.323 25.8747 375.491 26.568C374.659 27.2613 373.518 27.608 372.067 27.608H369.299V31H367.699V19.8H372.067ZM372.019 26.216C373.032 26.216 373.806 26.0027 374.339 25.576C374.872 25.1387 375.139 24.5147 375.139 23.704C375.139 22.8933 374.872 22.2747 374.339 21.848C373.806 21.4107 373.032 21.192 372.019 21.192H369.299V26.216H372.019ZM384.129 31.128C383.009 31.128 381.996 30.8827 381.089 30.392C380.193 29.8907 379.489 29.208 378.977 28.344C378.465 27.4693 378.209 26.488 378.209 25.4C378.209 24.312 378.465 23.336 378.977 22.472C379.489 21.5973 380.198 20.9147 381.105 20.424C382.012 19.9227 383.025 19.672 384.145 19.672C385.02 19.672 385.82 19.8213 386.545 20.12C387.27 20.408 387.889 20.84 388.401 21.416L387.361 22.424C386.518 21.5387 385.468 21.096 384.209 21.096C383.377 21.096 382.625 21.2827 381.953 21.656C381.281 22.0293 380.753 22.5467 380.369 23.208C379.996 23.8587 379.809 24.5893 379.809 25.4C379.809 26.2107 379.996 26.9467 380.369 27.608C380.753 28.2587 381.281 28.7707 381.953 29.144C382.625 29.5173 383.377 29.704 384.209 29.704C385.457 29.704 386.508 29.256 387.361 28.36L388.401 29.368C387.889 29.944 387.265 30.3813 386.529 30.68C385.804 30.9787 385.004 31.128 384.129 31.128ZM400.253 19.8V31H398.685V21.192H392.189V31H390.605V19.8H400.253ZM408.786 31.128C407.655 31.128 406.637 30.8827 405.73 30.392C404.823 29.8907 404.109 29.2027 403.586 28.328C403.074 27.4533 402.818 26.4773 402.818 25.4C402.818 24.3227 403.074 23.3467 403.586 22.472C404.109 21.5973 404.823 20.9147 405.73 20.424C406.637 19.9227 407.655 19.672 408.786 19.672C409.906 19.672 410.919 19.9227 411.826 20.424C412.733 20.9147 413.442 21.5973 413.954 22.472C414.466 23.336 414.722 24.312 414.722 25.4C414.722 26.488 414.466 27.4693 413.954 28.344C413.442 29.208 412.733 29.8907 411.826 30.392C410.919 30.8827 409.906 31.128 408.786 31.128ZM408.786 29.704C409.607 29.704 410.343 29.5173 410.994 29.144C411.655 28.7707 412.173 28.2587 412.546 27.608C412.93 26.9467 413.122 26.2107 413.122 25.4C413.122 24.5893 412.93 23.8587 412.546 23.208C412.173 22.5467 411.655 22.0293 410.994 21.656C410.343 21.2827 409.607 21.096 408.786 21.096C407.965 21.096 407.218 21.2827 406.546 21.656C405.885 22.0293 405.362 22.5467 404.978 23.208C404.605 23.8587 404.418 24.5893 404.418 25.4C404.418 26.2107 404.605 26.9467 404.978 27.608C405.362 28.2587 405.885 28.7707 406.546 29.144C407.218 29.5173 407.965 29.704 408.786 29.704ZM421.676 19.8C423.127 19.8 424.268 20.1467 425.1 20.84C425.932 21.5333 426.348 22.488 426.348 23.704C426.348 24.92 425.932 25.8747 425.1 26.568C424.268 27.2613 423.127 27.608 421.676 27.608H418.908V31H417.308V19.8H421.676ZM421.628 26.216C422.642 26.216 423.415 26.0027 423.948 25.576C424.482 25.1387 424.748 24.5147 424.748 23.704C424.748 22.8933 424.482 22.2747 423.948 21.848C423.415 21.4107 422.642 21.192 421.628 21.192H418.908V26.216H421.628ZM435.911 21.192H432.071V31H430.503V21.192H426.679V19.8H435.911V21.192ZM444.573 28.2H438.621L437.389 31H435.741L440.813 19.8H442.397L447.485 31H445.805L444.573 28.2ZM444.013 26.92L441.597 21.432L439.181 26.92H444.013Z" fill="white"/>
</svg>
