<svg width="26" height="26" viewBox="0 0 26 26" fill="none" xmlns="http://www.w3.org/2000/svg">
<path fill-rule="evenodd" clip-rule="evenodd" d="M22.0709 3.98012C20.8928 2.79421 19.491 1.85387 17.9468 1.21359C16.4026 0.573298 14.7467 0.245792 13.0751 0.250041C6.06542 0.250041 0.359083 5.95496 0.35625 12.9675C0.35625 15.2086 0.941333 17.396 2.05342 19.3255L0.25 25.9144L6.99192 24.145C8.85681 25.1601 10.9461 25.6924 13.0694 25.6934H13.0751C20.0833 25.6934 25.7897 19.9885 25.7925 12.976C25.7973 11.305 25.4709 9.64961 24.8321 8.10554C24.1933 6.56147 23.2549 5.15932 22.0709 3.98012ZM13.0751 23.5471H13.0708C11.1775 23.5473 9.31898 23.0379 7.69033 22.0724L7.305 21.8429L3.30433 22.8926L4.37108 18.9925L4.12033 18.593C3.06178 16.9078 2.50141 14.9576 2.50392 12.9675C2.50675 7.13929 7.24833 2.39771 13.0793 2.39771C14.468 2.39462 15.8435 2.66699 17.1263 3.19905C18.409 3.7311 19.5734 4.51228 20.5522 5.49737C21.5363 6.47777 22.3163 7.64348 22.8471 8.92712C23.3779 10.2108 23.649 11.5869 23.6448 12.976C23.642 18.8041 18.9004 23.5471 13.0751 23.5471ZM18.8735 15.6294C18.5548 15.4693 16.9936 14.7015 16.7018 14.5952C16.4113 14.489 16.2003 14.4365 15.9878 14.7539C15.7753 15.0712 15.1661 15.7866 14.9805 15.9991C14.7949 16.2116 14.6093 16.2371 14.292 16.0785C13.9747 15.9198 12.9504 15.584 11.7363 14.5017C10.7914 13.6588 10.1539 12.619 9.96833 12.3002C9.78275 11.9815 9.9485 11.81 10.1086 11.6514C10.2517 11.5097 10.4259 11.2802 10.5846 11.0946C10.7433 10.909 10.7957 10.7773 10.9019 10.5648C11.0082 10.3523 10.9558 10.1667 10.875 10.008C10.7957 9.84796 10.1596 8.28396 9.89467 7.64787C9.63825 7.03162 9.37617 7.11379 9.18067 7.10529C8.97819 7.09701 8.77556 7.09323 8.57292 7.09396C8.41178 7.09806 8.25323 7.13542 8.1072 7.20368C7.96118 7.27193 7.83083 7.36963 7.72433 7.49062C7.4325 7.80937 6.61225 8.57721 6.61225 10.1412C6.61225 11.7052 7.75125 13.2168 7.90992 13.4293C8.06858 13.6418 10.1511 16.8505 13.3386 18.2275C14.0979 18.5548 14.6901 18.7503 15.1505 18.8976C15.9113 19.1399 16.604 19.1045 17.1523 19.0237C17.7628 18.933 19.0322 18.2559 19.2971 17.5135C19.562 16.7712 19.562 16.1351 19.4827 16.002C19.4033 15.8688 19.1894 15.788 18.8735 15.6294Z" fill="#F5E832"/>
</svg>
