<svg width="385" height="12" viewBox="0 0 385 12" fill="none" xmlns="http://www.w3.org/2000/svg">
<path d="M7.08854 10.2669C18.6049 10.9118 30.1192 11.3667 41.6314 11.6315C48.6015 11.7938 55.5554 11.9062 62.5394 11.9082C72.568 11.8963 82.61 11.6842 92.6356 11.4123C101.297 11.2057 109.974 11.0388 118.635 10.8621L139.441 10.3899C147.443 10.2006 155.445 10.0513 163.431 9.81216C181.818 9.26692 200.201 8.72841 218.578 8.19662C225.89 7.99502 233.202 7.85341 240.545 7.72145L256.472 7.43369C258.873 7.4069 261.274 7.3801 263.675 7.35331L281.252 7.31714C283.794 7.28877 286.352 7.26022 288.896 7.35184C297.357 7.51743 305.833 7.64284 314.295 7.87842C323.557 8.13507 332.824 8.30167 342.095 8.37821C350.163 8.44818 358.246 8.47797 366.311 8.34796C372.256 8.30196 378.196 8.03532 384.1 7.54939C380.204 7.23285 376.323 6.86613 372.412 6.57976L372.758 6.5759C364.181 5.90157 355.559 5.37776 346.953 4.93377C340.253 4.58852 333.548 4.28333 326.839 4.01819L334.306 3.71485L344.91 3.24647C349.412 3.06621 353.914 2.82596 358.432 2.62553C366.604 2.2743 374.761 1.82326 382.883 1.22257C374.639 0.794546 366.321 0.827372 358.035 0.81985C349.194 0.898511 340.375 0.986939 331.577 1.08513C323.208 1.17854 314.839 1.36527 306.472 1.64533C298.988 1.85886 291.505 2.08239 284.005 2.2561L265.835 2.6889C262.885 2.72183 259.921 2.85492 256.971 2.89785L227.156 3.31059C224.645 3.33862 222.134 3.36664 219.639 3.39448L206.598 3.48003L189.1 3.56531C186.981 3.58895 184.863 3.6126 182.744 3.57625L151.526 3.44462C143.255 3.40692 134.998 3.26906 126.742 3.18119C111.234 3.00425 95.7412 2.79713 80.234 2.70018C72.0409 2.64161 63.8481 2.61304 55.6405 2.66464L49.3636 2.7347C45.6288 2.77638 41.8835 2.81818 38.1278 2.8601C35.2718 2.89197 32.4011 3.01401 29.5294 3.04606C19.9099 3.15342 10.2764 3.41094 0.65731 3.5483C3.18669 3.78009 5.71606 4.01188 8.26069 4.20349L16.004 4.73711C20.7787 5.06384 25.5532 5.36392 30.3273 5.63732C31.2068 5.68751 32.1015 5.70753 32.9966 5.74754C35.5402 5.85249 38.0838 5.94411 40.6271 6.0224C46.2322 6.21986 51.8367 6.36732 57.4566 6.48461C60.5964 6.55958 63.7355 6.58455 66.8747 6.60952C51.3901 7.13235 35.9254 8.01499 20.5266 9.18691C16.042 9.54698 11.5572 9.88705 7.08854 10.2669Z" fill="#16171B"/>
</svg>
